<!-- ConsulText.svg: normalized and vector-optimized -->
<svg
  xmlns="http://www.w3.org/2000/svg"
  viewBox="0 0 15.13 7.865"
  preserveAspectRatio="xMidYMid meet"
>
  <g transform="translate(-93.2 -33.87)">
    <path
      d="m93.91 40.75.27-.18-.18-.27-.27.18Zm-.01.6c.1.08.21.15.34.22s.26.11.38.14c.16.04.31.03.45-.01.15-.05.27-.13.38-.25s.18-.28.22-.48c.04-.21.04-.39-.02-.56s-.15-.3-.27-.41c-.12-.11-.26-.18-.41-.21-.12-.03-.26-.04-.4-.04s-.32.01-.52.03l.06.25c.37-.04.64-.05.81-.01.1.02.2.07.28.14s.14.17.18.3c.04.13.04.27.01.44-.05.22-.13.38-.26.47-.13.09-.29.12-.49.08-.18-.04-.38-.14-.6-.31Zm1.62-2.61-.22.22-.07-.26-.09.23c-.04.08-.06.14-.1.18-.04.03-.09.05-.14.04-.06-.01-.13-.03-.22-.07l-.10-.05-.12-.05c-.2-.09-.43-.18-.68-.28-.25-.11-.42-.17-.53-.2l-.05.25c.12.03.33.10.61.22s.53.22.75.32c.15.06.28.10.38.11.11.01.20-.01.28-.07s.14-.17.20-.31Zm-1.69-.87.22-1.14-.13-.03-.21 1.07Zm2.42-.15c-.23-.18-.22-.17-.44.02-.08.03-.17.05-.29.06-.11 0-.28 0-.50-.01-.12 0-.24 0-.37.02-.13.02-.25.04-.37.08l.20-1.07-.24-.06L94 38l.21.18c.24-.08.47-.13.66-.14.20-.02.34 0 .42.06.03.02.05.04.06.07.04.07.04.17 0 .29-.19.45-.26.44-.04.66l.04-.07c.30-.44.36-.78.19-1.02l-.01-.01c.19-.01.33-.03.44-.06s.19-.10.26-.20Zm.44.29h-.32v.32h.32Zm.40-.4h-.32v.32h.32Zm-.87.17c.20-.2.34-.44.37-.61.02-.17-.03-.32-.16-.45-.07-.07-.17-.14-.30-.21-.12-.07-.23-.12-.32-.15l-.08.25c.06.02.16.06.28.13.13.06.21.11.26.16.07.07.08.15.05.25-.04.09-.14.22-.30.38l-.22.23Zm1.08-1.03c-.08-.12-.20-.29-.38-.53-.18-.24-.37-.48-.58-.73-.21-.26-.35-.42-.42-.49l-.17.20c.06.07.19.22.39.46.19.24.38.47.55.70.18.24.31.42.37.53Zm.48.71c.11-.13.20-.27.26-.42s.10-.30.10-.44-.03-.26-.09-.37c-.05-.09-.14-.20-.25-.33s-.22-.24-.34-.35l-.16.20c.30.31.49.51.54.60.04.07.05.15.04.26-.01.10-.04.22-.10.34-.05.13-.13.24-.22.35Zm2.17-1.19c.20-.03.37-.10.51-.21.15-.10.25-.22.32-.36s.09-.27.07-.40c-.01-.06-.03-.10-.06-.13s-.08-.05-.15-.07c-.06-.02-.17-.03-.31-.05s-.24-.04-.29-.06-.07-.05-.08-.09c-.01-.08 0-.17.04-.26.05-.09.11-.18.19-.25s.17-.11.28-.13c.08-.02.15-.02.21 0l.04-.26c-.03-.02-.07-.03-.13-.03s-.11 0-.17.01c-.14.02-.27.08-.39.19-.12.10-.20.23-.26.38-.05.15-.07.31-.04.46.02.10.07.18.14.22.07.04.20.07.37.09.15.02.25.04.31.05.05.01.08.02.08.04-.01.07-.04.15-.10.23-.05.08-.13.15-.24.21-.10.06-.22.11-.37.13-.22.04-.40.01-.53-.07s-.22-.22-.25-.42c-.03-.18-.01-.40.07-.67l-.23-.06c-.04.12-.06.25-.08.40-.01.14-.01.28.01.41.03.17.10.31.20.43.11.11.23.19.38.24.15.05.32.06.50.03Zm1.45-1.46c.01-.17.13-.33.35-.49.12.11.21.22.26.31.05.10.07.19.06.28-.01.08-.05.13-.12.17s-.15.05-.25.04s-.18-.05-.23-.10c-.05-.05-.07-.12-.06-.20Zm.26.59c.11.01.21 0 .31-.04.09-.04.17-.10.23-.18.06-.09.10-.18.11-.29.02-.17-.03-.34-.14-.50-.11-.17-.29-.34-.54-.52l-.16.21.11.08c-.19.16-.31.34-.38.52-.01.05-.02.10-.03.15-.01.10 0 .19.04.27.04.08.09.15.17.20.08.06.18.09.29.10Zm.12.76c.17.06.33.09.49.10s.31 0 .44-.05c.13-.04.24-.11.32-.21.06-.09.14-.20.22-.35s.15-.29.21-.44l-.25-.08c-.18.40-.31.64-.38.72-.05.06-.13.10-.23.13s-.22.04-.35.03s-.27-.04-.40-.09Zm2.02-.73c0-.04.01-.08.03-.12.03-.05.07-.10.12-.14.06-.04.11-.07.17-.09s.11-.01.15.01c.10.05.14.15.15.29s-.01.30-.07.46c-.07-.02-.13-.04-.19-.07-.10-.05-.18-.10-.24-.16-.06-.06-.09-.12-.10-.18Zm-.80 1.08c.35.09.66.10.92.02c.27-.08.45-.23.57-.47c.07-.14.12-.30.15-.47s.03-.33-.01-.47c-.03-.14-.11-.24-.22-.29-.08-.04-.18-.05-.28-.02c-.10.03-.20.08-.29.16s-.16.17-.21.27c-.04.09-.06.16-.06.24c0 .10.04.20.12.29c.08.09.19.16.31.22c.09.04.16.07.23.09c-.09.14-.24.21-.43.24c-.20.03-.44 0-.75-.07Zm1.91-.35c.02.20.43.49.49.48c.14-.02.10-.19-.06-.33c-.08-.07-.22-.16-.13-.30l.11-.18.08-.11c.13-.18.26-.38.41-.61s.25-.39.30-.49l-.24-.10c-.06.11-.17.29-.34.55s-.32.48-.46.68c-.10.13-.15.20-.16.34Zm2.46.09-.02.27.27.02.02-.27Zm-.08.43-.02.30.30.02.02-.30Zm-.38-.44-.02.30.30.02.02-.30Zm0 2.26.04-.17.06-.09-.01-.01c-.05-.06-.03-.13-.04-.19c0-.05.01-.11.05-.17c.04-.07.14-.20.31-.41l-.20-.14c-.17.21-.27.35-.31.41c-.05 0-.10-.01-.15-.03s-.09-.06-.13-.10c-.06-.06-.08-.13-.07-.19c.01-.06.05-.12.13-.19c.05-.04.11-.08.17-.12s.09-.06.10-.06l-.14-.19c-.08.05-.15.09-.21.12s-.12.06-.18.07c-.17.04-.29.01-.37-.08s-.06-.18.05-.28c.03-.02.06-.05.10-.07c.04-.02.08-.05.13-.07s.08-.03.09-.04l-.14-.19c-.08.04-.16.08-.22.10-.06.03-.13.04-.20.05s-.14 0-.21-.03s-.15-.06-.21-.11c0 0-.23.21.06.34c.11.03.22.04.34.02c-.06.07-.10.15-.10.24s.04.17.10.24l.01.01c.06.07.14.11.24.13c.09.02.19.02.30-.01c-.06.09-.09.18-.09.27s.04.18.11.26c.05.05.11.09.18.12c.07.04.14.04.22.04c-.02.08-.02.16 0 .23s.06.14.11.20Zm.57.17c.17.02.30.04.39.07c.10.03.16.08.18.13c.03.08.02.16-.04.24c-.06.09-.13.15-.23.19c-.05.02-.10.03-.15.03c-.05 0-.09-.01-.12-.04c-.01 0-.02-.02-.03-.04c-.04-.09-.04-.28 0-.56Zm-.72-.43.02.05c.08.19.23.31.44.36c-.05.33-.05.56.01.70c.02.04.04.08.08.11c.08.06.17.10.27.10c.10.01.21-.02.31-.06s.19-.11.27-.19c.07-.08.12-.17.15-.27s.02-.20-.03-.29c-.05-.10-.14-.18-.28-.22s-.31-.07-.51-.08c-.11-.01-.20-.03-.28-.08c-.08-.04-.20-.17-.20-.17l-.05-.16Z"
      fill="currentColor"
    />
  </g>
</svg>