<svg width="25" height="24" viewBox="0 0 25 24" fill="none" xmlns="http://www.w3.org/2000/svg">
<path d="M21.8729 16.68C21.3554 17.8294 21.106 18.3431 20.4404 19.3575C19.5085 20.775 18.1942 22.545 16.5704 22.5562C15.1248 22.5694 14.7517 21.6131 12.7885 21.63C10.8273 21.6394 10.4185 22.575 8.97103 22.56C7.3454 22.545 6.10228 20.9512 5.1704 19.5356C2.56415 15.5662 2.28853 10.9125 3.89915 8.43748C5.03915 6.68248 6.84103 5.65123 8.53415 5.65123C10.2592 5.65123 11.3429 6.59811 12.7679 6.59811C14.1517 6.59811 14.9935 5.64936 16.9885 5.64936C18.496 5.64936 20.0898 6.47061 21.2298 7.88811C17.5023 9.93186 18.1079 15.255 21.8729 16.68ZM15.4735 4.06498C16.1992 3.13311 16.7504 1.81873 16.5498 0.47998C15.3667 0.560606 13.9829 1.31623 13.1748 2.29498C12.4417 3.18748 11.8342 4.51123 12.0704 5.79186C13.3623 5.83311 14.6992 5.06248 15.4735 4.06498Z" fill="black"/>
</svg>
