<svg width="25" height="25" viewBox="0 0 25 25" fill="none" xmlns="http://www.w3.org/2000/svg">
<path d="M10.0548 9.68726C10.2899 9.01892 10.754 8.45536 11.3648 8.09639C11.9756 7.73741 12.6937 7.60619 13.392 7.72597C14.0903 7.84574 14.7237 8.20878 15.1799 8.75078C15.6362 9.29279 15.8859 9.97878 15.8848 10.6873C15.8848 12.6873 12.8848 13.6873 12.8848 13.6873M12.9648 17.6873H12.9748M22.9648 12.6873C22.9648 18.2101 18.4877 22.6873 12.9648 22.6873C7.442 22.6873 2.96484 18.2101 2.96484 12.6873C2.96484 7.16441 7.442 2.68726 12.9648 2.68726C18.4877 2.68726 22.9648 7.16441 22.9648 12.6873Z" stroke="#BEDFAC" stroke-width="1.5" stroke-linecap="round" stroke-linejoin="round"/>
</svg>
