<svg width="30" height="30" viewBox="0 0 30 30" fill="none" xmlns="http://www.w3.org/2000/svg">
<g clip-path="url(#clip0_1230_6267)">
<path d="M19.3707 12.7234L20.0099 9.79227C20.4806 7.63386 19.1124 5.50255 16.954 5.03184C14.7956 4.56114 12.6643 5.9293 12.1936 8.08771L11.5544 11.0188M6.95955 11.4005L5.00968 17.5257C4.45527 19.2673 4.17807 20.1381 4.32334 20.889C4.45096 21.5487 4.79635 22.1465 5.30415 22.5865C5.88221 23.0874 6.77507 23.2821 8.56078 23.6715L16.8245 25.4736C18.6102 25.8631 19.503 26.0578 20.2371 25.843C20.8821 25.6544 21.445 25.2547 21.8357 24.7081C22.2804 24.0858 22.3909 23.1787 22.612 21.3644L23.3894 14.9835C23.5761 13.4515 23.6694 12.6855 23.4555 12.0443C23.2672 11.4796 22.9151 10.9838 22.4441 10.6198C21.9092 10.2065 21.1553 10.0421 19.6474 9.71322L12.5561 8.16677C11.0482 7.83792 10.2943 7.6735 9.63593 7.82659C9.05613 7.96142 8.52955 8.26568 8.12319 8.70066C7.66179 9.19457 7.42771 9.92989 6.95955 11.4005Z" stroke="#BEDFAC" stroke-width="1.5" stroke-linecap="round" stroke-linejoin="round"/>
</g>
<defs>
<clipPath id="clip0_1230_6267">
<rect width="24" height="24" fill="white" transform="translate(5.65625 0.520752) rotate(12.3024)"/>
</clipPath>
</defs>
</svg>
