<svg width="30" height="29" viewBox="0 0 30 29" fill="none" xmlns="http://www.w3.org/2000/svg">
<g clip-path="url(#clip0_1179_9468)">
<path d="M24.7955 12.3853C23.6963 6.90698 18.3641 3.35695 12.8858 4.45612C8.43937 5.34825 5.26324 9.02882 4.81213 13.3128C4.78323 13.5872 4.76878 13.7245 4.80498 13.8851C4.83442 14.0158 4.90686 14.17 4.98866 14.2761C5.08925 14.4065 5.22187 14.4948 5.48711 14.6714L18.2253 23.1518C18.4905 23.3283 18.6231 23.4166 18.7823 23.4591C18.9117 23.4937 19.0819 23.501 19.2138 23.4778C19.376 23.4492 19.497 23.3829 19.739 23.2504C23.5172 21.1815 25.6875 16.8316 24.7955 12.3853Z" stroke="#BEDFAC" stroke-width="1.5" stroke-linecap="round" stroke-linejoin="round"/>
<path d="M6.13539 13.6987C6.36783 13.6347 6.6042 13.5784 6.84427 13.5302C12.3226 12.431 17.6548 15.9811 18.7539 21.4594C18.8021 21.6995 18.8414 21.9393 18.8719 22.1785C18.9253 22.5963 18.9519 22.8052 18.8574 22.9566C18.7806 23.0795 18.6266 23.175 18.4824 23.1892C18.3048 23.2067 18.1147 23.0801 17.7346 22.827L5.97574 14.9982C5.59559 14.7451 5.40552 14.6186 5.35315 14.448C5.31062 14.3095 5.33935 14.1306 5.42311 14.0123C5.52623 13.8667 5.72929 13.8107 6.13539 13.6987Z" stroke="#BEDFAC" stroke-width="1.5" stroke-linecap="round" stroke-linejoin="round"/>
</g>
<defs>
<clipPath id="clip0_1179_9468">
<rect width="24" height="24" fill="white" transform="translate(0.841797 4.83301) rotate(-11.3451)"/>
</clipPath>
</defs>
</svg>
