<svg width="34" height="35" viewBox="0 0 34 35" fill="none" xmlns="http://www.w3.org/2000/svg">
<path d="M16.998 12.6557V12.6557C17.6928 15.209 19.6874 17.2036 22.2407 17.8983V17.8983V17.8983C19.6874 18.593 17.6928 20.5876 16.998 23.1409V23.1409V23.1409C16.3033 20.5876 14.3087 18.593 11.7554 17.8983V17.8983V17.8983C14.3087 17.2036 16.3033 15.209 16.998 12.6557V12.6557Z" fill="white"/>
<path d="M6.97754 22.0061L6.3916 21.4211L2.82617 17.8557L6.3916 14.2903L6.97754 13.7053V7.83517H12.8477L13.4336 7.24924L16.998 3.68381L21.1494 7.83517H27.0195V13.7053L27.6055 14.2903L31.1709 17.8557L27.6055 21.4211L27.0195 22.0061V27.8762H21.1494L20.5635 28.4621L16.998 32.0266L12.8477 27.8762H6.97754V22.0061Z" stroke="#00AEEF" stroke-width="4"/>
</svg>
