<svg width="48" height="48" viewBox="0 0 48 48" fill="none" xmlns="http://www.w3.org/2000/svg">
<path d="M18.7656 0.00768513C22.2817 -0.00218799 25.7978 -0.00218709 29.314 0.00604051C29.2364 2.73102 29.8582 5.40828 30.8477 7.93251C27.4009 9.13209 23.677 9.58297 20.0817 8.81122C19.168 5.96776 18.8893 2.97456 18.7656 0.00768513Z" fill="#41B3E5"/>
<path d="M38.008 15.9924L38.0904 16.045C41.0475 17.8518 44.5273 18.7371 47.9923 18.6285C47.9989 22.1367 47.9989 25.6466 47.9939 29.1549C42.4295 29.2487 36.8436 27.6904 32.1533 24.7005C29.9763 23.2606 27.8076 21.6727 26.1914 19.601C30.3177 19.2061 34.4242 18.1151 38.008 15.9924Z" fill="#41B3E5"/>
<path d="M0.00989484 18.6087C4.50728 18.64 8.98323 19.7277 12.9941 21.7566C16.0897 23.3412 19.0187 25.4195 21.2055 28.1445C17.1072 28.5904 13.0815 29.739 9.46644 31.7416C8.1042 31.0801 6.77164 30.3182 5.29395 29.9315C3.57878 29.3836 1.77455 29.2552 0 29.0232C0.00494762 25.5511 0.00494722 22.0807 0.00989484 18.6087Z" fill="#FED237"/>
<path d="M16.6582 39.9525C18.6125 39.2729 20.6361 38.6707 22.7256 38.6526C23.1891 38.6526 23.6541 38.6592 24.1209 38.6756C25.2192 38.7316 26.3077 38.9011 27.3962 39.0426C28.3692 41.9206 28.5622 44.9681 28.7254 47.9778C25.2209 48.065 21.7163 47.8593 18.2118 47.9695C18.2513 45.2083 17.59 42.5278 16.6582 39.9525Z" fill="#FED237"/>
<path d="M37.3487 3.35962L37.4329 3.44848C38.2393 4.30579 39.0804 5.13184 39.9364 5.94144C40.2068 6.21295 40.4773 6.48775 40.695 6.80369C40.7643 6.95179 40.8748 7.05875 41.0248 7.12457C42.3294 8.28137 43.4772 9.60107 44.7355 10.8056C44.2309 11.2219 43.7708 11.6859 43.3222 12.1615C43.1276 12.3524 42.9066 12.5153 42.6757 12.6601C42.4827 12.7605 42.3211 12.9069 42.1892 13.0764C42.0506 13.2294 41.9072 13.3825 41.7307 13.4894C41.574 13.547 41.4602 13.6491 41.386 13.7972C41.3118 13.8465 41.1634 13.9485 41.0891 13.9995C40.9292 14.044 40.8071 14.1394 40.7247 14.2826C40.6521 14.3352 40.5037 14.4389 40.4311 14.4899C40.2695 14.5311 40.1458 14.6216 40.0567 14.7614C39.4597 15.265 38.7539 15.6204 38.1008 16.0449L38.0183 15.9923C34.9327 14.0654 32.3582 11.2812 30.9531 7.90455C32.2181 7.40595 33.3164 6.60294 34.4973 5.95131C34.6539 5.90359 34.7743 5.80651 34.8568 5.66335C34.9376 5.6074 35.1009 5.49386 35.1833 5.43791C35.3697 5.33918 35.5429 5.21247 35.6946 5.06438L35.7804 4.98869C36.3658 4.50984 36.8837 3.95694 37.3487 3.35962Z" fill="#FF4181"/>
<path d="M7.45122 6.65395C8.47373 5.55803 9.5721 4.53616 10.6375 3.48303C11.0234 3.90264 11.4407 4.29098 11.8925 4.63654C12.0492 4.76325 12.2042 4.8916 12.351 5.03147C12.4961 5.1845 12.6594 5.32108 12.8425 5.42804C12.9167 5.47905 13.0684 5.58107 13.1426 5.63208C13.4411 5.846 13.7479 6.05004 14.0596 6.24586C15.8424 7.45696 17.8528 8.28795 19.9473 8.78819C20.8626 11.1215 21.7696 13.4845 23.1203 15.6089C23.9895 17.0059 25.0153 18.296 25.9834 19.6256L25.7937 19.6272C24.6096 19.6206 23.4287 19.642 22.2463 19.6272C21.9115 19.6124 21.575 19.5795 21.2534 19.489C21.0704 19.4215 20.8774 19.3903 20.6845 19.4117C18.6559 19.415 16.7049 18.7699 14.7918 18.1709C12.6759 17.4568 10.6342 16.509 8.7442 15.3176C8.24779 15 7.70685 14.7071 7.33083 14.2398C7.24837 14.0917 7.12468 14.0012 6.95811 13.9683C6.87565 13.9271 6.70908 13.8432 6.62497 13.8004C6.56065 13.6474 6.45345 13.5388 6.30337 13.4697C6.22421 13.4039 6.06919 13.2706 5.99003 13.2031C5.80202 13.0057 5.60081 12.8214 5.36992 12.6749C5.07142 12.4709 4.78446 12.2504 4.52388 12.0002C4.11158 11.5856 3.68114 11.189 3.22266 10.8253C3.35789 10.6756 3.49478 10.5259 3.63331 10.3794C4.02582 9.9779 4.41503 9.57146 4.82239 9.18311C4.86527 9.14691 4.95267 9.07286 4.9972 9.03502C5.16872 8.90996 5.32704 8.76844 5.47053 8.61047C5.52165 8.56111 5.62225 8.46402 5.67338 8.41466C5.83665 8.27972 5.98838 8.12833 6.12031 7.96214C6.38913 7.64949 6.68269 7.35823 6.99934 7.0933C7.16591 6.96495 7.31763 6.81686 7.45122 6.65395Z" fill="#FF4181"/>
<path d="M12.8359 2.19786C13.3027 2.18796 13.7611 2.19951 14.2312 2.22095C13.7644 2.20446 13.2994 2.19786 12.8359 2.19786Z" fill="#FF4181"/>
<path d="M20.0871 8.81122C23.6824 9.58297 27.4063 9.1321 30.8532 7.93251L30.9488 7.90454C32.3539 11.2811 34.9284 14.0654 38.014 15.9923C34.4303 18.115 30.3238 19.206 26.1975 19.6009C26.143 19.6075 26.0358 19.6206 25.9814 19.6256C25.0133 18.296 23.9875 17.0059 23.1184 15.6089C21.7677 13.4845 20.8606 11.1215 19.9453 8.78818L20.0871 8.81122Z" fill="#4D48A9"/>
<path d="M9.47222 31.7415C13.0873 29.7389 17.113 28.5904 21.2113 28.1444C21.2591 28.1379 21.3548 28.1247 21.4026 28.1198C23.1342 30.4169 24.9055 32.7321 26.0715 35.3814C26.6289 36.558 27.0115 37.8069 27.5079 39.0098L27.3991 38.995C26.3106 38.8535 25.2221 38.684 24.1238 38.628C23.6537 38.6067 23.1953 38.5951 22.7285 38.605C20.639 38.6231 18.6154 39.2254 16.6611 39.905L16.5852 39.9313C15.0911 36.5678 12.6057 33.6339 9.40625 31.7761L9.47222 31.7415Z" fill="#6FAA50"/>
<path d="M21.3945 28.1198C25.5011 27.9453 29.6538 28.4522 33.5014 29.9315C37.7415 31.4503 41.4901 34.1259 44.6005 37.3478C42.1482 39.8359 39.671 42.2992 37.1857 44.756C34.6146 41.9372 31.2106 39.9132 27.4999 39.0098C27.0035 37.8069 26.6209 36.558 26.0634 35.3814C24.8974 32.7322 23.1262 30.4169 21.3945 28.1198Z" fill="black"/>
<path d="M2.91406 36.8377C4.79581 34.8203 7.02224 33.1665 9.39874 31.7761C12.5982 33.6339 15.0836 36.5678 16.5777 39.9313C14.2309 40.9696 12.0606 42.4111 10.2778 44.2606C7.81716 41.7923 5.38787 39.2928 2.91406 36.8377Z" fill="black"/>
</svg>
