<?xml version="1.0" encoding="UTF-8"?>
<svg id="Layer_1" xmlns="http://www.w3.org/2000/svg" version="1.1" viewBox="0 0 34 34">
  <!-- Generator: Adobe Illustrator 29.5.1, SVG Export Plug-In . SVG Version: 2.1.0 Build 141)  -->
  <defs>
    <style>
      .st0 {
        fill: #fff;
      }

      .st1 {
        fill: none;
        stroke: #00aeef;
        stroke-width: 4px;
      }
    </style>
  </defs>
  <path class="st1" d="M7,21.2c-.3-.3-3.8-3.8-4.2-4.2.4-.4,3.9-3.9,4.2-4.2v-5.8h5.8c.3-.3,3.8-3.8,4.2-4.2l4.2,4.2h5.8v5.8c.3.3,3.8,3.8,4.2,4.2l-4.2,4.2v5.8h-5.8l-4.2,4.2-4.2-4.2h-5.8s0-5.8,0-5.8Z"/>
  <path class="st0" d="M17,11.8c.7,2.6,2.7,4.5,5.2,5.2-2.6.7-4.5,2.7-5.2,5.2-.7-2.6-2.7-4.5-5.2-5.2,2.6-.7,4.5-2.7,5.2-5.2Z"/>
</svg>