<svg width="34" height="34" viewBox="0 0 34 34" fill="none" xmlns="http://www.w3.org/2000/svg">
<path d="M17 11.8C17.6947 14.3532 19.6894 16.3479 22.2427 17.0426C19.6894 17.7373 17.6947 19.7319 17 22.2852C16.3053 19.7319 14.3106 17.7373 11.7573 17.0426C14.3106 16.3479 16.3053 14.3532 17 11.8Z" fill="black"/>
<path d="M6.97949 21.1504L6.39355 20.5654L2.82812 17L6.39355 13.4346L6.97949 12.8496V6.97949H12.8496L13.4355 6.39355L17 2.82812L21.1514 6.97949H27.0215V12.8496L27.6074 13.4346L31.1729 17L27.6074 20.5654L27.0215 21.1504V27.0205H21.1514L20.5654 27.6064L17 31.1709L12.8496 27.0205H6.97949V21.1504Z" stroke="#00AEEF" stroke-width="4"/>
</svg>
