<svg width="49" height="48" viewBox="0 0 49 48" fill="none" xmlns="http://www.w3.org/2000/svg">
<path d="M38.5 44L32.5 38M32.5 38L38.5 32M32.5 38H44.5" stroke="#173102" stroke-width="3" stroke-linecap="round" stroke-linejoin="round"/>
<path d="M44.5 24C44.5 12.9543 35.5457 4 24.5 4C13.4543 4 4.5 12.9543 4.5 24C4.5 35.0457 13.4543 44 24.5 44M16.5 28C16.5 28 19.5 32 24.5 32C29.5 32 32.5 28 32.5 28M30.5 20H30.52M18.5 20H18.52M31.5 20C31.5 20.5523 31.0523 21 30.5 21C29.9477 21 29.5 20.5523 29.5 20C29.5 19.4477 29.9477 19 30.5 19C31.0523 19 31.5 19.4477 31.5 20ZM19.5 20C19.5 20.5523 19.0523 21 18.5 21C17.9477 21 17.5 20.5523 17.5 20C17.5 19.4477 17.9477 19 18.5 19C19.0523 19 19.5 19.4477 19.5 20Z" stroke="#173102" stroke-width="3" stroke-linecap="round" stroke-linejoin="round"/>
</svg>
