<svg width="49" height="48" viewBox="0 0 49 48" fill="none" xmlns="http://www.w3.org/2000/svg">
<path d="M44.5 22V16.4C44.5 14.1598 44.5 13.0397 44.064 12.184C43.6805 11.4314 43.0686 10.8195 42.316 10.436C41.4603 10 40.3402 10 38.1 10H10.9C8.65979 10 7.53969 10 6.68404 10.436C5.93139 10.8195 5.31947 11.4314 4.93597 12.184C4.5 13.0397 4.5 14.1598 4.5 16.4V23.6C4.5 25.8402 4.5 26.9603 4.93597 27.816C5.31947 28.5686 5.93139 29.1805 6.68404 29.564C7.53969 30 8.65979 30 10.9 30H22.5M24.5 20H24.51M34.5 20H34.51M14.5 20H14.51M39 36V32.5C39 30.567 37.433 29 35.5 29C33.567 29 32 30.567 32 32.5V36M25 20C25 20.2761 24.7761 20.5 24.5 20.5C24.2239 20.5 24 20.2761 24 20C24 19.7239 24.2239 19.5 24.5 19.5C24.7761 19.5 25 19.7239 25 20ZM35 20C35 20.2761 34.7761 20.5 34.5 20.5C34.2239 20.5 34 20.2761 34 20C34 19.7239 34.2239 19.5 34.5 19.5C34.7761 19.5 35 19.7239 35 20ZM15 20C15 20.2761 14.7761 20.5 14.5 20.5C14.2239 20.5 14 20.2761 14 20C14 19.7239 14.2239 19.5 14.5 19.5C14.7761 19.5 15 19.7239 15 20ZM31.7 44H39.3C40.4201 44 40.9802 44 41.408 43.782C41.7843 43.5903 42.0903 43.2843 42.282 42.908C42.5 42.4802 42.5 41.9201 42.5 40.8V39.2C42.5 38.0799 42.5 37.5198 42.282 37.092C42.0903 36.7157 41.7843 36.4097 41.408 36.218C40.9802 36 40.4201 36 39.3 36H31.7C30.5799 36 30.0198 36 29.592 36.218C29.2157 36.4097 28.9097 36.7157 28.718 37.092C28.5 37.5198 28.5 38.0799 28.5 39.2V40.8C28.5 41.9201 28.5 42.4802 28.718 42.908C28.9097 43.2843 29.2157 43.5903 29.592 43.782C30.0198 44 30.5799 44 31.7 44Z" stroke="#173102" stroke-width="3" stroke-linecap="round" stroke-linejoin="round"/>
</svg>
