<svg width="24" height="25" viewBox="0 0 24 25" fill="none" xmlns="http://www.w3.org/2000/svg">
<path d="M2 12.2236C2 17.7465 6.47715 22.2236 12 22.2236C13.6569 22.2236 15 20.8805 15 19.2236V18.7236C15 18.2592 15 18.027 15.0257 17.8321C15.2029 16.4859 16.2622 15.4265 17.6084 15.2493C17.8034 15.2236 18.0356 15.2236 18.5 15.2236H19C20.6569 15.2236 22 13.8805 22 12.2236C22 6.70079 17.5228 2.22363 12 2.22363C6.47715 2.22363 2 6.70079 2 12.2236Z" stroke="#6658BA" stroke-width="1.5" stroke-linecap="round" stroke-linejoin="round"/>
<path d="M7 13.2236C7.55228 13.2236 8 12.7759 8 12.2236C8 11.6713 7.55228 11.2236 7 11.2236C6.44772 11.2236 6 11.6713 6 12.2236C6 12.7759 6.44772 13.2236 7 13.2236Z" stroke="#6658BA" stroke-width="1.5" stroke-linecap="round" stroke-linejoin="round"/>
<path d="M16 9.22363C16.5523 9.22363 17 8.77592 17 8.22363C17 7.67135 16.5523 7.22363 16 7.22363C15.4477 7.22363 15 7.67135 15 8.22363C15 8.77592 15.4477 9.22363 16 9.22363Z" stroke="#6658BA" stroke-width="1.5" stroke-linecap="round" stroke-linejoin="round"/>
<path d="M10 8.22363C10.5523 8.22363 11 7.77592 11 7.22363C11 6.67135 10.5523 6.22363 10 6.22363C9.44772 6.22363 9 6.67135 9 7.22363C9 7.77592 9.44772 8.22363 10 8.22363Z" stroke="#6658BA" stroke-width="1.5" stroke-linecap="round" stroke-linejoin="round"/>
</svg>
