<svg width="24" height="25" viewBox="0 0 24 25" fill="none" xmlns="http://www.w3.org/2000/svg">
<path d="M9 10.7236L11 12.7236L15.5 8.22363M20 21.2236V8.02363C20 6.34348 20 5.5034 19.673 4.86166C19.3854 4.29718 18.9265 3.83823 18.362 3.55061C17.7202 3.22363 16.8802 3.22363 15.2 3.22363H8.8C7.11984 3.22363 6.27976 3.22363 5.63803 3.55061C5.07354 3.83823 4.6146 4.29718 4.32698 4.86166C4 5.5034 4 6.34348 4 8.02363V21.2236L6.75 19.2236L9.25 21.2236L12 19.2236L14.75 21.2236L17.25 19.2236L20 21.2236Z" stroke="#6658BA" stroke-width="1.5" stroke-linecap="round" stroke-linejoin="round"/>
</svg>
