<svg width="24" height="25" viewBox="0 0 24 25" fill="none" xmlns="http://www.w3.org/2000/svg">
<path d="M19 4.72363C19 5.18829 19 5.42062 18.9616 5.61381C18.8038 6.40719 18.1836 7.02739 17.3902 7.1852C17.197 7.22363 16.9647 7.22363 16.5 7.22363H5.5C5.03534 7.22363 4.80302 7.22363 4.60982 7.1852C3.81644 7.02739 3.19624 6.40719 3.03843 5.61381C3 5.42062 3 5.18829 3 4.72363C3 4.25898 3 4.02665 3.03843 3.83345C3.19624 3.04007 3.81644 2.41988 4.60982 2.26206C4.80302 2.22363 5.03534 2.22363 5.5 2.22363H16.5C16.9647 2.22363 17.197 2.22363 17.3902 2.26206C18.1836 2.41988 18.8038 3.04007 18.9616 3.83345C19 4.02665 19 4.25898 19 4.72363ZM19 4.72363C19.9319 4.72363 20.3978 4.72363 20.7654 4.87587C21.2554 5.07886 21.6448 5.46821 21.8478 5.95827C22 6.32581 22 6.79175 22 7.72363V8.02363C22 9.14374 22 9.70379 21.782 10.1316C21.5903 10.5079 21.2843 10.8139 20.908 11.0056C20.4802 11.2236 19.9201 11.2236 18.8 11.2236H15.2C14.0799 11.2236 13.5198 11.2236 13.092 11.4416C12.7157 11.6334 12.4097 11.9393 12.218 12.3157C12 12.7435 12 13.3035 12 14.4236V15.2236M11.6 22.2236H12.4C12.9601 22.2236 13.2401 22.2236 13.454 22.1146C13.6422 22.0188 13.7951 21.8658 13.891 21.6776C14 21.4637 14 21.1837 14 20.6236V16.8236C14 16.2636 14 15.9836 13.891 15.7696C13.7951 15.5815 13.6422 15.4285 13.454 15.3326C13.2401 15.2236 12.9601 15.2236 12.4 15.2236H11.6C11.0399 15.2236 10.7599 15.2236 10.546 15.3326C10.3578 15.4285 10.2049 15.5815 10.109 15.7696C10 15.9836 10 16.2636 10 16.8236V20.6236C10 21.1837 10 21.4637 10.109 21.6776C10.2049 21.8658 10.3578 22.0188 10.546 22.1146C10.7599 22.2236 11.0399 22.2236 11.6 22.2236Z" stroke="#6658BA" stroke-width="1.5" stroke-linecap="round" stroke-linejoin="round"/>
</svg>
