<svg width="24" height="25" viewBox="0 0 24 25" fill="none" xmlns="http://www.w3.org/2000/svg">
<path d="M8.5 12.7236C8.5 12.7236 9.8125 14.2236 12 14.2236C14.1875 14.2236 15.5 12.7236 15.5 12.7236M14.75 7.72363H14.76M9.25 7.72363H9.26M7 18.2236V20.5591C7 21.092 7 21.3584 7.10923 21.4952C7.20422 21.6143 7.34827 21.6835 7.50054 21.6833C7.67563 21.6831 7.88367 21.5167 8.29976 21.1838L10.6852 19.2755C11.1725 18.8856 11.4162 18.6907 11.6875 18.5521C11.9282 18.4291 12.1844 18.3392 12.4492 18.2849C12.7477 18.2236 13.0597 18.2236 13.6837 18.2236H16.2C17.8802 18.2236 18.7202 18.2236 19.362 17.8967C19.9265 17.609 20.3854 17.1501 20.673 16.5856C21 15.9439 21 15.1038 21 13.4236V8.02363C21 6.34348 21 5.5034 20.673 4.86166C20.3854 4.29718 19.9265 3.83823 19.362 3.55061C18.7202 3.22363 17.8802 3.22363 16.2 3.22363H7.8C6.11984 3.22363 5.27976 3.22363 4.63803 3.55061C4.07354 3.83823 3.6146 4.29718 3.32698 4.86166C3 5.5034 3 6.34348 3 8.02363V14.2236C3 15.1536 3 15.6186 3.10222 16.0001C3.37962 17.0354 4.18827 17.844 5.22354 18.1214C5.60504 18.2236 6.07003 18.2236 7 18.2236ZM15.25 7.72363C15.25 7.99978 15.0261 8.22363 14.75 8.22363C14.4739 8.22363 14.25 7.99978 14.25 7.72363C14.25 7.44749 14.4739 7.22363 14.75 7.22363C15.0261 7.22363 15.25 7.44749 15.25 7.72363ZM9.75 7.72363C9.75 7.99978 9.52614 8.22363 9.25 8.22363C8.97386 8.22363 8.75 7.99978 8.75 7.72363C8.75 7.44749 8.97386 7.22363 9.25 7.22363C9.52614 7.22363 9.75 7.44749 9.75 7.72363Z" stroke="#6658BA" stroke-width="1.5" stroke-linecap="round" stroke-linejoin="round"/>
</svg>
