<svg width="24" height="25" viewBox="0 0 24 25" fill="none" xmlns="http://www.w3.org/2000/svg">
<path d="M14 7.22363H16.3373C16.5818 7.22363 16.7041 7.22363 16.8192 7.25126C16.9213 7.27576 17.0188 7.31616 17.1083 7.37099C17.2092 7.43283 17.2957 7.51931 17.4686 7.69226L21.5314 11.755C21.7043 11.928 21.7908 12.0144 21.8526 12.1153C21.9075 12.2048 21.9479 12.3024 21.9724 12.4044C22 12.5195 22 12.6418 22 12.8864V15.7236C22 16.1896 22 16.4225 21.9239 16.6063C21.8224 16.8513 21.6277 17.046 21.3827 17.1475C21.1989 17.2236 20.9659 17.2236 20.5 17.2236M15.5 17.2236H14M14 17.2236V7.42363C14 6.30353 14 5.74348 13.782 5.31565C13.5903 4.93933 13.2843 4.63337 12.908 4.44162C12.4802 4.22363 11.9201 4.22363 10.8 4.22363H5.2C4.0799 4.22363 3.51984 4.22363 3.09202 4.44162C2.71569 4.63337 2.40973 4.93933 2.21799 5.31565C2 5.74348 2 6.30353 2 7.42363V15.2236C2 16.3282 2.89543 17.2236 4 17.2236M14 17.2236H10M10 17.2236C10 18.8805 8.65685 20.2236 7 20.2236C5.34315 20.2236 4 18.8805 4 17.2236M10 17.2236C10 15.5668 8.65685 14.2236 7 14.2236C5.34315 14.2236 4 15.5668 4 17.2236M20.5 17.7236C20.5 19.1043 19.3807 20.2236 18 20.2236C16.6193 20.2236 15.5 19.1043 15.5 17.7236C15.5 16.3429 16.6193 15.2236 18 15.2236C19.3807 15.2236 20.5 16.3429 20.5 17.7236Z" stroke="#6658BA" stroke-width="1.5" stroke-linecap="round" stroke-linejoin="round"/>
</svg>
