<svg width="24" height="25" viewBox="0 0 24 25" fill="none" xmlns="http://www.w3.org/2000/svg">
<path d="M20.5 7.50147L12 12.2237M12 12.2237L3.49997 7.50147M12 12.2237L12 21.7237M21 16.2823V8.16516C21 7.82252 21 7.6512 20.9495 7.4984C20.9049 7.36322 20.8318 7.23914 20.7354 7.13445C20.6263 7.01611 20.4766 6.93291 20.177 6.76651L12.777 2.6554C12.4934 2.49784 12.3516 2.41906 12.2015 2.38818C12.0685 2.36084 11.9315 2.36084 11.7986 2.38818C11.6484 2.41906 11.5066 2.49784 11.223 2.6554L3.82297 6.76651C3.52345 6.93292 3.37369 7.01612 3.26463 7.13445C3.16816 7.23914 3.09515 7.36323 3.05048 7.4984C3 7.6512 3 7.82252 3 8.16516V16.2823C3 16.6249 3 16.7962 3.05048 16.949C3.09515 17.0842 3.16816 17.2083 3.26463 17.313C3.37369 17.4313 3.52345 17.5145 3.82297 17.6809L11.223 21.792C11.5066 21.9496 11.6484 22.0284 11.7986 22.0593C11.9315 22.0866 12.0685 22.0866 12.2015 22.0593C12.3516 22.0284 12.4934 21.9496 12.777 21.792L20.177 17.6809C20.4766 17.5145 20.6263 17.4313 20.7354 17.313C20.8318 17.2083 20.9049 17.0842 20.9495 16.949C21 16.7962 21 16.6249 21 16.2823Z" stroke="#6658BA" stroke-width="1.5" stroke-linecap="round" stroke-linejoin="round"/>
<path d="M16.5 9.72363L7.5 4.72363" stroke="#6658BA" stroke-width="1.5" stroke-linecap="round" stroke-linejoin="round"/>
</svg>
