<svg width="24" height="24" viewBox="0 0 24 24" fill="none" xmlns="http://www.w3.org/2000/svg">
<path d="M9.2 9.2V7.24C9.2 6.45593 9.2 6.06389 9.35259 5.76441C9.48681 5.50099 9.70099 5.28681 9.96441 5.15259C10.2639 5 10.6559 5 11.44 5H16.76C17.5441 5 17.9361 5 18.2356 5.15259C18.499 5.28681 18.7132 5.50099 18.8474 5.76441C19 6.06389 19 6.45593 19 7.24V12.56C19 13.3441 19 13.7361 18.8474 14.0356C18.7132 14.299 18.499 14.5132 18.2356 14.6474C17.9361 14.8 17.5441 14.8 16.76 14.8H14.8M7.24 19H12.56C13.3441 19 13.7361 19 14.0356 18.8474C14.299 18.7132 14.5132 18.499 14.6474 18.2356C14.8 17.9361 14.8 17.5441 14.8 16.76V11.44C14.8 10.6559 14.8 10.2639 14.6474 9.96441C14.5132 9.70099 14.299 9.48681 14.0356 9.35259C13.7361 9.2 13.3441 9.2 12.56 9.2H7.24C6.45593 9.2 6.06389 9.2 5.76441 9.35259C5.50099 9.48681 5.28681 9.70099 5.15259 9.96441C5 10.2639 5 10.6559 5 11.44V16.76C5 17.5441 5 17.9361 5.15259 18.2356C5.28681 18.499 5.50099 18.7132 5.76441 18.8474C6.06389 19 6.45593 19 7.24 19Z" stroke="black" stroke-width="1.5" stroke-linecap="round" stroke-linejoin="round"/>
</svg>
