<svg width="24" height="24" viewBox="0 0 24 24" fill="none" xmlns="http://www.w3.org/2000/svg">
<path d="M16.5111 10.4444C17.3823 10.4444 17.8179 10.4444 18.1507 10.2749C18.4433 10.1258 18.6813 9.88779 18.8305 9.5951C19 9.26235 19 8.82675 19 7.95556V7.48889C19 6.6177 19 6.1821 18.8305 5.84935C18.6813 5.55665 18.4433 5.31868 18.1507 5.16955C17.8179 5 17.3823 5 16.5111 5L16.0444 5C15.1733 5 14.7377 5 14.4049 5.16955C14.1122 5.31868 13.8742 5.55665 13.7251 5.84935C13.5556 6.1821 13.5556 6.6177 13.5556 7.48889V7.95556C13.5556 8.82675 13.5556 9.26234 13.7251 9.5951C13.8742 9.88779 14.1122 10.1258 14.4049 10.2749C14.7377 10.4444 15.1733 10.4444 16.0444 10.4444L16.5111 10.4444Z" stroke="black" stroke-width="1.5" stroke-linecap="round" stroke-linejoin="round"/>
<path d="M16.5111 19C17.3823 19 17.8179 19 18.1507 18.8305C18.4433 18.6813 18.6813 18.4433 18.8305 18.1507C19 17.8179 19 17.3823 19 16.5111V16.0444C19 15.1733 19 14.7377 18.8305 14.4049C18.6813 14.1122 18.4433 13.8742 18.1507 13.7251C17.8179 13.5556 17.3823 13.5556 16.5111 13.5556L16.0444 13.5556C15.1733 13.5556 14.7377 13.5556 14.4049 13.7251C14.1122 13.8742 13.8742 14.1122 13.7251 14.4049C13.5556 14.7377 13.5556 15.1733 13.5556 16.0444V16.5111C13.5556 17.3823 13.5556 17.8179 13.7251 18.1507C13.8742 18.4433 14.1122 18.6813 14.4049 18.8305C14.7377 19 15.1733 19 16.0444 19H16.5111Z" stroke="black" stroke-width="1.5" stroke-linecap="round" stroke-linejoin="round"/>
<path d="M16.5111 10.4444C17.3823 10.4444 17.8179 10.4444 18.1507 10.2749C18.4433 10.1258 18.6813 9.88779 18.8305 9.5951C19 9.26235 19 8.82675 19 7.95556V7.48889C19 6.6177 19 6.1821 18.8305 5.84935C18.6813 5.55665 18.4433 5.31868 18.1507 5.16955C17.8179 5 17.3823 5 16.5111 5L16.0444 5C15.1733 5 14.7377 5 14.4049 5.16955C14.1122 5.31868 13.8742 5.55665 13.7251 5.84935C13.5556 6.1821 13.5556 6.6177 13.5556 7.48889V7.95556C13.5556 8.82675 13.5556 9.26234 13.7251 9.5951C13.8742 9.88779 14.1122 10.1258 14.4049 10.2749C14.7377 10.4444 15.1733 10.4444 16.0444 10.4444L16.5111 10.4444Z" stroke="black" stroke-width="1.5" stroke-linecap="round" stroke-linejoin="round"/>
<path d="M16.5111 19C17.3823 19 17.8179 19 18.1507 18.8305C18.4433 18.6813 18.6813 18.4433 18.8305 18.1507C19 17.8179 19 17.3823 19 16.5111V16.0444C19 15.1733 19 14.7377 18.8305 14.4049C18.6813 14.1122 18.4433 13.8742 18.1507 13.7251C17.8179 13.5556 17.3823 13.5556 16.5111 13.5556L16.0444 13.5556C15.1733 13.5556 14.7377 13.5556 14.4049 13.7251C14.1122 13.8742 13.8742 14.1122 13.7251 14.4049C13.5556 14.7377 13.5556 15.1733 13.5556 16.0444V16.5111C13.5556 17.3823 13.5556 17.8179 13.7251 18.1507C13.8742 18.4433 14.1122 18.6813 14.4049 18.8305C14.7377 19 15.1733 19 16.0444 19H16.5111Z" stroke="black" stroke-width="1.5" stroke-linecap="round" stroke-linejoin="round"/>
<path d="M7.95556 10.4444C8.82675 10.4444 9.26234 10.4444 9.5951 10.2749C9.88779 10.1258 10.1258 9.88779 10.2749 9.5951C10.4444 9.26235 10.4444 8.82675 10.4444 7.95556V7.48889C10.4444 6.6177 10.4444 6.1821 10.2749 5.84935C10.1258 5.55665 9.88779 5.31868 9.5951 5.16955C9.26235 5 8.82675 5 7.95556 5L7.48889 5C6.6177 5 6.1821 5 5.84935 5.16955C5.55665 5.31868 5.31868 5.55665 5.16955 5.84935C5 6.1821 5 6.6177 5 7.48889V7.95556C5 8.82675 5 9.26234 5.16955 9.5951C5.31868 9.88779 5.55665 10.1258 5.84935 10.2749C6.1821 10.4444 6.6177 10.4444 7.48889 10.4444L7.95556 10.4444Z" stroke="black" stroke-width="1.5" stroke-linecap="round" stroke-linejoin="round"/>
<path d="M7.95556 19C8.82675 19 9.26234 19 9.5951 18.8305C9.88779 18.6813 10.1258 18.4433 10.2749 18.1507C10.4444 17.8179 10.4444 17.3823 10.4444 16.5111V16.0444C10.4444 15.1733 10.4444 14.7377 10.2749 14.4049C10.1258 14.1122 9.88779 13.8742 9.5951 13.7251C9.26235 13.5556 8.82675 13.5556 7.95556 13.5556L7.48889 13.5556C6.6177 13.5556 6.1821 13.5556 5.84935 13.7251C5.55665 13.8742 5.31868 14.1122 5.16955 14.4049C5 14.7377 5 15.1733 5 16.0444V16.5111C5 17.3823 5 17.8179 5.16955 18.1507C5.31868 18.4433 5.55665 18.6813 5.84935 18.8305C6.1821 19 6.6177 19 7.48889 19H7.95556Z" stroke="black" stroke-width="1.5" stroke-linecap="round" stroke-linejoin="round"/>
</svg>
