<svg width="49" height="49" viewBox="0 0 49 49" fill="none" xmlns="http://www.w3.org/2000/svg">
<path d="M19.2656 0.467097C22.7817 0.457224 26.2978 0.457225 29.814 0.465452C29.7364 3.19043 30.3582 5.86769 31.3477 8.39192C27.9009 9.59151 24.177 10.0424 20.5817 9.27063C19.668 6.42717 19.3893 3.43397 19.2656 0.467097Z" fill="#41B3E5"/>
<path d="M38.508 16.4517L38.5904 16.5043C41.5475 18.3111 45.0273 19.1964 48.4923 19.0878C48.4989 22.596 48.4989 26.1059 48.4939 29.6142C42.9295 29.708 37.3436 28.1497 32.6533 25.1597C30.4763 23.7199 28.3076 22.132 26.6914 20.0603C30.8177 19.6654 34.9242 18.5744 38.508 16.4517Z" fill="#41B3E5"/>
<path d="M0.509895 19.0679C5.00728 19.0991 9.48323 20.1868 13.4941 22.2158C16.5897 23.8004 19.5187 25.8787 21.7055 28.6037C17.6072 29.0496 13.5815 30.1982 9.96644 32.2008C8.6042 31.5393 7.27164 30.7774 5.79395 30.3907C4.07878 29.8427 2.27455 29.7144 0.5 29.4824C0.504948 26.0103 0.504947 22.5399 0.509895 19.0679Z" fill="#FED237"/>
<path d="M17.1582 40.4123C19.1125 39.7327 21.1361 39.1304 23.2256 39.1123C23.6891 39.1123 24.1541 39.1189 24.6209 39.1353C25.7192 39.1913 26.8077 39.3608 27.8962 39.5023C28.8692 42.3803 29.0622 45.4278 29.2254 48.4375C25.7209 48.5247 22.2163 48.319 18.7118 48.4292C18.7513 45.6681 18.09 42.9875 17.1582 40.4123Z" fill="#FED237"/>
<path d="M37.8487 3.81934L37.9329 3.9082C38.7393 4.76551 39.5804 5.59156 40.4364 6.40116C40.7068 6.67267 40.9773 6.94747 41.195 7.26341C41.2643 7.41151 41.3748 7.51846 41.5248 7.58429C42.8294 8.74109 43.9772 10.0608 45.2355 11.2653C44.7309 11.6816 44.2708 12.1457 43.8222 12.6212C43.6276 12.8121 43.4066 12.975 43.1757 13.1198C42.9827 13.2202 42.8211 13.3666 42.6892 13.5361C42.5506 13.6892 42.4072 13.8422 42.2307 13.9492C42.074 14.0068 41.9602 14.1088 41.886 14.2569C41.8118 14.3062 41.6634 14.4083 41.5891 14.4593C41.4292 14.5037 41.3071 14.5991 41.2247 14.7423C41.1521 14.795 41.0037 14.8986 40.9311 14.9496C40.7695 14.9908 40.6458 15.0813 40.5567 15.2211C39.9597 15.7247 39.2539 16.0801 38.6008 16.5046L38.5183 16.452C35.4327 14.5251 32.8582 11.7409 31.4531 8.36426C32.7181 7.86567 33.8164 7.06265 34.9973 6.41103C35.1539 6.36331 35.2743 6.26622 35.3568 6.12306C35.4376 6.06712 35.6009 5.95358 35.6833 5.89763C35.8697 5.7989 36.0429 5.67219 36.1946 5.52409L36.2804 5.4484C36.8658 4.96956 37.3837 4.41666 37.8487 3.81934Z" fill="#FF4181"/>
<path d="M7.95122 7.1133C8.97373 6.01738 10.0721 4.99552 11.1375 3.94238C11.5234 4.36199 11.9407 4.75033 12.3925 5.09589C12.5492 5.2226 12.7042 5.35095 12.851 5.49082C12.9961 5.64385 13.1594 5.78043 13.3425 5.88739C13.4167 5.9384 13.5684 6.04042 13.6426 6.09143C13.9411 6.30535 14.2479 6.50939 14.5596 6.70521C16.3424 7.91631 18.3528 8.7473 20.4473 9.24754C21.3626 11.5809 22.2696 13.9439 23.6203 16.0682C24.4895 17.4653 25.5153 18.7554 26.4834 20.0849L26.2937 20.0866C25.1096 20.08 23.9287 20.1014 22.7463 20.0866C22.4115 20.0718 22.075 20.0389 21.7534 19.9484C21.5704 19.8809 21.3774 19.8496 21.1845 19.871C19.1559 19.8743 17.2049 19.2293 15.2918 18.6303C13.1759 17.9161 11.1342 16.9683 9.2442 15.777C8.74779 15.4594 8.20685 15.1665 7.83083 14.6991C7.74837 14.5511 7.62468 14.4605 7.45811 14.4276C7.37565 14.3865 7.20908 14.3026 7.12497 14.2598C7.06065 14.1068 6.95345 13.9982 6.80337 13.929C6.72421 13.8632 6.56919 13.7299 6.49003 13.6625C6.30202 13.465 6.10081 13.2807 5.86992 13.1343C5.57142 12.9302 5.28446 12.7097 5.02388 12.4596C4.61158 12.0449 4.18114 11.6484 3.72266 11.2847C3.85789 11.135 3.99478 10.9852 4.13331 10.8388C4.52582 10.4372 4.91503 10.0308 5.32239 9.64246C5.36527 9.60626 5.45267 9.53221 5.4972 9.49437C5.66872 9.36931 5.82704 9.22779 5.97053 9.06982C6.02165 9.02046 6.12225 8.92337 6.17338 8.87401C6.33665 8.73907 6.48838 8.58769 6.62031 8.42149C6.88913 8.10884 7.18269 7.81758 7.49934 7.55265C7.66591 7.4243 7.81763 7.27621 7.95122 7.1133Z" fill="#FF4181"/>
<path d="M13.3359 2.65739C13.8027 2.6475 14.2611 2.65904 14.7312 2.68048C14.2644 2.66399 13.7994 2.65739 13.3359 2.65739Z" fill="#FF4181"/>
<path d="M20.5871 9.27045C24.1824 10.0422 27.9063 9.59133 31.3532 8.39174L31.4488 8.36377C32.8539 11.7404 35.4284 14.5246 38.514 16.4515C34.9303 18.5742 30.8238 19.6652 26.6975 20.0601C26.643 20.0667 26.5358 20.0799 26.4814 20.0848C25.5133 18.7552 24.4875 17.4651 23.6184 16.0681C22.2677 13.9437 21.3606 11.5808 20.4453 9.24741L20.5871 9.27045Z" fill="#4D48A9"/>
<path d="M9.97222 32.2009C13.5873 30.1983 17.613 29.0497 21.7113 28.6038C21.7591 28.5972 21.8548 28.584 21.9026 28.5791C23.6342 30.8762 25.4055 33.1915 26.5715 35.8408C27.1289 37.0173 27.5115 38.2663 28.0079 39.4691L27.8991 39.4543C26.8106 39.3128 25.7221 39.1433 24.6238 39.0874C24.1537 39.066 23.6953 39.0545 23.2285 39.0644C21.139 39.0825 19.1154 39.6847 17.1611 40.3643L17.0852 40.3906C15.5911 37.0272 13.1057 34.0932 9.90625 32.2354L9.97222 32.2009Z" fill="#6FAA50"/>
<path d="M21.8945 28.5793C26.0011 28.4049 30.1538 28.9117 34.0014 30.391C38.2415 31.9098 41.9901 34.5854 45.1005 37.8074C42.6482 40.2954 40.171 42.7587 37.6857 45.2155C35.1146 42.3967 31.7106 40.3727 27.9999 39.4693C27.5035 38.2665 27.1209 37.0175 26.5634 35.841C25.3974 33.1917 23.6262 30.8764 21.8945 28.5793Z" fill="white"/>
<path d="M3.41406 37.2975C5.29581 35.2801 7.52224 33.6263 9.89874 32.2358C13.0982 34.0936 15.5836 37.0276 17.0777 40.391C14.7309 41.4294 12.5606 42.8708 10.7778 44.7204C8.31716 42.2521 5.88787 39.7526 3.41406 37.2975Z" fill="white"/>
</svg>
