<svg width="32" height="33" viewBox="0 0 32 33" fill="none" xmlns="http://www.w3.org/2000/svg">
<path d="M16.0006 17.8337C18.2098 17.8337 20.0006 16.0428 20.0006 13.8337C20.0006 11.6245 18.2098 9.83366 16.0006 9.83366C13.7915 9.83366 12.0006 11.6245 12.0006 13.8337C12.0006 16.0428 13.7915 17.8337 16.0006 17.8337Z" fill="#014439"/>
<path d="M16.0006 29.8337C21.334 24.5003 26.6673 19.7247 26.6673 13.8337C26.6673 7.94262 21.8917 3.16699 16.0006 3.16699C10.1096 3.16699 5.33398 7.94262 5.33398 13.8337C5.33398 19.7247 10.6673 24.5003 16.0006 29.8337Z" fill="#014439"/>
<path d="M16 17.833C18.2091 17.833 20 16.0421 20 13.833C20 11.6239 18.2091 9.83301 16 9.83301C13.7909 9.83301 12 11.6239 12 13.833C12 16.0421 13.7909 17.833 16 17.833Z" fill="#CBCBFB"/>
</svg>
