<svg width="87" height="35" viewBox="0 0 87 35" fill="none" xmlns="http://www.w3.org/2000/svg">
<path d="M69.998 12.6557V12.6557C70.6928 15.209 72.6874 17.2036 75.2407 17.8983V17.8983V17.8983C72.6874 18.593 70.6928 20.5876 69.998 23.1409V23.1409V23.1409C69.3033 20.5876 67.3087 18.593 64.7554 17.8983V17.8983V17.8983C67.3087 17.2036 69.3033 15.209 69.998 12.6557V12.6557Z" fill="white"/>
<path d="M59.9775 22.0061L59.3916 21.4211L55.8262 17.8557L59.3916 14.2903L59.9775 13.7053V7.83517H65.8477L66.4336 7.24924L69.998 3.68381L74.1494 7.83517H80.0195V13.7053L80.6055 14.2903L84.1709 17.8557L80.6055 21.4211L80.0195 22.0061V27.8762H74.1494L73.5635 28.4621L69.998 32.0266L65.8477 27.8762H59.9775V22.0061Z" stroke="#00AEEF" stroke-width="4"/>
<rect x="21.3664" y="9.40053" width="4.22497" height="4.22507" transform="rotate(90 21.3664 9.40053)" fill="white" stroke="white" stroke-width="0.1"/>
<rect x="21.3664" y="13.5237" width="4.22497" height="4.22507" transform="rotate(90 21.3664 13.5237)" fill="white" stroke="white" stroke-width="0.1"/>
<rect x="21.3664" y="17.6486" width="4.22497" height="4.22507" transform="rotate(90 21.3664 17.6486)" fill="white" stroke="white" stroke-width="0.1"/>
<rect x="17.2414" y="21.7752" width="4.22497" height="4.22507" transform="rotate(90 17.2414 21.7752)" fill="white" stroke="white" stroke-width="0.1"/>
<rect x="13.1105" y="17.6486" width="4.22497" height="4.22507" transform="rotate(90 13.1105 17.6486)" fill="white" stroke="white" stroke-width="0.1"/>
<rect x="13.1105" y="21.7752" width="4.22497" height="4.22507" transform="rotate(90 13.1105 21.7752)" fill="white" stroke="white" stroke-width="0.1"/>
<rect x="13.1105" y="13.5237" width="4.22497" height="4.22507" transform="rotate(90 13.1105 13.5237)" fill="white" stroke="white" stroke-width="0.1"/>
<rect x="8.99531" y="9.40056" width="4.22497" height="4.22507" transform="rotate(90 8.99531 9.40056)" fill="white" stroke="white" stroke-width="0.1"/>
<rect x="4.86445" y="9.40053" width="4.22497" height="4.22507" transform="rotate(90 4.86445 9.40053)" fill="white" stroke="white" stroke-width="0.1"/>
<rect x="4.86445" y="13.5237" width="4.22497" height="4.22507" transform="rotate(90 4.86445 13.5237)" fill="white" stroke="white" stroke-width="0.1"/>
<rect x="4.86445" y="17.6486" width="4.22497" height="4.22507" transform="rotate(90 4.86445 17.6486)" fill="white" stroke="white" stroke-width="0.1"/>
<rect x="4.86445" y="21.7752" width="4.22497" height="4.22507" transform="rotate(90 4.86445 21.7752)" fill="white" stroke="white" stroke-width="0.1"/>
<rect x="37.8664" y="21.7752" width="4.22497" height="4.22507" transform="rotate(90 37.8664 21.7752)" fill="white" stroke="white" stroke-width="0.1"/>
<rect x="41.9914" y="21.7752" width="4.22497" height="4.22507" transform="rotate(90 41.9914 21.7752)" fill="white" stroke="white" stroke-width="0.1"/>
<rect x="21.3664" y="21.7752" width="4.22497" height="4.22507" transform="rotate(90 21.3664 21.7752)" fill="white" stroke="white" stroke-width="0.1"/>
<rect x="17.2414" y="9.40053" width="4.22497" height="4.22507" transform="rotate(90 17.2414 9.40053)" fill="white" stroke="white" stroke-width="0.1"/>
<rect x="33.7336" y="9.40053" width="4.22497" height="4.22507" transform="rotate(90 33.7336 9.40053)" fill="white" stroke="white" stroke-width="0.1"/>
<rect x="33.7336" y="13.5237" width="4.22497" height="4.22507" transform="rotate(90 33.7336 13.5237)" fill="white" stroke="white" stroke-width="0.1"/>
<rect x="41.9914" y="15.5237" width="4.22497" height="4.22507" transform="rotate(90 41.9914 15.5237)" fill="white" stroke="white" stroke-width="0.1"/>
<rect x="33.7336" y="17.6486" width="4.22497" height="4.22507" transform="rotate(90 33.7336 17.6486)" fill="white" stroke="white" stroke-width="0.1"/>
<rect x="41.9914" y="9.40056" width="4.22497" height="4.22507" transform="rotate(90 41.9914 9.40056)" fill="white" stroke="white" stroke-width="0.1"/>
<rect x="41.9914" y="17.6487" width="4.22497" height="4.22507" transform="rotate(90 41.9914 17.6487)" fill="white" stroke="white" stroke-width="0.1"/>
<rect x="29.6184" y="21.7752" width="4.22497" height="4.22507" transform="rotate(90 29.6184 21.7752)" fill="white" stroke="white" stroke-width="0.1"/>
<rect x="25.4875" y="21.7752" width="4.22497" height="4.22507" transform="rotate(90 25.4875 21.7752)" fill="white" stroke="white" stroke-width="0.1"/>
<rect x="33.7336" y="21.7752" width="4.22497" height="4.22507" transform="rotate(90 33.7336 21.7752)" fill="white" stroke="white" stroke-width="0.1"/>
<rect x="29.6184" y="9.40053" width="4.22497" height="4.22507" transform="rotate(90 29.6184 9.40053)" fill="white" stroke="white" stroke-width="0.1"/>
<rect x="13.1105" y="9.40053" width="4.22497" height="4.22507" transform="rotate(90 13.1105 9.40053)" fill="white" stroke="white" stroke-width="0.1"/>
<path d="M25.8649 31.0728C25.6501 31.2875 25.3022 31.2875 25.0874 31.0728L22.7589 28.7443C22.4125 28.3978 22.6577 27.8059 23.1476 27.8059H27.8047C28.2946 27.8059 28.5398 28.3978 28.1934 28.7443L25.8649 31.0728Z" fill="white" stroke="white" stroke-width="0.1"/>
</svg>
