<svg width="87" height="35" viewBox="0 0 87 35" fill="none" xmlns="http://www.w3.org/2000/svg">
<path d="M69.998 12.345V12.345C70.6928 14.8983 72.6874 16.8929 75.2407 17.5876V17.5876V17.5876C72.6874 18.2823 70.6928 20.277 69.998 22.8302V22.8302V22.8302C69.3033 20.277 67.3087 18.2823 64.7554 17.5876V17.5876V17.5876C67.3087 16.8929 69.3033 14.8983 69.998 12.345V12.345Z" fill="black"/>
<path d="M59.9775 21.6954L59.3916 21.1105L55.8262 17.545L59.3916 13.9796L59.9775 13.3947V7.52454H65.8477L66.4336 6.9386L69.998 3.37317L74.1494 7.52454H80.0195V13.3947L80.6055 13.9796L84.1709 17.545L80.6055 21.1105L80.0195 21.6954V27.5656H74.1494L73.5635 28.1515L69.998 31.7159L65.8477 27.5656H59.9775V21.6954Z" stroke="#00AEEF" stroke-width="4"/>
<rect x="21.3664" y="9.08989" width="4.22497" height="4.22507" transform="rotate(90 21.3664 9.08989)" fill="black" stroke="black" stroke-width="0.1"/>
<rect x="21.3664" y="13.2131" width="4.22497" height="4.22507" transform="rotate(90 21.3664 13.2131)" fill="black" stroke="black" stroke-width="0.1"/>
<rect x="21.3664" y="17.338" width="4.22497" height="4.22507" transform="rotate(90 21.3664 17.338)" fill="black" stroke="black" stroke-width="0.1"/>
<rect x="17.2414" y="21.4646" width="4.22497" height="4.22507" transform="rotate(90 17.2414 21.4646)" fill="black" stroke="black" stroke-width="0.1"/>
<rect x="13.1105" y="17.338" width="4.22497" height="4.22507" transform="rotate(90 13.1105 17.338)" fill="black" stroke="black" stroke-width="0.1"/>
<rect x="13.1105" y="21.4646" width="4.22497" height="4.22507" transform="rotate(90 13.1105 21.4646)" fill="black" stroke="black" stroke-width="0.1"/>
<rect x="13.1105" y="13.2131" width="4.22497" height="4.22507" transform="rotate(90 13.1105 13.2131)" fill="black" stroke="black" stroke-width="0.1"/>
<rect x="8.99531" y="9.08992" width="4.22497" height="4.22507" transform="rotate(90 8.99531 9.08992)" fill="black" stroke="black" stroke-width="0.1"/>
<rect x="4.86445" y="9.08989" width="4.22497" height="4.22507" transform="rotate(90 4.86445 9.08989)" fill="black" stroke="black" stroke-width="0.1"/>
<rect x="4.86445" y="13.2131" width="4.22497" height="4.22507" transform="rotate(90 4.86445 13.2131)" fill="black" stroke="black" stroke-width="0.1"/>
<rect x="4.86445" y="17.338" width="4.22497" height="4.22507" transform="rotate(90 4.86445 17.338)" fill="black" stroke="black" stroke-width="0.1"/>
<rect x="4.86445" y="21.4646" width="4.22497" height="4.22507" transform="rotate(90 4.86445 21.4646)" fill="black" stroke="black" stroke-width="0.1"/>
<rect x="37.8664" y="21.4646" width="4.22497" height="4.22507" transform="rotate(90 37.8664 21.4646)" fill="black" stroke="black" stroke-width="0.1"/>
<rect x="41.9914" y="21.4646" width="4.22497" height="4.22507" transform="rotate(90 41.9914 21.4646)" fill="black" stroke="black" stroke-width="0.1"/>
<rect x="21.3664" y="21.4646" width="4.22497" height="4.22507" transform="rotate(90 21.3664 21.4646)" fill="black" stroke="black" stroke-width="0.1"/>
<rect x="17.2414" y="9.08989" width="4.22497" height="4.22507" transform="rotate(90 17.2414 9.08989)" fill="black" stroke="black" stroke-width="0.1"/>
<rect x="33.7336" y="9.08989" width="4.22497" height="4.22507" transform="rotate(90 33.7336 9.08989)" fill="black" stroke="black" stroke-width="0.1"/>
<rect x="33.7336" y="13.2131" width="4.22497" height="4.22507" transform="rotate(90 33.7336 13.2131)" fill="black" stroke="black" stroke-width="0.1"/>
<rect x="41.9914" y="15.2131" width="4.22497" height="4.22507" transform="rotate(90 41.9914 15.2131)" fill="black" stroke="black" stroke-width="0.1"/>
<rect x="33.7336" y="17.338" width="4.22497" height="4.22507" transform="rotate(90 33.7336 17.338)" fill="black" stroke="black" stroke-width="0.1"/>
<rect x="41.9914" y="9.08992" width="4.22497" height="4.22507" transform="rotate(90 41.9914 9.08992)" fill="black" stroke="black" stroke-width="0.1"/>
<rect x="41.9914" y="17.338" width="4.22497" height="4.22507" transform="rotate(90 41.9914 17.338)" fill="black" stroke="black" stroke-width="0.1"/>
<rect x="29.6184" y="21.4646" width="4.22497" height="4.22507" transform="rotate(90 29.6184 21.4646)" fill="black" stroke="black" stroke-width="0.1"/>
<rect x="25.4875" y="21.4646" width="4.22497" height="4.22507" transform="rotate(90 25.4875 21.4646)" fill="black" stroke="black" stroke-width="0.1"/>
<rect x="33.7336" y="21.4646" width="4.22497" height="4.22507" transform="rotate(90 33.7336 21.4646)" fill="black" stroke="black" stroke-width="0.1"/>
<rect x="29.6184" y="9.08989" width="4.22497" height="4.22507" transform="rotate(90 29.6184 9.08989)" fill="black" stroke="black" stroke-width="0.1"/>
<rect x="13.1105" y="9.08989" width="4.22497" height="4.22507" transform="rotate(90 13.1105 9.08989)" fill="black" stroke="black" stroke-width="0.1"/>
<path d="M25.8649 30.7621C25.6501 30.9769 25.3022 30.9769 25.0874 30.7621L22.7589 28.4337C22.4125 28.0872 22.6577 27.4953 23.1476 27.4952H27.8047C28.2946 27.4953 28.5398 28.0872 28.1934 28.4337L25.8649 30.7621Z" fill="black" stroke="black" stroke-width="0.1"/>
</svg>
