<svg width="121" height="61" viewBox="0 0 121 61" fill="none" xmlns="http://www.w3.org/2000/svg">
<path d="M7.64202 0.842536C11.1612 0.33277 14.8458 0.95209 17.9514 2.7005C17.493 3.7245 17.066 4.8044 16.2611 5.61377C15.7357 6.1526 15.0292 6.52151 14.2757 6.58411C13.0661 6.68472 11.8968 6.21968 10.6917 6.24427C9.87337 6.28675 9.04164 6.61094 8.48493 7.22579C8.01988 7.73779 7.89914 8.5561 8.2837 9.15083C8.76217 9.90877 9.62966 10.2799 10.4368 10.5818C12.0399 11.1407 13.7257 11.4783 15.246 12.2564C16.4869 12.8735 17.616 13.7924 18.289 15.0243C18.9776 16.2428 19.1118 17.6827 19.0402 19.0555C18.9441 20.8129 18.5282 22.6082 17.4886 24.057C16.5383 25.3873 15.0918 26.266 13.5938 26.8563C10.8817 27.9049 7.84101 27.8825 5.05965 27.1223C3.25311 26.6327 1.58296 25.754 0 24.7747C0.90327 22.9615 1.88032 21.184 2.87303 19.4155C3.74723 19.9811 4.58566 20.6049 5.50235 21.1035C6.72087 21.7653 8.14061 22.0828 9.52234 21.8995C10.249 21.7966 10.9644 21.4881 11.4742 20.9515C12.1584 20.2114 12.2769 18.9258 11.5569 18.1679C10.6447 17.211 9.30324 16.8912 8.08024 16.5201C6.3922 16.0103 4.61249 15.5699 3.18828 14.4743C2.31631 13.8103 1.66121 12.8668 1.37726 11.807C0.83396 9.83052 0.932338 7.67743 1.66569 5.76357C2.64497 3.2438 5.00152 1.3523 7.64202 0.842536Z" fill="#7C9A97"/>
<path d="M113.09 1.27588C114.601 1.30494 116.115 1.29376 117.628 1.27811C116.692 5.39202 115.525 9.44779 114.53 13.546C114.337 14.2995 114.17 15.0686 113.823 15.7707C113.304 16.8215 112.247 17.5973 111.078 17.7292C109.725 17.8858 108.359 17.7851 107.004 17.7337C107.442 15.4711 108.124 13.2666 108.665 11.0263C109.347 8.29858 110.107 5.591 110.753 2.85436C110.872 2.38037 110.988 1.90191 111.198 1.45921C111.802 1.24234 112.455 1.28259 113.09 1.27588Z" fill="#7C9A97"/>
<path d="M29.2023 9.38304C30.5528 8.86209 32.0485 8.79055 33.4728 8.994C34.9663 9.20864 36.4441 9.92858 37.3385 11.1762C38.2373 12.4103 38.5816 13.953 38.6531 15.4555C38.7359 17.1726 38.6621 18.892 38.6911 20.6113C38.6844 21.7136 38.7627 22.8248 38.595 23.9181C38.3938 25.2439 37.3899 26.4267 36.0931 26.7933C34.9059 27.1444 33.6539 27.0057 32.4443 26.9074C32.4555 24.0634 32.4443 21.2195 32.4622 18.3755C32.4487 17.3493 32.4622 16.2828 32.0798 15.3124C31.8406 14.7065 31.3241 14.2124 30.6914 14.038C29.6271 13.7295 28.3572 13.8524 27.5188 14.6283C26.8055 15.2744 26.5685 16.2626 26.4791 17.1838C26.3159 19.366 26.5529 21.5571 26.383 23.7392C26.2712 25.2283 25.0951 26.5362 23.6441 26.8559C22.5284 27.1019 21.3747 26.9521 20.2457 26.9141C20.1003 21.1211 20.2345 15.3258 20.1719 9.5306C22.2601 9.48141 24.3484 9.50154 26.4366 9.51719C26.4389 10.1879 26.45 10.8564 26.4657 11.5272C27.293 10.7178 28.0956 9.81008 29.2023 9.38304Z" fill="#7C9A97"/>
<path d="M41.9304 12.0507C43.8241 9.68297 47.0281 8.46892 50.0151 9.01446C51.4483 9.21568 52.6758 10.025 53.8742 10.7808C53.9032 10.3537 53.93 9.92667 53.9569 9.50187C56.0541 9.49069 58.1513 9.4974 60.2485 9.49963C60.2239 14.0249 60.244 18.5502 60.2418 23.0755C60.3044 24.6607 59.3117 26.2772 57.7712 26.7646C56.5571 27.1134 55.276 26.9614 54.0329 26.9233C54.0038 26.3845 53.9815 25.8457 53.9591 25.3091C53.076 26.067 52.1593 26.8473 51.0257 27.1961C47.871 28.2089 44.202 27.0687 42.0869 24.5422C39.1379 21.1013 39.0261 15.552 41.9304 12.0507ZM49.2281 14.4318C48.0923 14.6599 47.0571 15.4268 46.6122 16.5089C46.0913 17.7587 46.1561 19.2746 46.8604 20.4417C48.3114 22.8072 52.3762 22.691 53.6953 20.2517C54.4957 18.709 54.3012 16.6229 53.0335 15.3821C52.0542 14.4095 50.5428 14.1457 49.2281 14.4318Z" fill="#7C9A97"/>
<path d="M70.8378 9.43936C72.4588 8.75967 74.3078 8.75967 75.9914 9.20683C78.377 9.82616 80.3512 11.626 81.4557 13.797C83.2734 17.3698 82.7122 22.0807 79.9085 24.9939C77.6839 27.3326 74.0708 28.1733 71.0279 27.118C70.0352 26.7759 69.1856 26.1409 68.3359 25.5439C68.2487 27.3192 68.3628 29.0967 68.2935 30.8719C68.2644 32.4034 67.1308 33.8343 65.6373 34.1854C64.4903 34.4403 63.3054 34.3486 62.1405 34.3933C62.0935 33.7516 62.0555 33.1077 62.0488 32.466C62.06 24.8374 62.0555 17.2088 62.0511 9.58022C64.1281 9.41029 66.2142 9.52432 68.2957 9.49749C68.3136 10.0676 68.3337 10.64 68.3583 11.2101C69.1207 10.5416 69.8854 9.83286 70.8378 9.43936ZM71.1419 14.4275C70.3258 14.6019 69.5455 15.011 69.0112 15.6594C67.7703 17.1976 67.8128 19.6839 69.2482 21.0857C70.5628 22.3311 72.7137 22.4272 74.2631 21.5865C76.2217 20.4373 76.604 17.5174 75.2379 15.7712C74.3056 14.546 72.6086 14.0831 71.1419 14.4275Z" fill="#7C9A97"/>
<path d="M92.81 9.27622C96.0967 8.20079 99.949 9.4752 102.017 12.2342C104.146 14.9664 104.588 18.8388 103.325 22.0383C102.431 24.3031 100.591 26.2215 98.2811 27.0442C96.602 27.6434 94.7329 27.7508 93.0135 27.2611C91.8554 26.928 90.847 26.2438 89.87 25.5619C89.8789 26.8945 89.8968 28.227 89.899 29.5595C89.8878 30.5388 89.8655 31.5718 89.3848 32.4549C88.8057 33.5371 87.6319 34.2279 86.4246 34.342C85.4967 34.4292 84.5666 34.3844 83.6365 34.3934C83.6231 26.0918 83.6387 17.7924 83.632 9.49309C85.6934 9.49533 87.7549 9.49532 89.8163 9.49085C89.8498 10.0632 89.8767 10.6378 89.9035 11.2102C90.762 10.4232 91.6742 9.63171 92.81 9.27622ZM92.6066 14.4409C91.4641 14.6668 90.4378 15.4493 90.0086 16.5449C89.3177 18.1904 89.6441 20.4329 91.2137 21.4659C92.8928 22.5324 95.3969 22.3468 96.725 20.7929C97.977 19.2502 97.8406 16.7662 96.4164 15.3755C95.4349 14.4074 93.919 14.1481 92.6066 14.4409Z" fill="#7C9A97"/>
<path d="M107.81 19.8128C109.149 19.4394 110.71 19.6563 111.783 20.5797C113.25 21.8496 113.447 24.2039 112.503 25.8361C111.307 27.7678 108.427 28.0361 106.614 26.8601C105.326 26.0261 104.919 24.3515 105.132 22.9072C105.288 21.4561 106.397 20.1772 107.81 19.8128Z" fill="#7C9A97"/>
<path d="M69.5586 31.8377C71.6066 31.8019 73.6568 31.8175 75.7071 31.8332C75.7384 35.6944 75.7138 39.5557 75.7227 43.417C75.7317 45.2078 75.678 47.001 75.7764 48.7919C77.8043 46.9518 79.7249 44.9977 81.6991 43.1039C82.3005 42.4712 83.2284 42.6009 84.0176 42.583C86.1975 42.6344 88.3797 42.5696 90.5619 42.6322C89.9649 43.2828 89.3344 43.9021 88.6748 44.4879C86.7856 46.1737 84.9678 47.9378 83.0629 49.6079C82.694 49.9478 82.3072 50.2988 82.0926 50.7638C82.3452 51.1529 82.6761 51.486 83.0026 51.8169C84.5095 53.2903 85.9695 54.8107 87.463 56.2975C88.6704 57.5361 89.9336 58.7189 91.0672 60.0268C89.0214 60.1833 86.9689 60.0514 84.9209 60.1096C84.1518 60.1006 83.367 60.1833 82.618 59.9955C82.0389 59.7272 81.641 59.2041 81.2094 58.7569C80.0535 57.4534 78.8059 56.2349 77.6232 54.9605C77.0463 54.3412 76.436 53.7531 75.801 53.1964C75.6288 55.4993 75.7742 57.8089 75.7049 60.114C73.6636 60.085 71.6223 60.1118 69.5832 60.0872C69.5407 50.6722 69.5899 41.2549 69.5586 31.8377Z" fill="#7C9A97"/>
<path d="M4.90183 34.4419C7.11753 34.3436 9.33769 34.3704 11.5534 34.4285C12.7205 37.4715 13.8362 40.5345 14.9988 43.5797C15.5466 44.9972 16.0161 46.4505 16.7002 47.8121C18.1736 44.3086 19.381 40.7 20.7515 37.1585C21.1361 36.2664 21.2814 35.2222 21.9343 34.4777C22.4977 34.3503 23.079 34.3749 23.6536 34.3726C25.2612 34.3995 26.871 34.3346 28.4763 34.471C29.8379 43.0208 31.4141 51.537 32.7623 60.0868C30.5668 60.1069 28.3734 60.1069 26.1779 60.089C25.6055 56.9521 25.1963 53.7885 24.7112 50.636C24.4473 48.9904 24.2774 47.3292 23.8884 45.706C23.24 46.8865 22.7615 48.1497 22.2495 49.3928C20.9863 52.5208 19.656 55.6241 18.4397 58.7699C18.2474 59.217 18.0663 59.6888 17.7265 60.0488C16.897 60.1784 16.0541 60.1024 15.2179 60.1002C13.19 55.3178 11.493 50.4012 9.48749 45.6076C9.29969 46.3275 9.13871 47.0542 9.03139 47.7898C8.45007 51.888 7.8151 55.9796 7.2092 60.0756C5.01586 60.1203 2.82029 60.0912 0.626953 60.1002C0.707443 59.1969 0.814761 58.2981 0.97574 57.406C2.31499 49.7573 3.56258 42.0907 4.90183 34.4419Z" fill="#7C9A97"/>
<path d="M110.91 37.3897C112.96 37.2936 115.017 37.3047 117.07 37.3741C117.079 39.1046 117.043 40.8373 117.106 42.5701C118.279 42.6059 119.453 42.6148 120.629 42.5947C120.623 44.2984 120.62 46.0021 120.636 47.7058C119.471 47.7594 118.306 47.7684 117.141 47.7393C116.974 51.8621 117.119 55.9895 117.072 60.1145C115.02 60.0922 112.967 60.0944 110.915 60.1101C110.901 57.8251 110.912 55.5401 110.908 53.2551C110.901 51.4239 110.966 49.5906 110.839 47.7639C110.186 47.7505 109.533 47.7304 108.882 47.7058C108.867 46.0155 108.844 44.3252 108.907 42.6372C109.555 42.6081 110.204 42.5768 110.854 42.541C110.953 40.8262 110.901 39.1068 110.91 37.3897Z" fill="#7C9A97"/>
<path d="M94.6069 42.5965C97.3592 41.6619 100.478 41.6843 103.159 42.8536C105.214 43.7368 106.772 45.5791 107.481 47.683C108.024 49.1788 108.127 50.7818 108.127 52.3603C103.792 52.4967 99.4541 52.3693 95.1166 52.4207C95.1994 53.3866 95.2597 54.4463 95.9238 55.2177C96.7846 56.2954 98.3094 56.4586 99.5883 56.2887C100.626 56.1612 101.274 55.2356 102.184 54.8309C102.674 54.699 103.19 54.7236 103.695 54.7169C105.07 54.7281 106.448 54.7169 107.821 54.7996C107.248 56.9952 105.719 58.9627 103.606 59.857C101.748 60.72 99.6509 60.7111 97.6476 60.6418C95.177 60.5501 92.7154 59.4814 91.0519 57.6368C88.5344 54.7392 88.2504 50.3548 89.7797 46.9273C90.7054 44.9039 92.4963 43.303 94.6069 42.5965ZM96.2256 46.9005C95.7069 47.3834 95.528 48.0899 95.3112 48.7383C97.6677 48.8769 100.04 48.8926 102.396 48.7316C102.113 48.1458 101.855 47.531 101.406 47.0503C100.094 45.6439 97.6096 45.55 96.2256 46.9005Z" fill="#7C9A97"/>
<path d="M35.2683 44.7319C37.4482 42.3552 41.0299 41.4497 44.0885 42.4446C45.1282 42.7956 46.0181 43.453 46.9169 44.0611C46.9593 43.5782 46.9973 43.0975 47.0376 42.619C49.0789 42.5855 51.1202 42.6101 53.1593 42.5944C53.2934 46.4423 53.1816 50.2968 53.2174 54.1491C53.204 56.1368 53.2666 58.1266 53.157 60.112C51.1135 60.0897 49.0699 60.1098 47.0264 60.0919C46.9929 59.5285 46.9616 58.9651 46.9258 58.4039C46.0069 59.1551 45.088 59.9824 43.9209 60.3222C40.7997 61.1808 37.1821 60.2261 35.067 57.7287C31.9279 54.1402 32.0263 48.222 35.2683 44.7319ZM42.0763 47.5289C40.594 47.9291 39.4448 49.2885 39.2413 50.8021C39.0535 52.2375 39.7108 53.7489 40.8824 54.5963C42.3603 55.6538 44.5782 55.5197 45.8929 54.2497C47.1896 53.067 47.601 50.9832 46.6821 49.4539C45.8168 47.8575 43.827 46.9856 42.0763 47.5289Z" fill="#7C9A97"/>
<path d="M64.5713 42.7465C65.81 42.201 67.1917 42.1741 68.5198 42.2792C68.4952 44.211 68.5019 46.1449 68.5131 48.0767C67.4466 47.8173 66.36 47.5043 65.2532 47.6184C64.227 47.7279 63.1739 48.1415 62.5256 48.9733C61.8056 49.8922 61.5865 51.0883 61.5396 52.2264C61.4613 54.8535 61.6133 57.485 61.4658 60.1121C59.4424 60.0897 57.4167 60.0942 55.3933 60.1099C55.2569 56.186 55.3709 52.2599 55.3352 48.3361C55.3463 46.4222 55.2815 44.5061 55.3955 42.5945C57.4503 42.628 59.5072 42.5453 61.5597 42.666C61.5418 43.4687 61.553 44.2736 61.5955 45.0785C62.5099 44.2154 63.3752 43.225 64.5713 42.7465Z" fill="#7C9A97"/>
</svg>
