<svg width="216" height="61" viewBox="0 0 216 61" fill="none" xmlns="http://www.w3.org/2000/svg">
<g clip-path="url(#clip0_3421_30198)">
<path d="M127.551 18.3972C130.67 15.3277 135.081 13.6178 139.456 13.8135C144.148 13.9165 148.677 16.2856 151.582 19.9474C152.205 20.756 152.738 21.6289 153.333 22.4607C155.313 21.6907 157.453 21.992 159.521 21.956C160.878 21.9354 162.235 21.9019 163.59 22.0255C165.681 25.404 167.442 28.9809 169.543 32.3517C170.849 30.0135 171.987 27.5852 173.218 25.2083C173.764 24.1886 174.145 23.0684 174.853 22.144C175.26 21.8839 175.783 21.9714 176.246 21.9302C178.654 21.9534 181.062 21.9689 183.47 21.9328C184.291 21.9405 185.138 21.9071 185.937 22.144C186.619 22.3525 187.111 22.9603 187.304 23.6298C187.567 24.5311 187.531 25.4839 187.541 26.4135C187.51 29.4212 187.543 32.4264 187.518 35.4341C187.507 36.3946 187.536 37.3577 187.608 38.3156C188.21 37.3165 188.684 36.2504 189.166 35.1895C190.863 31.574 192.567 27.9611 194.254 24.3431C194.648 23.5809 195.016 22.7028 195.799 22.2624C196.531 21.9302 197.357 21.9689 198.145 21.9457C200.375 21.9611 202.608 21.9792 204.84 21.9457C205.6 21.9457 206.37 21.9096 207.122 22.0461C207.652 22.1234 207.974 22.5998 208.252 23.0118C208.829 23.9465 209.228 24.9766 209.692 25.968C211.322 29.4882 212.96 33.0032 214.572 36.5311C214.901 37.2521 215.293 37.9422 215.658 38.6452V38.8719C213.176 38.8384 210.691 38.9465 208.209 38.8307C207.743 37.9551 207.3 37.0667 206.867 36.1731C203.785 36.0238 200.7 36.0598 197.615 36.0161C197.182 36.0444 196.708 35.9774 196.314 36.1912C195.776 37.0049 195.452 37.9397 195.011 38.8049C192.197 38.9774 189.377 38.8152 186.56 38.8744C184.355 38.8204 182.143 38.998 179.947 38.7817C179.885 35.4186 180.06 32.053 179.872 28.6925C179.375 29.3388 178.912 30.0109 178.5 30.7139C177.107 33.0856 175.608 35.3955 174.23 37.7749C173.934 38.1714 173.707 38.7792 173.146 38.8307C171.784 38.9774 170.414 38.8307 169.052 38.8847C168.15 38.8667 167.213 39.0006 166.345 38.7096C165.745 38.053 165.367 37.2341 164.901 36.4822C163.734 34.5663 162.552 32.6581 161.404 30.7319C160.984 30.0264 160.523 29.3465 160.028 28.6925C159.84 32.053 160.016 35.4186 159.954 38.7817C157.78 39.0521 155.586 38.7225 153.413 38.9105C152.81 38.9414 152.563 39.5852 152.218 39.9817C150.681 42.2839 148.5 44.1251 146.033 45.3586C141.807 47.4882 136.626 47.5757 132.31 45.647C130.152 44.7045 128.228 43.2624 126.665 41.5062C125.952 40.6719 125.347 39.75 124.664 38.8899C122.47 38.7663 120.271 38.9774 118.08 38.8023C118 37.3294 118.07 35.859 118.062 34.386C118.026 33.7268 118.057 33.0161 117.725 32.4212C117.343 31.883 116.597 31.9345 116.015 31.883C114.292 31.8624 112.569 31.9191 110.846 31.8753C109.935 31.8907 108.982 31.8212 108.122 32.1637C107.761 32.7508 107.834 33.4744 107.81 34.1337C107.839 35.6942 107.908 37.2547 107.779 38.8126C105.452 38.9208 103.116 38.9234 100.788 38.8126C100.639 36.2298 100.77 33.6418 100.724 31.0564C100.77 28.059 100.631 25.059 100.78 22.0641C103.113 22.0023 105.449 22.0023 107.782 22.0641C107.939 23.7637 107.769 25.471 107.849 27.1757C107.9 27.6676 107.929 28.3191 108.444 28.5611C109.039 28.8058 109.695 28.8006 110.329 28.8289C111.876 28.8418 113.422 28.8032 114.969 28.8341C115.878 28.8264 116.808 28.8727 117.701 28.6564C118.121 28.1955 118.113 27.5311 118.16 26.9491C118.203 25.3319 118.1 23.7148 118.144 22.0976C120.32 21.9096 122.501 22.1517 124.677 21.9792C125.579 20.7431 126.416 19.4401 127.551 18.3972ZM137.21 15.1963C133.206 15.598 129.457 17.7637 127.003 20.9388C126.485 21.6289 125.903 22.3191 125.664 23.1637C125.519 23.9852 125.594 24.8221 125.589 25.6513C125.591 29.3465 125.548 33.0418 125.532 36.7371C125.455 37.9113 126.235 38.8564 126.892 39.7397C128.532 41.9131 130.77 43.6281 133.291 44.6581C136.155 45.7886 139.371 46.041 142.366 45.3122C145.865 44.4701 149.025 42.3122 151.103 39.3766C151.708 38.5113 152.398 37.5869 152.37 36.477C152.398 32.9491 152.342 29.4212 152.388 25.8933C152.378 25.0075 152.658 24.0444 152.197 23.2255C150.408 19.7774 147.243 17.0787 143.558 15.8555C141.524 15.1757 139.343 14.9517 137.21 15.1963ZM201.549 24.8761C200.203 27.6083 198.956 30.392 197.671 33.1525C200.246 33.2427 202.829 33.253 205.404 33.1474C204.876 31.5869 204.068 30.1422 203.393 28.6435C202.755 27.3998 202.296 26.0633 201.549 24.8761Z" fill="#7C9A97"/>
<path d="M137.731 19.5815C140.134 19.3214 142.611 19.906 144.64 21.2193C147.668 23.1583 149.607 26.6862 149.589 30.2862C149.654 32.9257 148.691 35.5626 146.973 37.5609C144.949 39.966 141.807 41.3849 138.661 41.2948C135.429 41.2845 132.277 39.6416 130.346 37.0639C127.866 33.8296 127.395 29.1815 129.259 25.5454C130.807 22.2776 134.126 19.9214 137.731 19.5815Z" fill="#7C9A97"/>
<path d="M2.16633 22.5327C3.18093 21.9507 4.39638 21.9764 5.532 21.9507C9.6496 21.979 13.7672 21.9455 17.8874 21.9661C19.5509 22.0228 21.3663 22.0769 22.7749 23.0812C23.8384 23.8614 24.1552 25.252 24.2196 26.4983C24.2582 27.7086 24.2144 28.9473 23.8719 30.1189C23.496 31.3086 22.2805 31.937 21.1603 32.2743C18.8427 32.9284 16.4067 32.7507 14.0273 32.7713C12.065 32.797 10.0977 32.6915 8.13801 32.8357C8.04273 34.8262 8.19466 36.8219 8.08136 38.8125C5.6041 38.9515 3.11912 38.8511 0.636719 38.846V24.9945C0.917406 24.07 1.27277 23.0374 2.16633 22.5327ZM8.16376 25.3885C8.15088 26.7352 8.14831 28.082 8.18178 29.4314C10.3912 29.4623 12.5955 29.3335 14.805 29.3541C15.2942 29.3438 15.7938 29.3515 16.2728 29.2228C16.9423 28.8005 17.1432 27.943 17.1226 27.1988C17.1071 26.5395 16.8882 25.7799 16.265 25.4503C15.3638 25.2442 14.429 25.337 13.5123 25.3189C11.7277 25.3498 9.94316 25.2108 8.16376 25.3885Z" fill="#7C9A97"/>
<path d="M29.5869 22.1646C30.2126 21.9457 30.8873 21.9688 31.5414 21.9508C34.1165 21.9637 36.6916 21.974 39.2667 21.9482C39.8435 21.9585 40.4332 21.9328 40.9946 22.0873C41.7028 22.5173 42.0581 23.3131 42.4212 24.0238C44.6847 28.9628 46.9843 33.8864 49.2633 38.8178C47.6487 38.9362 46.0315 38.8487 44.4143 38.877C43.5697 38.8744 42.7199 38.9336 41.8804 38.8178C41.2367 38.0555 41.0101 37.0332 40.5156 36.1731C37.3508 36.0264 34.1783 36.0495 31.0109 36.0212C30.6478 36.0315 30.2744 36.0186 29.9294 36.1474C29.4066 36.9791 29.0925 37.9242 28.6521 38.8023C27.8126 38.8821 26.9706 38.9028 26.1311 38.8796C24.483 38.8358 22.8324 38.9414 21.1895 38.81C21.3491 38.3594 21.5113 37.9088 21.7071 37.471C23.8315 32.9697 25.9483 28.4633 28.0573 23.9543C28.4101 23.2538 28.8375 22.4993 29.5869 22.1646ZM34.3869 26.4315C33.4547 28.6126 32.3268 30.7088 31.4384 32.9079C32.3165 33.1139 33.2204 33.0289 34.1139 33.0264C35.7362 33.0083 37.3586 33.0392 38.9809 33.0315C37.8555 30.2658 36.4521 27.6238 35.2676 24.8813C34.9148 25.3628 34.6161 25.8804 34.3869 26.4315Z" fill="#7C9A97"/>
<path d="M50.4102 22.0643C51.2393 21.9613 52.0763 21.9304 52.9106 21.9536C54.4479 21.987 55.9904 21.8995 57.5252 22.0154C57.5947 24.0059 57.5123 25.9965 57.5406 27.9845C57.5793 28.466 57.5355 29.0403 57.9089 29.4111C58.4728 29.9132 59.3896 29.8154 59.9406 29.3364C60.6024 28.7982 61.1406 28.1287 61.7278 27.5132C63.2213 25.9218 64.7458 24.3536 66.2213 22.7441C66.5458 22.4377 66.8471 21.9999 67.3389 21.9922C68.6213 21.8918 69.9089 21.9896 71.1939 21.9639C73.0145 21.9896 74.8402 21.8866 76.6608 22.0282C75.8986 23.0815 74.8814 23.9055 73.9853 24.8325C72.1338 26.6918 70.2333 28.4969 68.387 30.3587C68.5904 30.6317 68.799 30.9021 69.0256 31.157C70.6325 32.8154 72.229 34.4866 73.8102 36.1682C74.6162 37.0282 75.5381 37.7931 76.1612 38.8051C74.1655 38.957 72.1621 38.836 70.1638 38.8746C69.0668 38.8488 67.9569 38.975 66.8702 38.7973C66.4325 38.5398 66.0874 38.1587 65.7346 37.8008C64.2823 36.2506 62.7346 34.7931 61.29 33.2351C60.605 32.5424 59.9793 31.7828 59.2016 31.1931C58.7793 30.8789 58.066 30.6909 57.7132 31.2059C57.5278 31.9991 57.6102 32.8257 57.605 33.6343C57.6153 35.3621 57.6926 37.0926 57.569 38.8179C56.5338 38.8926 55.4934 38.8926 54.4557 38.8746C53.1089 38.8437 51.7544 38.975 50.4127 38.7793C50.4179 33.2094 50.4359 27.6368 50.4102 22.0643Z" fill="#7C9A97"/>
<path d="M76.9123 24.1577C78.0891 22.5972 80.1208 21.974 82.0084 21.9998C85.7861 22.0024 89.5637 21.9972 93.3389 22.0049C94.9431 22.0101 96.7251 22.1981 97.9354 23.3697C99.1818 24.6058 99.3981 26.4882 99.2384 28.1543C96.8436 28.1337 94.4462 28.2418 92.0513 28.2006C91.9792 27.4461 91.9947 26.671 91.7758 25.9423C91.5492 25.3011 90.756 25.3037 90.1947 25.2393C88.5826 25.1929 86.9706 25.2264 85.3586 25.2161C84.5964 25.2006 83.6359 25.417 83.3886 26.2461C83.2058 26.9646 83.1595 27.8195 83.5869 28.4607C83.9861 29.0144 84.738 28.95 85.3406 28.9886C88.2659 28.9809 91.1912 29.0041 94.1191 28.9886C95.35 28.9809 96.6479 29.0994 97.714 29.7792C99.4985 30.8762 100.338 33.1397 100.039 35.1663C99.8359 36.5749 98.8547 37.8058 97.5749 38.4006C96.7432 38.8127 95.7955 38.8667 94.8839 38.877C90.8513 38.859 86.8161 38.8667 82.7835 38.8693C81.6736 38.8616 80.5534 38.9388 79.4513 38.7637C78.3208 38.5809 77.3062 37.8522 76.732 36.8685C76.1114 35.8255 75.908 34.6024 75.8281 33.4101C78.1251 33.338 80.4298 33.2582 82.7243 33.3921C82.8891 34.3577 82.9174 35.5989 83.9346 36.0908C85.1861 36.6444 86.605 36.3998 87.9337 36.4564C89.0822 36.4281 90.2539 36.5594 91.3869 36.3071C92.059 36.1526 92.3964 35.4573 92.4659 34.8238C92.5689 34.0384 92.5715 33.0444 91.8504 32.5346C91.1526 32.0891 90.2796 32.1534 89.4891 32.12C86.4762 32.1431 83.4607 32.1071 80.4479 32.0891C78.9311 32.1071 77.3165 31.4247 76.5981 30.0264C75.6916 28.2058 75.5912 25.8109 76.9123 24.1577Z" fill="#7C9A97"/>
</g>
<defs>
<clipPath id="clip0_3421_30198">
<rect width="215.021" height="60" fill="white" transform="translate(0.636719 0.669922)"/>
</clipPath>
</defs>
</svg>
