<svg width="64" height="61" viewBox="0 0 64 61" fill="none" xmlns="http://www.w3.org/2000/svg">
<path d="M30.2585 5.7054C30.3235 5.48758 30.6571 5.63332 30.8004 5.71167L30.8445 5.73539C31.3248 5.99399 31.904 6.30582 31.891 6.77104C31.9127 7.25547 31.9078 7.74036 31.9028 8.22521C31.8985 8.63909 31.8943 9.05295 31.9067 9.46648C31.1072 8.71427 30.0592 8.12033 28.9194 7.63609C29.1054 7.37706 29.2796 7.11417 29.4538 6.85128C29.7095 6.46544 29.9656 6.07905 30.2585 5.7054Z" fill="#7C9A97"/>
<path d="M33.4089 5.72049C32.9393 5.96461 32.4475 6.22029 32.3258 6.63288C32.2752 7.20951 32.2847 7.78731 32.2942 8.36485V8.36558C32.3002 8.73412 32.3063 9.10297 32.2966 9.47093C33.0737 8.70617 34.1418 8.12791 35.2749 7.63897C35.205 7.53414 35.1352 7.42921 35.0655 7.32426L35.0648 7.32313L35.0643 7.32251L35.0639 7.32188C34.6589 6.71243 34.2533 6.10202 33.7992 5.50926C33.6772 5.58102 33.544 5.65027 33.4089 5.72049Z" fill="#7C9A97"/>
<path d="M28.7089 8.01991C30.0055 8.52922 31.3961 9.19524 31.8439 10.2405C31.9294 10.9091 31.9152 11.5808 31.9011 12.2529C31.8929 12.6378 31.8848 13.023 31.8954 13.4076C31.3177 12.6398 30.6369 11.9001 29.7121 11.314C29.3761 11.0739 28.9896 10.8774 28.6032 10.681C28.2532 10.5031 27.9034 10.3252 27.5915 10.1151C27.8333 9.52934 28.1619 8.96347 28.4905 8.39779L28.4909 8.39714C28.5639 8.27148 28.6369 8.14576 28.7089 8.01991Z" fill="#7C9A97"/>
<path d="M35.4942 8.01827C34.1775 8.54169 32.7376 9.21555 32.339 10.3031C32.27 10.9635 32.2822 11.6265 32.2945 12.2891C32.3013 12.658 32.3082 13.0268 32.3009 13.395C33.2571 12.0426 34.8067 10.9503 36.6363 10.1652C36.3071 9.43651 35.9174 8.72191 35.4942 8.01827Z" fill="#7C9A97"/>
<path d="M27.395 10.5322C29.4641 11.4333 31.4571 12.7544 31.8646 14.5111C31.9386 15.6548 31.9089 16.8012 31.8793 17.9466L31.8714 18.2581C31.2511 16.5201 30.2187 14.7932 28.387 13.5066C28.1296 13.3155 27.8384 13.1509 27.5474 12.9864C27.299 12.846 27.0508 12.7057 26.8239 12.5491C26.8035 12.0257 27.0085 11.5142 27.2113 11.0082L27.2116 11.0075C27.2753 10.8486 27.3388 10.6901 27.395 10.5322Z" fill="#7C9A97"/>
<path d="M36.8133 10.533C34.7352 11.431 32.7444 12.7583 32.3369 14.5182C32.2658 15.5253 32.2852 16.5356 32.3045 17.5448C32.3089 17.7759 32.3134 18.0076 32.3167 18.2385C33.1251 16.043 34.6478 13.8271 37.4515 12.5593C37.3081 11.8745 37.0932 11.1975 36.8133 10.533Z" fill="#7C9A97"/>
<path d="M21.0711 12.5139C21.8526 12.5155 22.6364 12.528 23.4179 12.5562C23.3014 14.3992 23.2029 16.2938 24.0718 18.0631C23.8175 17.9147 23.5606 17.7687 23.3037 17.6227C22.7439 17.3045 22.1844 16.9865 21.6533 16.6449C21.1726 16.3389 21.0722 15.8703 20.9806 15.443L20.9725 15.4053C20.7979 14.4446 20.9031 13.4714 21.0711 12.5139Z" fill="#7C9A97"/>
<path d="M19.8474 12.5984C19.2716 12.6462 18.6957 12.6941 18.1219 12.7528C18.1107 13.0458 18.104 13.3389 18.1018 13.6319C18.0331 13.5808 17.9644 13.5292 17.8957 13.4777L17.8949 13.4771L17.8941 13.4764L17.8932 13.4758L17.8924 13.4752C17.8234 13.4234 17.7542 13.3715 17.6853 13.3201C17.6897 13.2551 17.6953 13.1579 17.7009 13.0607C17.7065 12.9636 17.7121 12.8664 17.7166 12.8014C17.0471 12.9017 16.3775 13.0035 15.7124 13.1164C16.3506 13.5348 17.0202 13.9297 17.7032 14.3121L17.6853 13.7573C17.7972 13.7793 18.0256 13.8216 18.1376 13.8419C18.1455 13.9139 18.1424 13.991 18.1392 14.0695C18.1298 14.3003 18.1199 14.5428 18.3906 14.7007C18.8652 15.0339 19.3892 15.329 19.9133 15.6242C20.1782 15.7733 20.443 15.9225 20.7016 16.0766C20.415 14.9013 20.4642 13.7103 20.6546 12.5303C20.3857 12.5537 20.1165 12.5761 19.8474 12.5984Z" fill="#7C9A97"/>
<path d="M38.3226 13.0519C38.9832 12.867 39.6617 12.7181 40.3536 12.6037C40.5059 14.1254 40.5865 15.6753 40.0804 17.1687C39.8543 17.7658 39.5676 18.3989 38.8779 18.8173C37.9553 19.3784 37.0171 19.9284 36.0564 20.4581C37.8994 18.2281 38.5823 15.6047 38.3226 13.0519Z" fill="#7C9A97"/>
<path d="M43.1727 12.5223C42.3666 12.5129 41.5627 12.5286 40.761 12.5646C40.9088 14.4091 41.0006 16.3116 40.125 18.084C40.4527 17.8804 40.7921 17.6861 41.1317 17.4917C41.6415 17.1998 42.1514 16.9079 42.6219 16.5843C43.0196 16.3102 43.1164 15.9113 43.2066 15.5391C43.2155 15.5028 43.2242 15.4666 43.2332 15.4309C43.3852 14.5064 43.2854 13.5747 43.1863 12.6496L43.1727 12.5223Z" fill="#7C9A97"/>
<path d="M43.5443 12.536C43.8068 12.5603 44.0711 12.5777 44.3355 12.5951C44.9056 12.6327 45.4762 12.6702 46.03 12.7773C46.227 13.3571 46.2382 13.9997 45.965 14.5685C45.4601 14.9795 44.8499 15.3153 44.2406 15.6507L44.2386 15.6518C43.9866 15.7905 43.7347 15.9291 43.4906 16.073C43.7951 14.9039 43.7436 13.7097 43.5443 12.536Z" fill="#7C9A97"/>
<path d="M23.8388 12.607C23.7112 14.1537 23.6037 15.7349 24.1568 17.2503C24.3695 17.8145 24.6673 18.4037 25.3145 18.8002C26.2237 19.3691 27.1664 19.9113 28.1204 20.4426C26.3132 18.2 25.6235 15.5908 25.8654 13.0364C25.2025 12.8624 24.5263 12.7214 23.8388 12.607Z" fill="#7C9A97"/>
<path d="M31.6609 22.296C27.9414 20.1945 26.347 16.6638 26.674 13.3995C29.4619 14.8021 30.848 17.1606 31.3944 19.4611C31.6408 20.3951 31.7258 21.3464 31.6609 22.296Z" fill="#7C9A97"/>
<path d="M37.575 13.4265C36.415 13.9436 35.5059 14.688 34.7982 15.5029C33.0986 17.5417 32.4268 19.9613 32.541 22.3026C36.265 20.1995 37.8101 16.6876 37.575 13.4265Z" fill="#7C9A97"/>
<path d="M15.5041 13.5081C16.1871 13.8701 16.8343 14.2634 17.4725 14.663C17.047 14.9028 16.6327 15.152 16.223 15.4043C15.9654 14.7759 15.7169 14.1443 15.5041 13.5081Z" fill="#7C9A97"/>
<path d="M47.1 14.4389C46.9788 14.513 46.8575 14.5872 46.7359 14.6611C47.1525 14.9055 47.5645 15.1547 47.9765 15.4039C48.243 14.7739 48.4916 14.1392 48.6998 13.4983C48.1488 13.7974 47.6243 14.1182 47.1 14.4389Z" fill="#7C9A97"/>
<path d="M16.7357 15.5667C17.1181 15.2908 17.53 14.9936 18.0681 15.034C18.6272 15.2999 19.1349 15.612 19.6429 15.9243C19.9284 16.0998 20.2141 16.2754 20.5089 16.4428C19.3852 16.766 18.5336 17.3722 17.6974 17.9676L17.6965 17.9682C17.6167 18.025 17.5365 18.0821 17.4567 18.1385C17.178 17.559 16.9105 16.9769 16.643 16.3948L16.6426 16.394C16.5536 16.2002 16.4646 16.0065 16.3752 15.8129C16.4944 15.7408 16.6135 15.6548 16.7357 15.5667Z" fill="#7C9A97"/>
<path d="M44.6595 15.8653C44.3415 16.0615 44.0235 16.2577 43.6882 16.4379C44.8146 16.7601 45.6637 17.3649 46.4981 17.9592L46.6373 18.0583C46.6732 18.0427 46.7426 18.0113 46.7762 17.9956C47.1949 17.3045 47.5017 16.579 47.7704 15.8534C47.4502 15.4491 46.8837 15.1529 46.2768 14.9805C45.6887 15.2304 45.174 15.5479 44.6595 15.8653Z" fill="#7C9A97"/>
<path d="M17.6628 18.5194C17.8477 18.3915 18.0329 18.2507 18.222 18.1069C19.0289 17.4933 19.9072 16.8254 21.1427 16.8724C21.7447 17.1337 22.2756 17.4613 22.8065 17.789C23.1544 18.0037 23.5023 18.2184 23.8701 18.4144C21.8167 18.5915 20.2872 19.6383 18.8899 20.6084C18.4465 19.922 18.0412 19.2246 17.6628 18.5194Z" fill="#7C9A97"/>
<path d="M44.727 17.2765C44.2388 17.0336 43.632 16.7531 43.0094 16.891C42.3541 17.1946 41.7641 17.5604 41.175 17.9257C40.9127 18.0884 40.6504 18.251 40.3827 18.408C42.416 18.6132 43.9186 19.6475 45.3159 20.6098C45.4309 20.4155 45.5541 20.223 45.6774 20.0305C45.9889 19.5441 46.3007 19.0571 46.4804 18.5396C46.0347 18.0381 45.3853 17.6401 44.727 17.2765Z" fill="#7C9A97"/>
<path d="M22.9449 18.9644C23.6346 18.8297 24.4721 18.7842 25.0543 19.129C25.8104 19.5491 26.5416 19.9904 27.273 20.4316C27.4991 20.568 27.7251 20.7045 27.952 20.8403C26.4651 20.6036 24.8729 20.6021 23.4666 21.0518C22.5821 21.2921 21.8578 21.7155 21.1385 22.136C20.9382 22.2531 20.7383 22.37 20.5354 22.4826C20.0114 22.0877 19.6016 21.6223 19.2881 21.1317C19.1238 20.9531 19.3283 20.8053 19.5075 20.6757C19.5531 20.6427 19.5971 20.6109 19.6329 20.5801C20.5891 19.9188 21.6506 19.2731 22.9449 18.9644Z" fill="#7C9A97"/>
<path d="M42.1627 19.2419C41.2647 18.8861 39.9928 18.6448 39.115 19.1463C38.5923 19.4374 38.0847 19.7413 37.5773 20.0451L37.576 20.0458C37.1251 20.3157 36.674 20.5857 36.2128 20.8466C37.3974 20.6789 38.6358 20.5802 39.8136 20.8309C41.3431 21.0911 42.5725 21.8104 43.728 22.5203C43.8273 22.411 43.9287 22.3024 44.0301 22.1938C44.3884 21.8101 44.7473 21.4257 45.0178 21.008C44.3012 20.2699 43.2443 19.7026 42.1627 19.2419Z" fill="#7C9A97"/>
<path d="M21.1922 23.0626C22.4887 22.1318 24.2533 21.4516 26.15 21.4783C28.0601 21.5362 29.9031 22.1302 31.2735 23.0564C29.6612 24.0875 27.4622 24.7708 25.2475 24.5718C23.6755 24.4417 22.332 23.7898 21.1922 23.0626Z" fill="#7C9A97"/>
<path d="M39.3796 21.5769C37.7181 21.3027 35.9781 21.6459 34.5203 22.2163L34.4754 22.2349C33.9398 22.4566 33.3735 22.6909 33.0424 23.0735C34.1195 23.8853 35.6579 24.3523 37.1941 24.556C39.3573 24.8193 41.5585 24.1329 42.9984 23.0171C41.9571 22.3699 40.777 21.7666 39.3796 21.5769Z" fill="#7C9A97"/>
<path d="M20.2836 23.801C20.363 23.7206 20.4423 23.6402 20.5203 23.5597C21.5929 24.304 22.8402 24.9779 24.3249 25.2537C25.4816 25.4922 26.6944 25.3938 27.8722 25.2981L27.9369 25.2929C27.4502 25.5567 26.9831 25.8371 26.516 26.1174C26.0202 26.415 25.5245 26.7125 25.0056 26.9901C24.0203 27.5009 22.7103 27.1452 21.7788 26.7456C20.8248 26.2896 19.8418 25.7881 19.2081 25.1048C19.463 24.6325 19.875 24.215 20.2836 23.801Z" fill="#7C9A97"/>
<path d="M43.6724 23.558C42.7811 24.1755 41.7981 24.7506 40.6202 25.0766C39.3639 25.4621 37.9554 25.4542 36.623 25.3116C36.4663 25.4589 36.3028 25.6047 36.1371 25.7457C37.9308 27.9506 38.5735 30.5348 38.3226 33.0485C38.9765 33.2428 39.664 33.3744 40.3671 33.4544C40.3752 33.2948 40.3841 33.1347 40.3931 32.9743C40.4794 31.4324 40.5676 29.8545 39.8476 28.3769C39.481 27.5332 38.4931 27.0014 37.5218 26.4786C37.1762 26.2926 36.8327 26.1077 36.52 25.9103C36.6521 25.8194 36.7842 25.7316 36.9186 25.6439C37.1084 25.7584 37.2969 25.8744 37.4855 25.9904L37.4868 25.9912C38.0742 26.3525 38.6627 26.7146 39.2945 27.037C39.8924 27.3379 40.6918 27.2642 41.348 27.1107C42.8416 26.7314 44.006 25.9275 45.0809 25.1377C44.6621 24.5907 44.1964 24.0595 43.6724 23.558Z" fill="#7C9A97"/>
<path d="M26.6652 32.6879C26.3606 29.4298 27.9326 25.9007 31.6611 23.8086C31.7775 26.0558 31.146 28.3611 29.6121 30.3497C28.8933 31.2712 27.8722 32.0657 26.6652 32.6879Z" fill="#7C9A97"/>
<path d="M37.566 32.6842C37.8101 29.434 36.2941 25.8876 32.5387 23.8143C32.429 25.0461 32.6709 26.2794 33.056 27.4798C33.7121 29.4826 35.0804 31.4932 37.566 32.6842Z" fill="#7C9A97"/>
<path d="M17.6693 27.6009C18.0254 26.8753 18.4442 26.1654 18.9144 25.4712C20.2513 26.4773 21.8098 27.4536 23.814 27.6949C23.498 27.8705 23.1961 28.0607 22.8941 28.251C22.3037 28.6232 21.7127 28.9956 21.0149 29.2589C19.7882 29.1793 18.9195 28.5301 18.107 27.923C17.96 27.8131 17.8145 27.7044 17.6693 27.6009Z" fill="#7C9A97"/>
<path d="M27.0607 26.2528C26.4933 26.5838 25.9257 26.9148 25.3639 27.2517C24.5868 27.7202 24.289 28.4411 24.0628 29.115C23.6508 30.5097 23.6777 31.9546 23.8478 33.3666C24.3116 33.4722 24.7941 33.3392 25.2651 33.2093C25.4651 33.1542 25.663 33.0996 25.8565 33.0641C25.6303 30.4925 26.3156 27.8644 28.1518 25.614C27.7893 25.8279 27.425 26.0403 27.0607 26.2528Z" fill="#7C9A97"/>
<path d="M40.3761 27.6889C42.4027 27.471 43.9456 26.4603 45.3205 25.4761C45.4484 25.7163 45.6008 25.9519 45.7533 26.1878C46.0497 26.646 46.3466 27.105 46.4648 27.5995C45.7057 28.2656 44.8055 28.9441 43.6209 29.2215C43.2057 29.3454 42.8632 29.156 42.5538 28.9849C42.511 28.9613 42.4689 28.938 42.4273 28.9159C42.0581 28.7055 41.7001 28.4868 41.3421 28.2682C41.0227 28.0731 40.7034 27.878 40.3761 27.6889Z" fill="#7C9A97"/>
<path d="M31.8669 27.7843C31.3048 29.527 30.2434 31.2351 28.4654 32.5421C28.2084 32.7356 27.9161 32.9011 27.6241 33.0665C27.3462 33.2239 27.0685 33.3812 26.8217 33.5623C26.8295 34.1679 27.0685 34.752 27.305 35.3302C27.339 35.4133 27.373 35.4963 27.4062 35.5792C29.435 34.6467 31.4459 33.3617 31.8602 31.6065C31.9386 30.4924 31.9089 29.3746 31.8792 28.2595C31.875 28.1011 31.8708 27.9427 31.8669 27.7843Z" fill="#7C9A97"/>
<path d="M17.4592 27.9484C18.3505 28.6223 19.291 29.2977 20.5248 29.6565C20.1778 29.8396 19.8508 30.0412 19.5237 30.2427C19.0531 30.5327 18.5825 30.8227 18.0526 31.0575C17.5232 31.0691 17.142 30.8103 16.7739 30.5605C16.6422 30.4711 16.5122 30.3828 16.3776 30.3085C16.718 29.5171 17.0853 28.7319 17.4592 27.9484Z" fill="#7C9A97"/>
<path d="M32.4093 28.1104L32.3168 27.9068L32.3108 28.1963C32.2874 29.3098 32.2641 30.4244 32.328 31.5362C32.7042 33.3196 34.7397 34.6297 36.7887 35.5731C37.0955 34.9165 37.3015 34.2395 37.4627 33.5593C36.0945 32.8761 34.9054 32.0095 34.0769 30.9814C33.308 30.0901 32.8567 29.0959 32.4093 28.1104Z" fill="#7C9A97"/>
<path d="M21.6266 29.4813C22.1932 29.0976 22.8085 28.7514 23.4232 28.4057L23.4239 28.4053L23.426 28.4041C23.6337 28.2872 23.8417 28.1702 24.0473 28.052C23.2232 29.8182 23.2881 31.694 23.4225 33.526C22.6365 33.5479 21.8505 33.5573 21.0623 33.5573C20.901 32.5763 20.7913 31.5812 20.9884 30.6002C21.0802 30.2037 21.1854 29.768 21.6266 29.4813Z" fill="#7C9A97"/>
<path d="M40.7415 28.3789C40.5647 28.2779 40.3881 28.1771 40.2123 28.0757C40.9334 29.8466 40.9423 31.702 40.7542 33.523C41.5604 33.5497 42.3643 33.5591 43.1704 33.5512L43.1856 33.414C43.2888 32.4827 43.3927 31.5451 43.2219 30.616C43.1279 30.207 43.0182 29.7525 42.5591 29.4579C41.9747 29.083 41.3579 28.7309 40.7423 28.3793L40.7415 28.3789Z" fill="#7C9A97"/>
<path d="M43.7754 29.6601C44.9264 29.237 45.8804 28.6164 46.7358 27.9394C47.1187 28.7261 47.4905 29.5159 47.8241 30.3136C47.3516 30.6302 46.8366 30.9169 46.288 31.1645C46.0784 31.0437 45.8663 30.9247 45.6542 30.8057C45.0053 30.4415 44.356 30.077 43.7754 29.6601Z" fill="#7C9A97"/>
<path d="M19.7691 30.5509C19.2364 30.8524 18.7037 31.1538 18.2496 31.5108C17.962 32.0187 18.0333 32.5745 18.1023 33.1113C18.1122 33.1887 18.1222 33.2664 18.1309 33.3427C18.9684 33.4289 19.8104 33.5026 20.6568 33.5496C20.4598 32.3664 20.4083 31.1707 20.7151 29.9938C20.4111 30.1876 20.0901 30.3693 19.7691 30.5509Z" fill="#7C9A97"/>
<path d="M43.4799 29.9856C43.8963 30.2384 44.3208 30.4849 44.7454 30.7315L44.7497 30.734C44.9948 30.8763 45.2404 31.0189 45.4841 31.1625C46.2877 31.565 46.2013 32.2931 46.1253 32.9332C46.1105 33.0583 46.096 33.1801 46.0887 33.2954C45.4168 33.4479 44.712 33.482 44.0109 33.5159C43.8545 33.5234 43.6982 33.531 43.5426 33.5399C43.7486 32.3598 43.7956 31.1578 43.4799 29.9856Z" fill="#7C9A97"/>
<path d="M17.23 31.2772C16.9033 31.0902 16.5762 30.9032 16.2096 30.7537C15.9494 31.2902 15.7618 31.8419 15.5749 32.3917L15.5132 32.5731C16.2007 32.2158 16.8456 31.8209 17.4838 31.4213C17.3988 31.3737 17.3144 31.3254 17.23 31.2772Z" fill="#7C9A97"/>
<path d="M46.7137 31.4181C47.1549 31.1925 47.5803 30.9543 48.0036 30.7145C48.2499 31.3445 48.4917 31.976 48.7201 32.6107C48.0327 32.2268 47.3654 31.8287 46.7137 31.4181Z" fill="#7C9A97"/>
<path d="M17.6826 31.8066C16.9951 32.167 16.3412 32.5572 15.7478 32.9913C16.395 33.0948 17.0466 33.1919 17.7027 33.275C17.6804 32.786 17.6759 32.2955 17.6826 31.8066Z" fill="#7C9A97"/>
<path d="M32.2947 32.6391C33.1881 34.037 34.8116 35.1293 36.6434 35.9316C36.3053 36.6588 35.9111 37.3718 35.5036 38.0817C34.2026 37.563 32.803 36.897 32.3551 35.8423C32.2669 35.1875 32.2805 34.5297 32.2941 33.8719C32.3025 33.4608 32.311 33.0496 32.2947 32.6391Z" fill="#7C9A97"/>
<path d="M31.8914 32.7297C30.9173 34.068 29.3766 35.1541 27.5561 35.9345C27.9054 36.6663 28.2883 37.3903 28.7407 38.094L28.7761 38.0782C30.0147 37.5274 31.4096 36.9071 31.8421 35.8624C31.9318 35.1791 31.9163 34.4924 31.9007 33.8059C31.8926 33.447 31.8845 33.0881 31.8914 32.7297Z" fill="#7C9A97"/>
<path d="M32.2858 36.5863C33.0449 37.3683 34.1086 37.9669 35.273 38.4355C34.8095 39.1642 34.3258 39.8882 33.7884 40.5934C33.659 40.512 33.5162 40.4341 33.3716 40.3552C32.9231 40.1105 32.4576 39.8566 32.3239 39.462C32.2763 38.9263 32.2847 38.3896 32.2932 37.8531C32.2999 37.4306 32.3065 37.0081 32.2858 36.5863Z" fill="#7C9A97"/>
<path d="M31.9025 36.623C31.1344 37.3878 30.0797 37.9723 28.9309 38.4362C29.3967 39.1586 29.8782 39.8779 30.391 40.5863C30.5076 40.52 30.6325 40.4559 30.7588 40.391C31.2123 40.158 31.6843 39.9156 31.8577 39.5332C31.9252 38.9507 31.9138 38.3659 31.9024 37.7809C31.8949 37.3948 31.8874 37.0087 31.9025 36.623Z" fill="#7C9A97"/>
<path d="M30.6351 5.18282C31.0248 4.6453 31.4368 4.11405 31.8847 3.59847C31.904 4.14798 31.9025 4.69831 31.9009 5.24828C31.9003 5.46213 31.8997 5.67592 31.9003 5.88959C31.4838 5.64826 31.0651 5.41162 30.6351 5.18282Z" fill="#7C9A97"/>
<path d="M33.5706 5.19251C33.1809 4.65185 32.7689 4.11903 32.3143 3.60502C32.2892 4.21182 32.2928 4.81861 32.2964 5.4254C32.2973 5.57709 32.2982 5.72878 32.2986 5.88047C32.7152 5.64384 33.1384 5.41347 33.5706 5.19251Z" fill="#7C9A97"/>
<path d="M32.2922 40.1784C32.7043 40.4213 33.1185 40.6642 33.5418 40.8993C33.179 41.4556 32.767 41.9962 32.3034 42.515C32.296 42.0866 32.2961 41.6582 32.2962 41.2298C32.2962 40.8794 32.2963 40.5289 32.2922 40.1784Z" fill="#7C9A97"/>
<path d="M46.9775 12.8763L46.5367 12.8102C46.5501 13.3054 46.5524 13.8006 46.5479 14.2958C47.2152 13.9119 47.8691 13.5169 48.5073 13.1095C47.998 13.0292 47.4874 12.9527 46.9775 12.8763Z" fill="#7C9A97"/>
<path d="M47.5555 32.3959L47.5564 32.3965L47.5589 32.398C47.8797 32.5902 48.2007 32.7827 48.5228 32.9744C47.8645 33.0841 47.2061 33.1859 46.5433 33.2737C46.5477 32.7816 46.5522 32.2895 46.5545 31.7975C46.8884 31.9961 47.2218 32.1959 47.5555 32.3959Z" fill="#7C9A97"/>
<path d="M31.5291 40.4006C31.2351 40.5682 30.9407 40.7361 30.6779 40.9276C30.9051 41.3115 31.1994 41.673 31.4939 42.0347C31.6262 42.1972 31.7586 42.3598 31.8849 42.5245C31.8962 42.0874 31.8977 41.6499 31.8991 41.2125C31.9003 40.8687 31.9014 40.525 31.9073 40.1816C31.783 40.2558 31.6561 40.3282 31.5291 40.4006Z" fill="#7C9A97"/>
<path fill-rule="evenodd" clip-rule="evenodd" d="M31.1412 0.669922H32.7826C35.7698 0.77962 38.6832 1.51146 41.1598 2.67583C45.7706 4.83845 48.9504 8.20931 51.0016 11.7635C54.2262 17.4757 54.7838 23.8648 52.9543 29.8527C51.5883 34.1921 48.872 38.4452 44.324 41.6092C41.2315 43.7781 37.0753 45.3311 32.6348 45.422C28.6331 45.5443 24.7009 44.4536 21.6129 42.7109C17.197 40.2176 14.2366 36.6634 12.4362 32.94C9.87664 27.5679 9.52283 21.7084 11.2404 16.1812C12.5459 12.0613 15.083 8.0432 19.228 4.93091C22.3227 2.59904 26.5438 0.898721 31.1412 0.669922ZM28.931 2.35144C22.9587 3.34342 18.442 6.73623 15.7347 10.4472C15.4749 10.7324 15.3271 11.3373 16.0549 11.2793C16.339 10.9717 16.5904 10.6509 16.8419 10.3302C17.1335 9.95811 17.4253 9.58598 17.768 9.23421C20.0633 6.75346 23.2744 4.57047 27.2851 3.52364C27.7212 3.39912 28.1778 3.31985 28.6346 3.24056C29.1206 3.15619 29.6068 3.07179 30.0685 2.93284C30.1133 2.73068 30.0976 2.52225 30.0349 2.32009C29.6771 2.24435 29.3019 2.29821 28.9457 2.34932L28.931 2.35144ZM32.0391 2.26525C31.5634 2.63417 31.2353 3.0741 30.9078 3.51322C30.7512 3.72322 30.5947 3.93303 30.4223 4.13481C28.4988 6.69548 26.6961 9.36271 25.9975 12.2384C24.9696 11.9469 23.8768 11.7604 22.7661 11.7275C19.9782 11.6303 17.2059 12.0033 14.5277 12.511C14.4495 13.1479 14.7065 13.7573 14.9625 14.3642C15.0731 14.6265 15.1836 14.8883 15.2667 15.1516L15.2716 15.1635C16.4099 17.8897 17.5765 20.6839 19.8841 23.0562C18.5719 24.3365 17.6963 25.8018 16.9238 27.2748C15.9071 29.2384 15.1032 31.2522 14.4068 33.2832C14.4717 33.3647 14.6016 33.5308 14.6643 33.6138C18.3323 34.2548 22.3384 34.8487 26.0019 33.8771C26.676 36.6446 28.389 39.2178 30.2208 41.6923C30.3713 41.8807 30.5154 42.0723 30.6596 42.2641L30.6601 42.2647C31.0951 42.8431 31.5312 43.423 32.1466 43.9207C33.2999 42.6937 34.2359 41.3742 35.163 40.0578C36.4864 38.0895 37.7023 36.0507 38.1905 33.8896C41.4397 34.7359 44.9823 34.3504 48.2741 33.8411C48.3896 33.8184 48.509 33.7993 48.6291 33.7801C49.0331 33.7155 49.4455 33.6496 49.7476 33.443C49.6726 32.7383 49.3895 32.0585 49.107 31.3801C48.9761 31.0658 48.8453 30.7518 48.7354 30.4357L48.6712 30.2873C47.588 27.7844 46.478 25.2198 44.3173 23.0546C46.6834 20.6254 47.8618 17.7573 49.0115 14.9593L49.078 14.7975C49.1438 14.5523 49.2499 14.3073 49.3563 14.0616C49.5689 13.5707 49.7826 13.0771 49.6782 12.5737C49.0231 12.3457 48.3031 12.2477 47.5862 12.1501C47.3425 12.1169 47.0992 12.0838 46.8589 12.0456C44.0105 11.682 40.9516 11.4454 38.1972 12.2305C37.3866 8.89101 35.1226 5.8414 32.8162 2.90306C32.7448 2.83755 32.6849 2.75915 32.6245 2.6799C32.4838 2.49565 32.3398 2.30689 32.0391 2.26525ZM34.2516 2.27151C33.8395 2.28562 33.7477 2.9344 34.2202 2.99866C34.5754 3.07543 34.9374 3.13609 35.2995 3.19676C35.8686 3.29214 36.4379 3.38754 36.9813 3.54558C41.1531 4.64883 44.4471 6.96973 46.7559 9.58838C46.952 9.7975 47.1208 10.0187 47.2895 10.2398C47.533 10.5589 47.7763 10.8779 48.1017 11.1602C48.6526 11.1759 48.6996 10.6791 48.4488 10.4299C46.8007 8.17327 44.5524 6.09214 41.6704 4.53756C39.5117 3.39514 36.979 2.45643 34.2516 2.27151ZM27.359 5.77245C24.2553 6.6422 21.736 8.32371 19.8192 10.2105C19.7925 10.247 19.7565 10.2885 19.7185 10.3322C19.5393 10.5386 19.3148 10.797 19.808 10.8358C21.3733 9.3345 23.167 7.90843 25.4667 6.93838C25.8764 6.74887 26.3196 6.60247 26.7626 6.45613C27.1767 6.31931 27.5907 6.18254 27.977 6.01065C28.1338 5.62201 27.7307 5.67372 27.359 5.77245ZM36.2916 5.65492C36.2893 5.76148 36.2848 5.97304 36.2804 6.0796C39.3057 6.90704 41.8831 8.42714 43.7574 10.2685C44.0105 10.5286 44.324 10.7606 44.7203 10.9157C44.6702 10.4052 44.2142 10.0076 43.7738 9.62358C43.7033 9.56213 43.6328 9.50065 43.5648 9.4395C41.6525 7.78776 39.2295 6.3084 36.2916 5.65492ZM23.0192 10.2466C22.8333 10.3907 22.4034 10.748 22.9027 10.817C23.19 10.6423 23.4635 10.4565 23.737 10.2708L23.7377 10.2704C24.2293 9.93656 24.721 9.60272 25.2921 9.33294C25.407 9.26761 25.5373 9.20792 25.6687 9.14773C26.0824 8.95815 26.507 8.76363 26.4968 8.37229C25.1622 8.81265 24.0403 9.51315 23.0192 10.2466ZM37.7091 8.46789C37.9016 8.8463 38.3594 9.06793 38.8112 9.28666C38.9638 9.36052 39.1157 9.43404 39.2564 9.51315C39.6532 9.70891 40.0011 9.94525 40.3489 10.1815C40.7529 10.4559 41.1567 10.7303 41.6368 10.9408C41.5655 10.4546 41.0598 10.1324 40.5718 9.82151C40.4622 9.75164 40.3534 9.68234 40.2507 9.61188C40.137 9.54506 40.0238 9.47644 39.91 9.40749C39.2526 9.00916 38.5775 8.60013 37.7091 8.46789ZM50.2223 14.5358C50.0859 14.7035 50.1476 14.8932 50.2068 15.0751C50.2233 15.126 50.2397 15.1763 50.2514 15.2253C52.175 19.9094 52.3026 24.9445 50.7083 29.6851C50.6573 29.8824 50.5716 30.0782 50.4856 30.2742C50.3185 30.6558 50.1507 31.0386 50.238 31.4371L50.7642 31.5499C51.6532 29.8998 52.016 28.1289 52.3385 26.3847C52.9319 22.5516 52.5109 18.6322 50.9949 14.9228C50.9843 14.903 50.9729 14.8809 50.9607 14.8572C50.8235 14.5905 50.5843 14.1255 50.2223 14.5358ZM13.2065 14.9573C11.7644 18.4473 11.3658 22.1237 11.7845 25.7359C12.0622 27.77 12.5571 29.8042 13.4976 31.7427C13.932 31.6581 14.2814 31.3948 14.0261 31.0704C11.9234 25.9882 11.8517 20.4939 13.8873 15.3961C13.988 15.136 14.0597 14.857 13.8962 14.6C13.5131 14.3587 13.3242 14.7276 13.2218 14.9276L13.2065 14.9573ZM14.6979 20.6553C14.4359 22.8227 14.5187 25.0151 15.0047 27.1667C15.0853 27.5005 15.2286 27.8265 15.4055 28.143C15.6419 27.7253 15.5335 27.2905 15.4264 26.8611C15.3925 26.725 15.3587 26.5895 15.3361 26.4552C14.8457 23.929 14.8994 21.3464 15.5152 18.8328C15.5958 18.5366 15.5533 18.2326 15.4033 17.9489C15.0123 18.6012 14.9077 19.3046 14.8037 20.004C14.7712 20.2221 14.7389 20.4397 14.6979 20.6553ZM48.6257 18.0273C48.6521 18.5795 48.7645 19.126 48.8769 19.6728C49.0025 20.2837 49.1281 20.8947 49.134 21.5141C49.3848 23.6109 49.0467 25.7124 48.6279 27.7842C48.7086 27.8609 48.8698 28.013 48.9504 28.0882C49.8573 25.0527 49.8797 21.9043 49.1945 18.8469C49.1796 18.7969 49.1672 18.745 49.1546 18.6925C49.0917 18.4292 49.0253 18.1514 48.6257 18.0273ZM16.6506 22.4403C16.6736 22.7235 16.6622 23.0137 16.6507 23.3051C16.6231 24.0039 16.5952 24.7095 17.0424 25.341C17.1428 24.8305 17.1112 24.3177 17.0796 23.8047C17.0583 23.4595 17.037 23.1142 17.0559 22.7694C17.0527 22.5295 17.0716 22.2891 17.0904 22.0487C17.125 21.6072 17.1596 21.1657 17.0581 20.7274C16.67 21.0519 16.6733 21.4897 16.6765 21.9148C16.6779 22.0955 16.6793 22.2739 16.6506 22.4403ZM47.0851 20.8309C47.1567 22.3196 47.1298 23.8084 47.094 25.2971L47.3739 25.2204C47.5975 24.3785 47.575 23.517 47.5527 22.6608V22.6538C47.5469 22.4317 47.541 22.2099 47.5396 21.989C47.522 21.8887 47.5213 21.7805 47.5205 21.6709C47.5183 21.3489 47.5161 21.0144 47.0851 20.8309ZM48.1398 34.8424C47.8565 35.1611 47.5924 35.4879 47.3283 35.8147C46.8638 36.3896 46.3993 36.9644 45.831 37.494C43.0677 40.2772 38.9474 42.5417 34.0836 43.1184C34.1076 43.1869 34.1111 43.2756 34.1147 43.3674C34.1248 43.6262 34.1359 43.9089 34.6121 43.8267C36.2154 43.6449 37.7561 43.2343 39.187 42.7015C43.3006 41.1266 46.4043 38.4907 48.5137 35.5994C48.7601 35.3267 48.8071 34.7641 48.1398 34.8424ZM15.8646 34.9913C15.4884 35.1606 15.6585 35.5335 15.822 35.7639C18.2472 39.0157 21.9846 41.9791 26.9693 43.3237C27.1598 43.3664 27.3514 43.4126 27.544 43.459C28.4044 43.6665 29.2868 43.8792 30.1962 43.8126C30.3798 43.4866 30.3193 43.0557 29.7102 43.0385C24.8218 42.4116 20.7821 40.0092 18.077 37.1837C17.6917 36.8139 17.3722 36.4154 17.0529 36.0171C16.743 35.6307 16.4333 35.2444 16.0639 34.8848L15.8646 34.9913ZM19.546 35.1449C19.4765 35.6044 19.8749 35.9625 20.2544 36.3036C20.315 36.358 20.3751 36.412 20.4328 36.466C22.3563 38.1882 24.8308 39.7146 27.8203 40.4339C27.863 40.3777 27.9409 40.2795 28.0013 40.2034L28.0509 40.1409C27.6889 39.9373 27.2689 39.8033 26.8495 39.6695C26.6359 39.6013 26.4224 39.5332 26.2169 39.456C24.2889 38.7414 22.6474 37.7009 21.2389 36.5459C21.0482 36.3887 20.8729 36.2218 20.6978 36.0551C20.3527 35.7266 20.0079 35.3985 19.546 35.1449ZM22.8647 35.7106C23.888 36.4863 25.0345 37.2119 26.3916 37.6915C26.3759 37.3733 26.1408 37.1242 25.7422 36.98C24.9289 36.6244 24.2393 36.1636 23.5501 35.7031L23.5489 35.7022C23.2574 35.5075 22.966 35.3128 22.6654 35.1261C22.6733 35.1759 22.6741 35.2286 22.6748 35.2819C22.677 35.4386 22.6793 35.6007 22.8647 35.7106ZM39.2206 36.607C39.0619 36.7071 38.8719 36.7923 38.6812 36.8779C38.2208 37.0845 37.7567 37.2928 37.7202 37.715C38.5018 37.4768 39.196 37.1242 39.8386 36.7355C39.9282 36.6807 40.0195 36.6261 40.1112 36.5713C40.7326 36.1998 41.374 35.8164 41.6413 35.2593C41.0421 35.4091 40.6035 35.7176 40.1632 36.0273C39.8663 36.2361 39.5687 36.4454 39.2206 36.607ZM43.5402 36.0381C42.1451 37.3514 40.394 38.4875 38.3719 39.3134C38.0466 39.4509 37.7022 39.5622 37.3578 39.6735C37.0074 39.7867 36.6571 39.8999 36.3274 40.0406C36.3202 40.092 36.31 40.1668 36.2997 40.2432L36.2995 40.2445L36.2994 40.2453C36.2875 40.3337 36.2753 40.4239 36.2669 40.4825C38.9787 39.8227 41.283 38.5299 43.1371 37.0192L43.2239 36.9468C43.8375 36.4356 44.4653 35.9126 44.8032 35.2781C44.3 35.3003 44.0238 35.5719 43.7571 35.8341C43.6855 35.9045 43.6146 35.9741 43.5402 36.0381Z" fill="#7C9A97"/>
<path d="M0.658203 48.7092C0.760681 48.5645 0.863158 48.3501 1.14863 48.3733C1.68176 48.3699 2.08679 48.6808 2.34054 48.9804C2.85293 49.5979 2.7468 50.3393 2.7163 51.024C2.70044 52.8324 2.71508 54.6408 2.70776 56.4501C2.72118 57.0762 2.76753 57.7608 3.31652 58.2835C3.72277 58.684 4.59993 58.8148 5.17454 58.5203C5.78209 58.2095 6.1066 57.704 6.31521 57.2105C6.68608 56.2848 6.75318 55.2746 6.37377 54.3454C6.1066 53.6557 5.20626 53.1347 4.19368 53.0942C3.86429 53.0373 3.31286 53.1433 3.2177 52.8255C3.03105 52.227 3.51538 51.5286 4.36936 51.3435C5.26848 51.1445 6.24811 51.427 6.88128 51.8877C7.81334 52.5551 8.20983 53.492 8.38063 54.3997C8.60632 55.496 8.538 56.6189 8.20739 57.7005C7.97682 58.4299 7.58154 59.155 6.87396 59.7225C6.12124 60.3296 4.98056 60.7214 3.82403 60.6483C2.98957 60.6336 2.22221 60.2909 1.73544 59.825C1.03395 59.1696 0.752141 58.3429 0.658203 57.5378V48.7092Z" fill="#7C9A97"/>
<path d="M12.5649 51.2737C13.2579 51.1695 14.0447 51.1858 14.6279 51.5036C15.2928 51.8343 15.5258 52.4819 15.3037 53.0175C15.2208 53.2104 14.9097 53.2053 14.6816 53.176C13.4262 53.0373 12.1111 53.4989 11.4584 54.2602C10.9131 54.8836 10.7898 55.6501 10.9216 56.3657C11.0363 57.0417 11.273 57.7341 11.8293 58.3007C12.1562 58.6357 12.7455 58.9199 13.3408 58.7795C14.074 58.5883 14.4095 58.0277 14.6218 57.5369C15.1085 56.4286 14.828 55.2608 14.7572 54.1276C14.7657 53.8864 14.6864 53.5626 15.0268 53.4119C15.5087 53.2914 16.0247 53.4946 16.2761 53.7874C16.6811 54.2481 16.7823 54.8036 16.8543 55.334C16.9324 56.1332 17.0373 56.9582 16.7006 57.7367C16.309 58.7373 15.5953 59.7544 14.3217 60.3313C13.3701 60.7705 12.0476 60.7343 11.1485 60.2443C10.0591 59.6674 9.50644 58.7304 9.20022 57.8211C8.75494 56.3795 8.82325 54.8397 9.52718 53.4438C10.0274 52.4629 11.0534 51.5105 12.5649 51.2737Z" fill="#7C9A97"/>
<path d="M20.2241 51.2594C21.377 51.1165 22.5847 51.442 23.3496 52.0603C24.2951 52.8121 24.6562 53.8291 24.8295 54.8031C24.9649 55.6961 24.8954 56.596 24.9149 57.4934C24.9088 58.3537 24.9869 59.2139 24.9417 60.0742C24.91 60.2654 24.9112 60.5169 24.6465 60.628C24.1804 60.7373 23.6607 60.5806 23.3753 60.3093C22.9312 59.9012 22.758 59.3741 22.7567 58.866C22.7555 57.7465 22.7775 56.627 22.7726 55.5075C22.7458 54.7721 22.4871 53.9394 21.5856 53.489C21.0293 53.2039 20.2204 53.334 19.7849 53.6836C19.5031 53.9282 19.5031 54.2623 19.4982 54.562C19.5055 56.398 19.4933 58.2331 19.4982 60.0691C19.5055 60.2904 19.4079 60.5711 19.0773 60.6521C18.5954 60.7304 18.1391 60.5091 17.8683 60.2448C17.4169 59.7995 17.3071 59.2329 17.3047 58.699C17.3083 57.2643 17.3144 55.8296 17.3364 54.3949C17.4108 53.6535 17.4425 52.8517 18.0806 52.2239C18.5783 51.7219 19.3579 51.3481 20.2241 51.2594Z" fill="#7C9A97"/>
<path d="M49.8897 51.2753C51.1646 51.0798 52.5199 51.4699 53.3068 52.1924C54.3889 53.1784 54.6427 54.4719 54.7208 55.6835C54.7391 57.0898 54.7281 58.4969 54.7452 59.9041C54.7281 60.1452 54.7647 60.4406 54.4829 60.6171C54.0327 60.7446 53.5057 60.599 53.2129 60.3398C52.7371 59.9308 52.5614 59.3848 52.548 58.8647C52.5431 57.7167 52.5785 56.5671 52.5639 55.4192C52.5285 54.7242 52.2589 53.9509 51.4342 53.5117C50.8681 53.2 50.0068 53.324 49.5652 53.7003C49.3041 53.9423 49.3029 54.2652 49.2919 54.5563C49.3004 56.3974 49.287 58.2386 49.2943 60.0798C49.2956 60.2899 49.2175 60.5448 48.9235 60.6421C48.455 60.742 47.9817 60.5387 47.7047 60.2821C47.2192 59.8326 47.1118 59.2453 47.0996 58.6959C47.1045 57.3482 47.1033 56.0005 47.124 54.6527C47.1899 53.9483 47.1728 53.2094 47.6059 52.5575C48.0402 51.9177 48.8966 51.4139 49.8897 51.2753Z" fill="#7C9A97"/>
<path d="M56.3993 52.4883C57.0032 51.8415 57.9634 51.3223 59.0784 51.2361C59.7152 51.1724 60.4057 51.2534 60.9084 51.5522C61.4378 51.857 61.6477 52.3737 61.5562 52.8405C61.5257 52.9662 61.4732 53.1161 61.2902 53.1729C60.8425 53.1918 60.3923 53.1272 59.947 53.1789C58.8051 53.2969 57.8048 53.8773 57.379 54.63C56.9349 55.3964 57.0215 56.2567 57.2728 57.0481C57.4741 57.6078 57.7584 58.1986 58.3928 58.5904C58.7978 58.8488 59.4566 58.8987 59.8897 58.6464C60.5363 58.2761 60.7827 57.6767 60.9535 57.1247C61.2744 56.0784 60.9511 55.0158 60.9498 53.9617C60.9584 53.7576 60.9389 53.4597 61.2927 53.3968C61.8782 53.2935 62.4065 53.6172 62.6139 53.9798C63.1202 54.8186 63.0933 55.7529 63.1202 56.6485V56.9439C62.9116 57.9368 62.4162 58.9254 61.5098 59.7099C60.8901 60.2421 59.9775 60.6606 58.971 60.64C57.9121 60.6391 56.9703 60.162 56.4067 59.5549C55.5222 58.618 55.1891 57.4744 55.122 56.3643C55.0659 55.0313 55.3453 53.6259 56.3993 52.4883Z" fill="#7C9A97"/>
<path d="M26.6452 51.8019C27.5785 51.193 29.0376 51.0914 30.1734 51.4609C30.7297 51.6331 31.1737 51.9362 31.5714 52.2531C32.1521 51.7597 32.9195 51.3308 33.8516 51.2559C35.0728 51.1138 36.2988 51.5496 37.0528 52.2144C38.0934 53.1418 38.3337 54.3673 38.4326 55.5126C38.4984 57.005 38.4484 58.4982 38.4582 59.9915C38.4435 60.2085 38.4728 60.4884 38.1898 60.6304C37.7555 60.7415 37.2736 60.5883 36.9796 60.3566C36.4977 59.9786 36.3147 59.4558 36.3061 58.9581C36.2744 57.7533 36.3598 56.5468 36.2927 55.3429C36.2513 54.6566 35.9658 53.8979 35.1094 53.4966C34.381 53.1108 33.1537 53.4932 33.0793 54.1347C32.9988 54.648 33.0159 55.1664 33.0195 55.6822C33.0622 57.0894 33.0317 58.4974 33.0464 59.9054C33.033 60.1456 33.0708 60.447 32.7682 60.6124C32.2924 60.7562 31.7093 60.6193 31.3994 60.3351C30.8846 59.8752 30.7833 59.2629 30.7516 58.6972C30.748 57.6922 30.7736 56.6881 30.7748 55.6831C30.7882 54.9193 30.5698 54.0495 29.6927 53.5362C29.001 53.128 27.7737 53.3761 27.5955 54.0202C27.4272 54.7376 27.4772 55.4695 27.465 56.1946C27.4504 57.4588 27.5699 58.723 27.5102 59.9872C27.4772 60.1981 27.4931 60.441 27.2784 60.6106C26.8343 60.7622 26.3036 60.602 26.0084 60.348C25.3654 59.827 25.291 59.0976 25.3252 58.4379C25.3691 56.769 25.2178 55.0932 25.4789 53.4312C25.557 52.8077 25.9754 52.2135 26.6452 51.8019Z" fill="#7C9A97"/>
<path d="M41.4471 51.3317C42.5377 51.1492 43.7846 51.2198 44.6861 51.7262C45.7963 52.3376 46.3392 53.3141 46.6088 54.2614C46.9467 55.5514 46.9126 56.9034 46.4026 58.1693C46.011 59.1132 45.1839 60.057 43.8321 60.4247C42.8049 60.6856 41.5484 60.6555 40.6688 60.1595C39.8074 59.6927 39.3609 58.9349 39.2536 58.1883C39.1535 57.3263 39.2255 56.404 39.8758 55.6453C40.3381 55.0838 41.2019 54.6765 42.1364 54.6661C42.8244 54.6636 43.5162 54.6412 44.203 54.6748C44.4238 54.6851 44.4812 54.8702 44.5056 54.996C44.569 55.4997 44.3079 56.0552 43.7101 56.3583C43.249 56.5934 42.6451 56.4496 42.1278 56.5478C41.7057 56.5934 41.3702 56.844 41.2873 57.1351C41.1628 57.5183 41.1799 57.9549 41.491 58.2942C41.7801 58.6085 42.3828 58.711 42.8732 58.6042C43.5711 58.4733 44.0737 58.0591 44.4006 57.6251C45.0326 56.7665 45.1363 55.7503 44.8801 54.81C44.7288 54.2631 44.3201 53.7042 43.5759 53.4579C42.5634 53.0911 41.3959 53.265 40.3113 53.191C39.9026 53.0144 40.0331 52.6157 40.0893 52.3367C40.1942 51.8416 40.7602 51.4385 41.4471 51.3317Z" fill="#7C9A97"/>
</svg>
