<svg width="83" height="61" viewBox="0 0 83 61" fill="none" xmlns="http://www.w3.org/2000/svg">
<path d="M40.153 1.45202C46.9095 0.273413 53.9083 0.410037 60.592 1.97666C64.9385 3.01683 69.1592 4.61806 73.0612 6.80587C74.0977 7.39791 75.178 7.93894 76.0834 8.73136C75.1161 8.38707 74.2125 7.88976 73.258 7.51449C67.7693 5.29572 61.8726 4.29563 55.9996 3.78192C54.9321 3.67262 53.8318 3.71452 52.8026 3.37205C49.2249 2.11511 45.3976 1.66516 41.6194 1.7526C40.317 1.76171 39.029 2.00581 37.7266 1.98395C38.5153 1.72345 39.3351 1.58136 40.153 1.45202Z" fill="#7C9A97"/>
<path d="M55.0604 5.15717C56.0404 5.07884 57.0223 5.10252 58.0024 5.16264C62.0537 5.41403 66.096 6.07529 69.9524 7.36502C73.3116 8.53634 76.627 10.1704 79.0826 12.8063C80.8423 14.6407 81.9954 17.0799 82.1265 19.632C82.2304 21.7215 81.6985 23.8127 80.7822 25.6818C79.7639 27.7639 78.3393 29.6275 76.7162 31.2724C74.0694 33.9849 70.9452 36.1909 67.6626 38.0672C63.0757 40.6576 58.1536 42.6305 53.0912 44.0732C52.0547 44.3701 51.02 44.7017 49.9434 44.8201C50.8141 44.3301 51.7814 44.0605 52.7013 43.6815C54.8873 42.798 57.0132 41.7633 59.0516 40.5793C59.7985 40.1512 60.58 39.7905 61.3469 39.4043C64.0393 38.0271 66.6024 36.364 68.8339 34.3146C71.8852 31.553 74.2807 27.9552 75.1915 23.9075C75.8145 21.0821 75.82 18.0399 74.7306 15.3238C73.7069 12.6988 71.6775 10.5602 69.2966 9.10106C65.8901 6.9934 61.9244 6.00242 57.9914 5.46139C57.0205 5.30473 56.0332 5.3029 55.0604 5.15717Z" fill="#7C9A97"/>
<path d="M33.0971 13.346C38.7387 12.222 44.5243 11.7775 50.2698 12.1164C53.7801 12.3641 57.2941 12.9416 60.6095 14.1566C63.0159 15.0474 65.3422 16.3207 67.1001 18.2226C68.4244 19.6289 69.3389 21.4305 69.5994 23.3523C69.9874 25.9099 69.2442 28.5131 67.9708 30.7246C66.2421 33.7412 63.6535 36.1622 60.8682 38.1952C55.671 41.9241 49.6432 44.3524 43.4696 45.9208C39.9902 46.7715 36.4453 47.3854 32.8675 47.6059C31.0058 47.7042 29.1514 47.8919 27.2896 47.9811C22.7027 48.1633 18.0976 47.7862 13.5908 46.9173C13.3667 45.7405 13.4214 44.54 13.4469 43.3505C13.9023 43.4707 14.3559 43.6 14.804 43.7494C17.97 44.8552 21.3201 45.3288 24.6555 45.5182C26.9508 45.6567 29.268 45.6312 31.545 45.2741C35.0626 44.7131 38.5402 43.835 41.8483 42.4979C45.6428 40.9732 49.2752 38.9494 52.3502 36.2314C54.3194 34.4626 56.0973 32.4114 57.2103 29.9886C57.9772 28.3091 58.409 26.4364 58.2122 24.5874C58.0082 22.5872 57.0792 20.6945 55.6965 19.2463C54.7511 18.2663 53.6854 17.3682 52.4412 16.7926C52.7965 17.1879 53.1936 17.5431 53.5962 17.891C55.1683 19.2409 56.345 21.099 56.7076 23.1556C57.0482 24.8516 56.7094 26.635 55.9461 28.1724C55.1846 29.6917 54.0716 31.0142 52.8147 32.1473C50.7179 34.04 48.2624 35.49 45.7193 36.6978C41.2071 38.8018 36.3779 40.1717 31.4886 41.0588C29.3955 41.3831 27.286 41.7875 25.1601 41.7037C25.9926 41.4213 26.8652 41.2956 27.7232 41.1226C30.6961 40.4941 33.6199 39.6379 36.4598 38.565C39.3217 37.4538 42.1124 36.1112 44.63 34.3406C46.6957 32.8577 48.6303 31.0634 49.7944 28.7681C50.6214 27.1632 50.9347 25.2778 50.5376 23.5072C50.1532 21.6837 49.1295 20.0479 47.8179 18.7472C47.4098 18.3555 47.0091 17.9256 46.4844 17.6925C45.61 17.5868 44.7356 17.7963 43.8722 17.9092C36.6985 19.1115 29.8655 22.1592 24.0708 26.5384C20.759 29.0887 17.7423 32.0981 15.5345 35.6667C14.5362 37.3281 13.6819 39.0951 13.1882 40.9769C12.4778 43.7421 12.485 46.6969 13.2884 49.4403C14.2739 52.8285 16.3378 55.8306 18.8827 58.2443C19.7808 59.1096 20.7954 59.8365 21.7591 60.6252C20.1651 60.4267 18.6878 59.7873 17.1539 59.3592C18.0083 59.953 19.0266 60.2081 19.9702 60.6179C18.8663 60.6853 17.7606 60.6489 16.6548 60.669C16.0118 60.6635 15.3159 60.7254 14.7439 60.3702C12.3138 58.9548 10.1679 56.9947 8.72332 54.5664C7.4937 52.548 6.78872 50.24 6.48633 47.9046C6.72679 48.3874 6.94539 48.881 7.16398 49.3747C8.14039 51.5862 9.56128 53.5882 11.2554 55.306C11.5706 55.6211 11.9203 55.898 12.2792 56.1604C11.8493 55.6048 11.3538 55.1056 10.8947 54.5755C9.1842 52.528 7.89265 50.1325 7.15123 47.5676C6.408 45.225 6.26044 42.6783 6.84884 40.2864C7.7287 36.6012 9.97844 33.4006 12.5998 30.7319C16.4435 26.8754 21.1962 24.0282 26.193 21.9242C31.0823 19.893 36.2576 18.5796 41.5077 17.9129C43.0105 17.6542 44.5371 17.5595 46.0399 17.3008C45.7649 17.1205 45.5007 16.911 45.1856 16.8053C44.7666 16.7415 44.3422 16.8035 43.925 16.849C40.493 17.3099 37.0537 17.7981 33.7 18.6798C30.8674 19.4085 28.1076 20.3958 25.3933 21.4851C26.4316 20.3211 27.5538 19.0751 27.7833 17.4666C27.9673 16.5266 27.6449 15.6012 27.2787 14.7487C29.2078 14.2422 31.1515 13.7868 33.0971 13.346Z" fill="#7C9A97"/>
<path d="M11.4786 19.7814C12.5187 19.1858 13.5534 18.5609 14.6993 18.1875C13.8868 18.8852 12.9232 19.3661 12.067 20.0019C9.97207 21.5138 8.00468 23.2663 6.54736 25.4177C5.29042 27.2521 4.44153 29.4107 4.35227 31.6477C4.28486 33.1761 4.47249 34.7372 5.07911 36.1508C5.45255 37.0489 6.02455 37.8395 6.56922 38.6374C6.35791 39.3843 6.13384 40.1275 5.99904 40.8926C5.82963 41.8381 5.80595 42.8017 5.71486 43.7563C4.66377 43.2061 3.76934 42.4137 2.95141 41.5666C1.60157 40.1512 0.606941 38.3642 0.262648 36.4277C-0.0725364 34.4549 0.18796 32.3964 0.954877 30.5511C1.83838 28.3924 3.26109 26.4961 4.88419 24.8384C6.82061 22.84 9.0995 21.2078 11.4786 19.7814Z" fill="#7C9A97"/>
<path d="M47.3053 52.3288C47.6623 51.1885 48.8318 50.4817 49.9868 50.4106C51.2127 50.3159 52.6336 50.5254 53.4443 51.5528C53.927 52.0811 53.9835 52.8225 54.0181 53.5038C53.3714 53.5093 52.7265 53.5056 52.0817 53.4765C51.8612 53.1012 51.6918 52.6604 51.322 52.4053C50.7919 52.1539 50.1289 52.1776 49.6188 52.4636C49.2417 52.6895 49.1998 53.3398 49.6279 53.5402C50.8885 54.1359 52.4624 53.9519 53.5772 54.8828C54.4389 55.6934 54.4644 57.087 54.0035 58.1126C53.6137 59.0325 52.5917 59.426 51.6791 59.61C50.3056 59.8541 48.6825 59.6683 47.7042 58.5716C47.165 58.0015 47.094 57.189 47.043 56.4458C47.7006 56.4148 48.3673 56.3383 49.0195 56.4658C49.2435 56.8156 49.4075 57.2018 49.6498 57.5406C50.2054 57.9031 50.9522 57.8903 51.5716 57.71C51.9869 57.5825 52.1928 57.1289 52.1236 56.7208C51.8121 56.3492 51.3166 56.2381 50.8739 56.1124C49.9503 55.861 48.963 55.7335 48.136 55.218C47.216 54.6095 46.9209 53.3344 47.3053 52.3288Z" fill="#7C9A97"/>
<path d="M65.8617 50.8393C67.2407 50.2582 68.851 50.2418 70.2428 50.792C71.5562 51.3021 72.5289 52.5535 72.753 53.9362C72.8641 54.5756 72.8532 55.2332 72.9935 55.8689C73.1392 56.5721 73.6729 57.1732 74.3397 57.4283C75.4199 57.8327 76.777 57.2352 77.1596 56.1367C77.4565 55.2405 77.4456 54.193 76.9701 53.3587C76.451 52.4533 75.2286 52.1692 74.2905 52.5189C73.8351 52.7157 73.489 53.0818 73.1246 53.4061C72.8896 52.6373 72.3213 52.007 72.1009 51.2474C73.5746 50.251 75.5438 50.1726 77.1869 50.7665C78.6679 51.2984 79.6862 52.7703 79.8283 54.3132C80.0105 55.8835 79.4713 57.6323 78.1488 58.5796C76.3052 59.8365 73.6657 59.7891 71.8877 58.4357C70.9842 57.758 70.5197 56.6431 70.4067 55.5465C70.3047 54.7905 70.3411 53.969 69.9203 53.3004C69.2044 52.1437 67.3281 52.0507 66.4647 53.0836C65.6923 53.9635 65.6741 55.3133 66.144 56.3407C66.5375 57.2188 67.574 57.7143 68.5067 57.5048C69.1316 57.3991 69.5924 56.9364 70.0296 56.5175C70.312 57.2388 70.7 57.9128 71.1736 58.5267C69.352 59.8128 66.7197 59.811 64.9254 58.4776C63.7577 57.605 63.2749 56.0693 63.335 54.6575C63.3697 53.049 64.3643 51.4678 65.8617 50.8393Z" fill="#7C9A97"/>
<path d="M23.0781 50.6273C24.3369 50.5544 25.6011 50.5581 26.8617 50.5982C27.7033 50.6455 28.616 50.7475 29.2954 51.2977C29.9713 51.8861 30.1206 52.8534 30.0824 53.7041C30.0405 54.7533 29.4539 55.8463 28.4393 56.2344C27.4556 56.5823 26.3899 56.4402 25.3679 56.4748C25.3388 57.4785 25.3443 58.4823 25.3261 59.4878C24.5865 59.5006 23.845 59.5006 23.1055 59.486C23.0563 56.5331 23.1073 53.5802 23.0781 50.6273ZM25.3643 52.5965C25.3424 53.2323 25.3443 53.8698 25.3643 54.5074C26.093 54.502 26.9273 54.7023 27.5703 54.267C27.9383 53.8152 27.9347 52.9208 27.3335 52.6657C26.6941 52.4781 26.0165 52.5801 25.3643 52.5965Z" fill="#7C9A97"/>
<path d="M38.7539 50.6424C39.5208 50.5677 40.2914 50.5605 41.0601 50.606C41.0711 51.6443 41.0638 52.6845 41.0802 53.7228C41.8817 52.894 42.6668 52.0487 43.4465 51.198C43.7052 50.9485 43.9584 50.6206 44.3482 50.6042C45.137 50.5167 45.9312 50.5841 46.72 50.626C45.6489 51.8957 44.432 53.0324 43.3481 54.2912C44.0148 55.3915 44.7745 56.4298 45.4959 57.4937C45.9531 58.1294 46.4085 58.7743 46.7437 59.4847C45.8565 59.5139 44.9676 59.503 44.0822 59.4684C43.2279 58.3207 42.5247 57.0656 41.6121 55.9617C41.4062 56.2313 41.0838 56.4717 41.0838 56.8452C41.0292 57.7323 41.0838 58.6231 41.0383 59.5121C40.2859 59.5048 39.5354 59.4975 38.7831 59.4756C38.7393 56.5318 38.7958 53.5862 38.7539 50.6424Z" fill="#7C9A97"/>
<path fill-rule="evenodd" clip-rule="evenodd" d="M34.8607 50.6043C34.092 50.5606 33.3196 50.5642 32.5527 50.6407C32.0865 52.0325 31.5946 53.4152 31.1027 54.7981C30.5547 56.3384 30.0067 57.8789 29.4941 59.4321C30.2392 59.5086 30.9897 59.5177 31.7384 59.5013C31.9625 58.9293 32.161 58.3463 32.356 57.7634C33.2467 57.7252 34.1394 57.7252 35.0302 57.7634L35.0302 57.7635C35.2269 58.3446 35.4236 58.9257 35.644 59.4995C36.4183 59.5013 37.1925 59.5013 37.9667 59.4922C37.7026 58.5604 37.3742 57.6496 37.0457 56.7384C36.9754 56.5434 36.9051 56.3483 36.8354 56.1531C36.5396 55.3291 36.2478 54.5036 35.9559 53.678C35.5935 52.6529 35.2311 51.6275 34.8607 50.6043ZM34.6908 55.8778L33.6624 52.5571L32.6366 55.8778H34.6908Z" fill="#7C9A97"/>
<path d="M55.4654 50.6055C56.2342 50.56 57.0047 50.5673 57.7735 50.642C57.7462 51.6858 57.7407 52.7296 57.7844 53.7734C58.657 53.8244 59.5314 53.8244 60.404 53.7716C60.444 52.7223 60.4367 51.673 60.4203 50.6256C61.1782 50.5618 61.9396 50.5618 62.6974 50.6256C62.6665 53.5785 62.7211 56.5332 62.6701 59.4861C61.9287 59.5007 61.1891 59.5007 60.4513 59.4861C60.4058 58.2401 60.4604 56.9922 60.4058 55.7462C59.5314 55.7262 58.6588 55.728 57.7844 55.7481C57.7243 56.9886 57.7771 58.2328 57.7425 59.4752C56.992 59.497 56.2397 59.5061 55.4873 59.5116C55.4217 56.5441 55.4654 53.573 55.4654 50.6055Z" fill="#7C9A97"/>
</svg>
