<svg width="230" height="61" viewBox="0 0 230 61" fill="none" xmlns="http://www.w3.org/2000/svg">
<path fill-rule="evenodd" clip-rule="evenodd" d="M32.4665 0.669922H28.9995C22.4187 1.30596 15.9253 3.69632 10.9118 8.0821C4.75505 13.2453 0.94711 20.9069 0.140625 28.872C0.880596 28.0779 1.64135 27.3006 2.46447 26.5938C2.161 22.6695 5.02111 19.3604 8.1639 17.4149C11.6767 15.3238 15.4929 13.3076 19.6833 13.2494C19.2298 13.8112 18.7702 14.3647 18.3101 14.9187C18.1165 15.1518 17.9228 15.385 17.7295 15.619C19.9037 15.0079 22.1652 14.5215 24.4349 14.8375C24.0151 15.2864 23.5911 15.7312 23.1629 16.1719C26.7172 15.9848 30.5792 16.995 32.8906 19.8717L31.4148 20.3041C31.5897 20.5638 31.7707 20.8223 31.9523 21.0815C32.7939 22.2829 33.6486 23.5029 33.9631 24.9559C34.0189 25.1736 34.0712 25.3966 34.1239 25.6217C34.4206 26.8884 34.7333 28.2231 35.7923 29.0632C36.5748 29.7078 37.5369 29.94 38.5004 30.1725C39.2209 30.3465 39.9422 30.5205 40.5896 30.8674C41.4725 31.5618 40.7167 32.4299 40.1048 33.1326C39.9474 33.3133 39.7996 33.483 39.6917 33.636C39.8962 33.9508 40.1997 34.2232 40.5033 34.4958C41.0017 34.9432 41.5004 35.3909 41.5624 36.0264C40.9898 36.6873 40.2669 37.186 39.5497 37.6808C39.4233 37.768 39.2972 37.855 39.172 37.9428C39.3979 37.9745 39.6382 37.9623 39.8795 37.9501C40.3354 37.927 40.795 37.9038 41.1674 38.1756C41.7239 38.553 41.5916 39.1224 41.4555 39.7082C41.3547 40.142 41.2518 40.5848 41.4252 40.9651C41.5313 41.2597 41.6844 41.5636 41.8403 41.873C42.3135 42.8121 42.8126 43.8027 42.1028 44.7439C41.0789 45.9228 39.631 46.3588 38.1783 46.7962C36.9827 47.1561 35.7838 47.5171 34.8153 48.2941C33.6646 49.4416 33.0995 50.9787 32.5434 52.4911C32.3844 52.9237 32.2261 53.3543 32.055 53.7732C31.9944 53.9702 31.9246 54.172 31.8537 54.3769C31.5207 55.3398 31.1627 56.3748 31.6185 57.3276C32.8029 57.857 34.0593 58.2181 35.3174 58.5797C37.1415 59.104 38.969 59.6292 40.5854 60.6699C46.2433 58.7992 51.3483 55.274 55.0357 50.5889C59.1679 45.4215 61.4958 38.8782 61.6954 32.2767C61.9033 24.719 59.2053 17.128 54.25 11.412C48.8498 5.03492 40.7684 1.21035 32.4665 0.669922ZM44.8595 11.3459L44.7966 11.2124C46.2017 11.9441 47.4988 12.8545 48.7625 13.8065C48.8896 13.6618 49.0146 13.5147 49.1396 13.3675C49.6326 12.7874 50.1271 12.2055 50.7538 11.7612C50.8577 13.0748 50.9118 14.3885 50.8536 15.7063C51.0176 15.8987 51.1828 16.0904 51.348 16.2822C52.3429 17.4365 53.3392 18.5925 54.0878 19.9258C52.8074 19.5724 51.5229 19.2149 50.2508 18.8283C50.0099 19.3505 49.7956 19.8857 49.5813 20.4209C49.1558 21.4835 48.7305 22.5458 48.0974 23.5051C48.0536 23.1861 48.0119 22.8666 47.9702 22.5469C47.79 21.1667 47.6095 19.7843 47.2618 18.4375L46.7463 18.4083C45.5339 18.3395 44.3218 18.2708 43.113 18.1798C43.6244 17.7921 44.1555 17.4314 44.687 17.0705C45.3522 16.6188 46.018 16.1666 46.6465 15.6606C46.1911 14.1694 45.5248 12.7565 44.8595 11.3459Z" fill="#7C9A97"/>
<path d="M31.0977 25.3447C31.0116 25.4061 30.9275 25.4662 30.8453 25.5213C29.3612 26.6313 28.5713 28.4396 28.4383 30.2563C28.6119 29.9702 28.7789 29.6767 28.9464 29.3824C29.5772 28.274 30.2154 27.1527 31.2402 26.3611C31.7474 25.8705 32.4416 25.7416 33.1151 25.9287C33.0757 25.7734 33.0143 25.5246 32.957 25.2923L32.9561 25.2888C32.9171 25.1306 32.8801 24.9803 32.8532 24.8728C32.2141 24.5479 31.621 24.9712 31.0977 25.3447Z" fill="#7C9A97"/>
<path d="M30.6082 30.7964C30.8701 29.3414 31.4563 27.9113 32.8157 27.1589C32.5491 27.9978 32.9481 28.7151 33.3345 29.4096C33.4 29.5273 33.4651 29.6444 33.5266 29.7612C32.5829 30.1894 31.6143 30.5511 30.6082 30.7964Z" fill="#7C9A97"/>
<path d="M12.2756 51.3251C7.70687 48.1158 3.38345 44.1041 1.01388 38.9534C2.71415 45.6381 6.66759 51.7823 12.2091 55.9062C12.8814 55.0312 13.2077 53.9366 13.5251 52.8722C13.5982 52.6268 13.6709 52.3831 13.7472 52.144C14.098 51.1981 13.393 50.5852 12.7459 50.0226C12.611 49.9053 12.4785 49.7902 12.3587 49.6747L12.2756 51.3251Z" fill="#7C9A97"/>
<path fill-rule="evenodd" clip-rule="evenodd" d="M169.976 8.44136C166.963 6.53838 163.189 6.03092 159.732 6.82382C152.73 8.45722 148.076 15.9264 149.028 22.9278C149.487 27.2729 151.85 31.4119 155.522 33.8224C159.224 36.328 164.212 36.772 168.295 34.9404C172.775 32.9819 176.002 28.5812 176.724 23.7683C177.826 17.9325 175.083 11.5337 169.976 8.44136ZM154.293 20.557C154.499 16.8938 156.862 13.286 160.43 12.1284C164.894 10.4395 169.945 13.738 171.102 18.1624C173.005 23.4749 169.318 30.508 163.379 30.7221C158.003 31.1661 153.793 25.6396 154.293 20.557ZM72.3236 6.96305C72.0662 6.98512 71.8099 7.00711 71.5547 7.0287C72.2042 15.6811 71.9933 24.3663 71.7827 33.0365L71.7827 33.0365L71.7827 33.0366L71.7827 33.0366L71.7827 33.0366C71.7619 33.8929 71.7412 34.7491 71.7212 35.6051C77.5411 36.2553 83.8289 36.5249 89.0859 33.4881C97.5383 29.1112 98.9735 15.267 91.195 9.59772C85.6778 5.81794 78.6811 6.4179 72.3236 6.96305ZM77.8345 30.9032C77.8028 24.4886 77.8107 18.0739 77.8266 11.6672C80.7762 11.4928 83.8765 11.691 86.4693 13.261C92.1227 16.504 92.0672 26.0823 86.39 29.2777C83.821 30.8001 80.7445 31.0459 77.8345 30.9032ZM105.8 7.41664C107.735 7.43249 109.677 7.4325 111.612 7.38493C118.423 14.9096 121.056 25.1857 122.07 35.0495C121.391 35.0495 120.711 35.0504 120.032 35.0513C118.674 35.053 117.318 35.0548 115.965 35.0495C115.788 33.6356 115.604 32.2218 115.42 30.8106L115.42 30.81L115.42 30.8094L115.42 30.8087C115.339 30.1945 115.259 29.5809 115.18 28.9679C112.988 28.96 110.794 28.96 108.6 28.96H108.599C106.404 28.96 104.21 28.96 102.018 28.952C101.772 31.0215 101.51 33.0831 101.098 35.1288C99.1871 35.0654 97.2762 35.0495 95.3653 35.0574C96.3564 25.1937 99.1316 15.0206 105.8 7.41664ZM108.163 12.7053C106.006 16.2258 104.373 20.0635 103.255 24.036C106.807 24.0202 110.367 24.0122 113.919 24.0519C112.881 20.0952 111.2 16.3131 109.059 12.8322C108.948 12.8164 108.78 12.7927 108.612 12.769L108.611 12.7688L108.609 12.7686C108.441 12.7448 108.274 12.7211 108.163 12.7053ZM147.19 7.4102C145.264 7.42606 143.329 7.42605 141.394 7.40226C141.371 9.00247 141.387 10.6037 141.403 12.2052C141.432 15.0714 141.461 17.9386 141.267 20.8024C137.652 15.7754 133.378 11.232 128.494 7.41813C126.805 7.42605 125.116 7.42606 123.427 7.4102C123.444 12.2924 123.44 17.1747 123.437 22.0557V22.0563V22.0569C123.434 26.3947 123.432 30.7317 123.443 35.0669L123.446 35.0669C125.411 35.0589 127.377 35.051 129.342 35.051C129.348 32.7797 129.343 30.5085 129.339 28.2376C129.331 24.1503 129.323 20.0643 129.374 15.9815C135.154 21.0244 139.888 27.5659 141.894 35.0431C143.654 35.051 145.406 35.0589 147.167 35.0906C147.182 30.6972 147.179 26.3037 147.176 21.9111V21.906V21.9056V21.9051C147.173 17.0721 147.17 12.2401 147.19 7.4102ZM178.652 7.39442C179.271 7.4418 179.908 7.42061 180.547 7.39937C181.726 7.36017 182.911 7.32078 183.996 7.71159C188.873 11.3273 192.821 16.0054 196.524 20.7708C196.563 17.6313 196.555 14.4957 196.547 11.3586C196.544 10.0508 196.54 8.74279 196.54 7.43407C198.514 7.43407 200.489 7.42614 202.463 7.41028C202.431 16.6239 202.439 25.8454 202.455 35.059C200.719 35.059 198.974 35.059 197.238 35.0669C195.002 27.5977 190.395 20.9532 184.504 15.8785C184.453 19.992 184.461 24.1055 184.469 28.2189C184.473 30.5043 184.478 32.7896 184.472 35.0749C182.537 35.059 180.595 35.059 178.66 35.0828C178.652 30.4685 178.654 25.8542 178.656 21.2399C178.658 16.6248 178.66 12.0096 178.652 7.39442ZM223.237 7.64869C218.567 5.72985 212.62 6.17388 208.814 9.71818C203.557 14.6976 203.089 23.1897 205.841 29.5647C207.99 34.4807 213.754 36.8832 218.884 36.0348C223.071 35.7097 226.766 33.2438 229.224 29.9215C227.416 29.5013 225.608 29.0889 223.8 28.7004C221.096 30.8175 217.251 31.8324 214.095 30.0721C211.558 28.7956 210.559 25.9569 209.766 23.4276C212.816 23.3664 215.867 23.3771 218.919 23.3877C222.595 23.4005 226.271 23.4133 229.945 23.3007V18.4481C229.311 14.1743 227.424 9.53581 223.237 7.64869ZM224.419 18.7811C219.622 18.8287 214.824 18.8287 210.019 18.7811C210.479 14.5549 214.46 10.741 218.86 11.6687C222.246 12.2317 224.371 15.4905 224.419 18.7811Z" fill="#7C9A97"/>
<path fill-rule="evenodd" clip-rule="evenodd" d="M85.7741 48.4626C84.8132 46.3892 83.8106 44.2258 81.2351 44.3136C81.1876 47.4852 81.2113 50.6648 81.2431 53.8443H82.9082C82.9161 51.6797 82.932 49.5151 83.035 47.3504C84.0851 48.9659 84.9355 50.6934 85.7847 52.4184L85.7847 52.4184L85.7847 52.4184L85.7847 52.4184L85.7847 52.4184L85.7847 52.4184L85.7848 52.4184L85.7848 52.4184L85.7848 52.4184L85.7848 52.4184L85.7848 52.4184L85.7848 52.4185L85.7848 52.4185L85.7848 52.4185L85.7848 52.4185L85.7848 52.4185L85.7848 52.4185L85.7849 52.4186L85.7849 52.4186L85.7849 52.4187L85.7849 52.4187L85.7849 52.4187L85.7849 52.4187L85.7849 52.4187L85.7849 52.4187L85.7849 52.4187L85.7849 52.4187L85.7849 52.4187L85.7849 52.4187L85.7849 52.4187L85.7849 52.4187L85.7849 52.4188L85.7849 52.4188C86.0194 52.8949 86.2537 53.3709 86.4921 53.8443H88.4744C88.7202 50.8392 88.8629 47.8024 88.4982 44.8052L87.0551 44.1074C86.9888 45.4836 86.952 46.8599 86.9153 48.2361L86.9153 48.2362C86.8948 49.0008 86.8744 49.7654 86.8489 50.53C86.4504 49.9218 86.1149 49.1978 85.7741 48.4626ZM77.3973 44.6941C74.86 43.5444 72.2196 45.2967 71.3633 47.723V50.5141C72.0214 51.9413 73.0522 53.1624 74.4953 53.8443H77.3577C80.7117 52.0523 81.0923 46.2482 77.3973 44.6941ZM74.7886 46.2086C72.513 47.5803 73.0522 52.5677 76.1524 52.2426C79.2607 51.3545 78.3171 44.821 74.7886 46.2086ZM90.5188 44.5262L90.5464 44.5264C92.472 44.5343 94.4054 44.5422 96.3388 44.558L96.2754 46.0248C95.8478 46.1312 95.3169 46.1162 94.7801 46.101C93.4352 46.0629 92.0525 46.0238 92.1602 47.8882C92.5892 48.0101 93.1014 48.0266 93.6193 48.0434C94.853 48.0832 96.1192 48.1241 96.3705 49.5929C95.086 49.6246 93.7935 49.6484 92.5011 49.6564C92.4932 50.2748 92.4852 51.5118 92.4852 52.1302L96.2754 52.0827C96.3229 52.5267 96.4181 53.4068 96.4656 53.8429H90.5506C90.4713 50.7347 90.4713 47.6344 90.5188 44.5262ZM102.179 44.4947C101.703 44.483 101.228 44.4714 100.757 44.4396C100.622 47.5715 100.638 50.7115 100.662 53.8435H102.707C102.676 52.8761 102.652 51.9088 102.636 50.9414C103.033 50.849 103.454 50.7982 103.88 50.7471C104.95 50.6182 106.043 50.4866 106.815 49.6807C108.004 48.19 107.6 45.5417 105.673 44.8915C104.543 44.5524 103.36 44.5235 102.179 44.4947ZM104.002 48.622H104.002C103.697 48.626 103.391 48.63 103.191 48.634C101.78 47.1196 104.801 45.2404 105.181 47.5002L104.801 48.6102C104.601 48.6142 104.301 48.6181 104.002 48.622ZM117.526 44.5595L117.591 44.558L117.591 44.558C118.584 44.5347 119.57 44.5116 120.563 44.4961C121.125 46.2359 121.63 47.9934 122.134 49.7515L122.134 49.7515L122.134 49.7516L122.134 49.7516L122.134 49.7517L122.134 49.7517L122.134 49.7518L122.134 49.7518L122.134 49.7519L122.134 49.7519L122.134 49.7519L122.134 49.752L122.134 49.752L122.134 49.7521L122.134 49.7523L122.134 49.7524L122.134 49.7525L122.134 49.7527L122.135 49.7528L122.135 49.753L122.135 49.753L122.135 49.753L122.135 49.7531L122.135 49.7531L122.135 49.7531L122.135 49.7532L122.135 49.7532C122.527 51.1192 122.919 52.4856 123.338 53.8444H121.681C121.189 51.7591 119.572 51.2516 117.637 51.4499C117.296 52.2507 116.947 53.0515 116.575 53.8444H114.981C115.567 50.8549 116.473 47.9436 117.376 45.0432L117.376 45.0432L117.376 45.0431L117.376 45.0431L117.376 45.043L117.376 45.043L117.376 45.043L117.376 45.0429L117.376 45.0429L117.376 45.0428L117.376 45.0428L117.376 45.0427L117.376 45.0427L117.376 45.0426L117.526 44.5595ZM117.685 49.6658L117.685 49.6658C118.541 49.8165 119.398 49.9671 120.262 50.0781C119.921 48.635 119.556 47.1999 119.16 45.7726C118.741 46.7835 118.368 47.8042 117.992 48.8309L117.991 48.831L117.991 48.8312C117.89 49.109 117.788 49.3872 117.685 49.6658ZM131.902 44.5499L130.189 44.4865C130.165 46.3736 130.141 48.2607 130.094 50.1558C129.231 48.736 128.392 47.2973 127.554 45.8616L127.554 45.8615L127.554 45.8615L127.554 45.8614L127.554 45.8614L127.554 45.8613L127.554 45.8613L127.554 45.8612L127.554 45.861L127.553 45.8601L127.553 45.8591L127.552 45.8581L127.551 45.857L127.551 45.8559L127.55 45.8548L127.55 45.854L127.549 45.8534L127.549 45.8528L127.549 45.8523L127.548 45.8516L127.548 45.8511C127.302 45.4301 127.057 45.0094 126.811 44.5896L124.409 44.5578L124.409 44.5742V44.5748V44.5755V44.5761V44.5768V44.5774V44.5781V44.5787V44.5794V44.58V44.5806V44.5813V44.5819C124.417 47.6663 124.424 50.7585 124.448 53.8428H126.169L126.173 53.2976C126.187 51.2988 126.201 49.3001 126.288 47.3013C127.256 48.8419 128.071 50.4685 128.885 52.0956L128.885 52.0957L128.885 52.0959C129.177 52.6794 129.469 53.2631 129.769 53.8428H132.036C131.786 51.1356 131.834 48.4162 131.882 45.7059C131.889 45.3204 131.896 44.935 131.902 44.5499ZM133.787 44.5273C134.431 44.6374 135.181 44.579 135.94 44.5198C137.639 44.3874 139.384 44.2514 140.091 45.9941C138.64 46.0655 137.197 46.1051 135.746 46.1448C135.742 46.3911 135.74 46.7628 135.738 47.1352C135.736 47.5061 135.734 47.8778 135.73 48.1271L139.29 48.1509L139.258 49.6653L135.817 49.5939C135.777 50.4344 135.738 51.2749 135.69 52.1154C136.992 52.1154 138.294 52.1232 139.604 52.1311L139.623 52.1312C139.631 52.3455 139.645 52.6669 139.659 52.9883C139.673 53.3092 139.686 53.63 139.694 53.8439H133.811C133.8 51.7715 133.797 49.7027 133.793 47.6326V47.6309V47.6291V47.6273V47.6256V47.6238V47.6221V47.6203V47.6185V47.6168V47.615V47.6132C133.792 46.5851 133.79 45.5566 133.787 44.5273ZM147.49 44.6314C145.111 44.4332 142.717 44.449 140.338 44.6552C140.057 46.0465 141.117 46.1368 142.141 46.2242C142.419 46.2478 142.694 46.2713 142.939 46.3203C142.947 48.8259 142.963 51.3315 143.002 53.845H144.913C144.937 51.3473 144.945 48.8417 144.945 46.3441C145.225 46.2583 145.579 46.2241 145.938 46.1894C146.974 46.0894 148.049 45.9855 147.49 44.6314ZM157.713 53.8428C153.122 52.4869 153.629 44.4865 158.64 44.3675C163.874 43.9394 164.762 52.2966 160.131 53.8428H157.713ZM158.022 46.1199C156.032 47.444 156.048 50.7663 157.998 52.1222C162.185 53.4384 162.185 44.8274 158.022 46.1199ZM179.778 44.5659C177.828 44.55 175.869 44.5342 173.919 44.5262C173.903 47.6344 173.895 50.7347 173.951 53.8429H179.905L179.905 53.8392L179.905 53.8389L179.905 53.8379C179.849 53.4161 179.739 52.5805 179.691 52.162C179.437 52.1536 179.182 52.1466 178.927 52.1397L178.927 52.1397C177.975 52.1137 177.02 52.0876 176.076 51.9875C176.036 51.7002 175.975 51.2704 175.914 50.8395L175.914 50.8374L175.913 50.8299L175.912 50.8224L175.912 50.8203C175.851 50.3894 175.79 49.9595 175.75 49.6722C176.569 49.6563 177.391 49.6475 178.217 49.6386L178.217 49.6386C178.623 49.6342 179.03 49.6299 179.437 49.6246C179.422 49.2599 179.406 48.5304 179.398 48.1657L179.341 48.1639C178.099 48.1249 176.85 48.0856 175.616 48.0309C175.364 46.0285 176.792 46.0653 178.179 46.1011C178.714 46.115 179.243 46.1286 179.667 46.0248C179.691 45.6601 179.747 44.9306 179.778 44.5659ZM184.139 44.4787C184.377 44.4866 184.734 44.4946 185.091 44.5025C185.448 44.5104 185.805 44.5184 186.042 44.5263C186.058 45.7315 186.074 46.9367 186.082 48.1419C186.502 48.1459 187.132 48.1499 187.762 48.1538L187.763 48.1538H187.763C188.393 48.1578 189.024 48.1618 189.444 48.1657C189.42 46.9684 189.396 45.7791 189.373 44.5976C190.063 44.5739 190.752 44.5501 191.442 44.5421C191.355 47.6345 191.292 50.7427 191.514 53.843H189.444L189.42 49.7912C188.68 49.7859 187.94 49.7877 187.2 49.7894C186.83 49.7903 186.46 49.7912 186.09 49.7912C186.082 50.4603 186.072 51.1293 186.063 51.7993C186.053 52.4792 186.043 53.1601 186.035 53.843H184.147C184.076 50.7189 184.076 47.6028 184.139 44.4787ZM198.864 44.5659C196.913 44.5421 194.971 44.5342 193.028 44.5262C193.012 47.6344 193.012 50.7347 193.052 53.8429H198.959C198.923 53.4592 198.84 52.7318 198.79 52.2884L198.777 52.1699C198.524 52.1615 198.271 52.1546 198.018 52.1476L198.018 52.1476C197.071 52.1216 196.123 52.0955 195.185 51.9954C195.141 51.71 195.076 51.2798 195.01 50.8497C194.945 50.4195 194.88 49.9894 194.836 49.7039C195.675 49.6721 196.518 49.6473 197.362 49.6225C197.778 49.6103 198.194 49.5981 198.61 49.585C198.571 49.2441 198.491 48.5622 198.452 48.2291C198.063 48.1064 197.512 48.121 196.954 48.1357C195.602 48.1715 194.207 48.2085 194.971 46.2944C196.072 46.156 197.184 46.1021 198.293 46.0485L198.294 46.0485C198.455 46.0407 198.616 46.0329 198.777 46.0248C198.789 45.8426 198.804 45.5693 198.82 45.296C198.836 45.0222 198.852 44.7484 198.864 44.5659ZM202.37 44.558C202.87 44.5463 203.371 44.5326 203.872 44.5189C204.388 44.5049 204.904 44.4908 205.422 44.4787C205.847 45.6378 206.169 46.8425 206.491 48.047V48.0471C207.026 50.0497 207.561 52.0518 208.569 53.843H206.54C206.064 51.718 204.407 51.2502 202.465 51.4563C202.148 52.2572 201.815 53.0501 201.466 53.843H199.602C200.191 52.0481 200.713 50.2342 201.234 48.4188L201.234 48.4186L201.234 48.4184L201.234 48.4182L201.234 48.4181L201.235 48.4167C201.605 47.1292 201.975 45.8408 202.37 44.558ZM209.182 53.843C209.168 54.1444 209.151 54.4457 209.133 54.7469C208.929 54.4525 208.742 54.1509 208.569 53.843H209.182ZM209.182 53.843C209.331 50.7719 209.287 47.6894 209.244 44.6135C209.91 44.5659 210.576 44.5263 211.242 44.4866C211.242 46.9843 211.242 49.482 211.25 51.9876C211.616 52.0388 212.023 52.0427 212.435 52.0467C213.809 52.0601 215.24 52.074 215.405 53.843H209.182ZM202.703 49.7991C203.503 49.8943 204.312 49.9894 205.121 50.0766C204.788 48.6256 204.423 47.1825 204.003 45.7632C203.442 47.0323 203.081 48.3855 202.722 49.7252L202.703 49.7991ZM110.551 44.3442L108.767 44.6138C108.512 47.2608 108.574 49.9258 108.636 52.5828L108.636 52.5833L108.636 52.5838L108.636 52.5843L108.637 52.5848C108.646 52.9834 108.655 53.3817 108.663 53.7798H108.664C110.654 53.7877 112.644 53.7957 114.626 53.7322C114.727 51.9631 113.401 52.0284 112.104 52.0923C111.558 52.1191 111.018 52.1458 110.59 52.0354C110.606 49.4664 110.614 46.9053 110.551 44.3442ZM164.658 44.2659C167.157 44.2545 168.097 46.2675 169.022 48.2475C169.379 49.0133 169.735 49.7741 170.177 50.411C170.261 49.3826 170.29 48.3542 170.318 47.3271V47.327V47.3268V47.3267V47.3264C170.343 46.4213 170.368 45.5172 170.431 44.6148C170.637 44.6272 170.952 44.6438 171.264 44.6603C171.553 44.6755 171.838 44.6906 172.032 44.702C172.163 46.6898 172.145 48.681 172.127 50.6734V50.6735V50.6736V50.6737V50.6745V50.6752V50.676C172.118 51.6948 172.109 52.714 172.12 53.7332C171.533 53.7412 170.359 53.765 169.78 53.7808C168.829 51.5607 167.751 49.3881 166.45 47.3583C166.379 49.1308 166.355 50.898 166.332 52.6686L166.332 52.6737L166.332 52.6786C166.326 53.067 166.321 53.4555 166.315 53.8443H164.65L164.645 52.8821C164.63 50.0088 164.615 47.1406 164.658 44.2659ZM221.47 44.5342C219.131 44.5421 216.792 44.5421 214.453 44.5262L214.342 46.0804C214.675 46.0883 215.176 46.1041 215.678 46.12L215.678 46.12C216.179 46.1359 216.681 46.1517 217.014 46.1596C217.014 48.7207 217.014 51.2818 217.037 53.8429H218.933C218.933 51.2739 218.94 48.7049 218.948 46.1359C219.262 46.1319 219.731 46.124 220.201 46.116L220.201 46.116L220.201 46.116C220.671 46.1081 221.141 46.1002 221.454 46.0962L221.47 44.5342ZM222.776 44.813C223.22 44.6782 224.1 44.4086 224.536 44.2659L224.608 48.1828C225.166 48.1749 225.725 48.1689 226.286 48.1629C226.842 48.157 227.398 48.1511 227.954 48.1432C227.977 46.9062 228.017 45.6772 228.065 44.4482C228.532 44.5196 229.476 44.6702 229.944 44.7495V53.8442H228.049C228.017 52.4884 227.985 51.1406 227.954 49.7927V49.7924C227.526 49.7924 226.886 49.7905 226.245 49.7885L226.244 49.7885C225.6 49.7865 224.953 49.7845 224.52 49.7845L224.539 50.2512C224.588 51.4452 224.636 52.6447 224.734 53.8442H222.665C222.667 52.9832 222.655 52.1216 222.643 51.2601C222.613 49.1066 222.583 46.9537 222.776 44.813ZM149.201 51.298C148.369 51.972 148.171 52.8204 148.615 53.8433H150.716C150.64 53.6111 150.59 53.3537 150.539 53.0944C150.377 52.2641 150.21 51.4128 149.201 51.298Z" fill="#7C9A97"/>
</svg>
