<svg width="76" height="61" viewBox="0 0 76 61" fill="none" xmlns="http://www.w3.org/2000/svg">
<path d="M11.5233 0.880221C11.4332 0.921798 11.3431 0.963347 11.2514 0.999061C10.9278 1.13156 10.6087 1.27429 10.2896 1.41703C9.89529 1.59341 9.50092 1.76981 9.09799 1.92695L8.94254 1.99669C8.45524 2.21545 7.96776 2.43428 7.4677 2.62165C7.19556 2.73761 6.9243 2.85543 6.65304 2.97325C6.23955 3.15286 5.82607 3.33246 5.40953 3.50542C5.36231 3.52734 5.31423 3.54811 5.26608 3.56891C5.10497 3.63851 4.94292 3.70852 4.80867 3.82336C4.73842 3.92293 4.73589 4.04566 4.73345 4.16463C4.7328 4.19627 4.73215 4.22764 4.73024 4.25824C4.73339 4.64514 4.73392 5.03186 4.73444 5.41849C4.73497 5.80516 4.73549 6.19174 4.73864 6.57832C4.74748 6.82132 4.68779 7.05386 4.62807 7.28654C4.5742 7.49643 4.5203 7.70642 4.51665 7.92429C4.50705 8.23759 4.50933 8.55089 4.51162 8.86432C4.51333 9.09943 4.51505 9.33468 4.51175 9.56999C4.54697 9.58686 4.582 9.60485 4.61713 9.62289C4.73219 9.68196 4.84836 9.7416 4.97604 9.76467C5.08176 9.74879 5.1706 9.68717 5.25851 9.6262C5.29463 9.60115 5.3306 9.5762 5.36751 9.55458C5.36635 9.30772 5.36867 9.06086 5.371 8.81395C5.37428 8.46479 5.37757 8.11553 5.37101 7.76603C5.36955 7.61132 5.31455 7.46929 5.2595 7.32714C5.20865 7.19584 5.15776 7.06444 5.14902 6.92287C5.13793 6.72423 5.14138 6.52559 5.14483 6.32695C5.14704 6.19925 5.14926 6.07155 5.14762 5.94385C5.14938 5.74573 5.14802 5.54754 5.14666 5.34937C5.14371 4.91781 5.14075 4.48634 5.17002 4.05586C5.61722 4.07275 6.04448 4.19927 6.47039 4.32538C6.57404 4.35607 6.67764 4.38675 6.78141 4.41581C6.93243 4.45903 7.08363 4.50157 7.23482 4.54412C7.51962 4.62426 7.80458 4.70445 8.08816 4.78907L8.1858 4.81681C8.44219 4.89001 8.70055 4.96378 8.96773 4.97745C9.18735 4.96675 9.40075 4.91025 9.6125 4.85418L9.68414 4.83529C10.7717 4.53976 11.9118 4.44802 13.0337 4.55237C13.557 4.59037 14.0673 4.71296 14.5766 4.83532C14.7243 4.8708 14.8719 4.90626 15.0197 4.93963C15.3287 5.02212 15.6367 4.92386 15.9326 4.82943C15.9733 4.81645 16.0138 4.80352 16.054 4.79117C16.1836 4.7543 16.3131 4.71708 16.4426 4.67987C16.9525 4.53336 17.4624 4.38682 17.9777 4.26174C18.1111 4.21967 18.2481 4.1857 18.3854 4.15169C18.7187 4.06906 19.0532 3.98616 19.3384 3.78624C19.157 3.67296 18.9624 3.58454 18.768 3.49629L18.7096 3.46971C18.328 3.31845 17.9523 3.15274 17.5766 2.98705C17.4166 2.91646 17.2565 2.84587 17.0961 2.77641C16.9713 2.72394 16.8462 2.67227 16.7211 2.62059C16.3369 2.46192 15.9525 2.30317 15.5785 2.12094L14.7157 1.74664C14.027 1.44797 13.3376 1.14898 12.6492 0.849198C12.4797 0.770765 12.306 0.692331 12.1191 0.669922C11.9087 0.702363 11.7158 0.791359 11.5233 0.880221Z" fill="#7C9A97"/>
<path fill-rule="evenodd" clip-rule="evenodd" d="M11.7661 4.85489C11.3298 4.85209 10.8942 4.90111 10.4713 5.00266C10.3918 5.02231 10.3117 5.04092 10.2315 5.05957C9.85146 5.14788 9.46825 5.23693 9.1323 5.44104C9.15261 5.79921 9.14918 6.15828 9.14575 6.51725C9.14066 7.04966 9.13557 7.58188 9.20793 8.11057C9.22113 8.22306 9.2332 8.33603 9.24529 8.44917C9.30565 9.01426 9.3665 9.58381 9.57069 10.1176C9.62604 10.2693 9.69892 10.4132 9.77181 10.5572C9.84093 10.6937 9.91006 10.8302 9.96425 10.9734C10.0391 11.1927 10.0497 11.4222 10.0604 11.6519C10.0666 11.7875 10.0729 11.9231 10.0924 12.0567C10.094 12.09 10.0971 12.124 10.1003 12.1584C10.1128 12.2937 10.1258 12.4342 10.0448 12.5497C9.74479 12.6766 9.42272 12.7181 9.10127 12.7596C8.96124 12.7776 8.82133 12.7957 8.68341 12.8208C8.25483 12.8999 7.82415 12.9615 7.39347 13.0225C7.51252 13.2528 7.65398 13.4727 7.83045 13.6646C8.24215 14.1213 8.63247 14.5965 9.02275 15.0717C9.17948 15.2625 9.33625 15.4534 9.49436 15.643C9.7134 15.8885 9.92327 16.1421 10.1332 16.3958C10.3454 16.6523 10.5576 16.9088 10.7794 17.157C10.9235 17.3223 11.0619 17.4931 11.2005 17.6639C11.5179 18.0552 11.8355 18.4469 12.2206 18.774C12.6989 18.1662 13.1839 17.5637 13.6689 16.9612C14.1806 16.3254 14.6928 15.6891 15.1969 15.047C15.3958 14.7937 15.5977 14.5428 15.7997 14.2918C16.1979 13.7971 16.5963 13.3022 16.9707 12.7893C16.7627 12.7206 16.5456 12.6779 16.3257 12.6863C16.2178 12.6872 16.1097 12.6888 16.0017 12.6903C15.4249 12.6987 14.8476 12.707 14.2767 12.6121C14.2729 12.5487 14.2687 12.4852 14.2645 12.4217C14.247 12.157 14.2295 11.8916 14.2403 11.6268C14.2424 11.3438 14.3628 11.0819 14.4798 10.8305C14.7935 10.1933 14.9847 9.49856 15.082 8.79616C15.0915 8.59227 15.108 8.38876 15.1246 8.1852C15.1473 7.90635 15.17 7.62735 15.1745 7.34725C15.177 7.20726 15.1756 7.06694 15.1742 6.92657C15.1706 6.56564 15.167 6.20413 15.2305 5.84721C15.217 5.807 15.2046 5.76621 15.1922 5.72536C15.1515 5.59195 15.1107 5.45794 15.033 5.3416C14.9396 5.27435 14.8282 5.2415 14.7182 5.20911C14.6897 5.20071 14.6611 5.19227 14.6331 5.18333C14.2634 5.08389 13.8908 4.98935 13.5127 4.92562C13.0472 4.84993 12.5753 4.85215 12.1044 4.85437C11.9916 4.8549 11.8788 4.85543 11.7661 4.85489ZM10.0983 6.83452C10.113 6.82776 10.1275 6.82109 10.1414 6.81432C10.2426 6.78053 10.3431 6.74403 10.4436 6.70753C10.6784 6.62223 10.9133 6.53689 11.1576 6.48588C11.5097 6.46006 11.8628 6.46339 12.2159 6.46673C12.4182 6.46864 12.6206 6.47055 12.8229 6.46698C13.4188 6.45227 13.9917 6.64765 14.5379 6.86544C14.5352 7.03666 14.5369 7.20808 14.5386 7.37955C14.5413 7.64914 14.544 7.91912 14.5295 8.18831C14.4321 9.17922 14.194 10.1891 13.61 11.0133C13.332 11.3978 13.0091 11.8046 12.5357 11.9461C12.0939 12.096 11.6135 11.9069 11.2731 11.6184C10.9783 11.3543 10.7318 11.0399 10.5161 10.7094C10.3487 10.4559 10.2724 10.1575 10.2164 9.86341C10.1899 9.72491 10.1587 9.58749 10.1275 9.45011C10.0836 9.25687 10.0398 9.06364 10.0091 8.86759C9.99118 8.7435 9.9704 8.61917 9.94958 8.49462C9.871 8.02452 9.79188 7.55122 9.86551 7.07623C9.87106 6.93932 9.99013 6.88442 10.0983 6.83452ZM11.9975 12.637C12.2552 12.6447 12.5167 12.6526 12.7696 12.5946C13.0263 12.5185 13.2476 12.3676 13.4676 12.2174C13.5393 12.1685 13.6109 12.1197 13.6835 12.0735C13.755 12.3663 13.7872 12.6723 13.7136 12.9685C13.6268 13.4377 13.4167 13.9167 13.0049 14.1884C12.6912 14.4251 12.2766 14.4076 11.9048 14.381C11.465 14.3586 11.1169 14.0295 10.8914 13.6772C10.6232 13.2052 10.5686 12.6415 10.626 12.1093C10.7733 12.1676 10.914 12.2465 11.0548 12.3254C11.3249 12.4769 11.5952 12.6285 11.9125 12.6345L11.9975 12.637Z" fill="#7C9A97"/>
<path fill-rule="evenodd" clip-rule="evenodd" d="M19.1923 12.7667C19.2856 12.7671 19.3789 12.7675 19.4722 12.7675C21.6781 12.7672 23.884 12.7672 26.09 12.7672C28.2959 12.7672 30.5018 12.7672 32.7078 12.7668C32.8202 12.767 32.9326 12.7667 33.0449 12.7663C33.408 12.7652 33.771 12.7641 34.1336 12.7801C34.1459 13.3735 34.1441 13.967 34.1423 14.5604C34.1412 14.9095 34.1402 15.2588 34.142 15.6079C34.1403 15.8853 34.1415 16.1627 34.1428 16.4401C34.1451 16.963 34.1475 17.486 34.1301 18.0086C33.7654 18.0242 33.4007 18.0232 33.036 18.0223C32.9266 18.022 32.8172 18.0217 32.7078 18.0219C31.2277 18.0216 29.7475 18.0217 28.2674 18.0217C26.2929 18.0219 24.3182 18.022 22.3434 18.0212C22.2477 18.0224 22.1517 18.021 22.0556 18.0196C21.8335 18.0163 21.6107 18.0131 21.3903 18.0429C21.0493 18.115 20.7103 18.3916 20.7012 18.7628C20.6877 18.9933 20.691 19.224 20.6942 19.4548C20.6962 19.5964 20.6982 19.7382 20.6963 19.8798C20.6949 24.6814 20.6953 29.483 20.6958 34.2845C20.6964 41.1858 20.6971 48.0872 20.6921 54.9884C17.7812 54.9945 14.8703 54.9936 11.9594 54.9927C10.1685 54.9921 8.37763 54.9915 6.58672 54.9926C6.38435 54.9938 6.18197 54.9931 5.97959 54.9923C5.58321 54.9909 5.18684 54.9894 4.79046 55.0024C4.75335 54.5703 4.74144 54.1376 4.74915 53.7041C4.7502 48.0675 4.75006 42.431 4.74993 36.7945L4.74985 31.1531C4.75357 30.9828 4.76741 30.8129 4.78122 30.6434C4.78558 30.5899 4.78993 30.5364 4.79396 30.4829C5.23094 30.4838 5.66792 30.4837 6.10489 30.4836C6.70575 30.4835 7.30662 30.4833 7.90748 30.4857C7.89528 30.7813 7.84647 31.0725 7.79764 31.3638C7.78204 31.4569 7.76643 31.5501 7.75202 31.6433L7.81099 31.6487C8.03511 31.6691 8.25944 31.6895 8.47963 31.7372C9.13112 31.8841 9.78485 32.0207 10.4386 32.1573C11.1521 32.3063 11.8664 32.4555 12.5771 32.6181C12.8649 32.7001 13.1639 32.7372 13.4636 32.7414L13.5106 32.5356C13.587 32.2023 13.6635 31.8687 13.7192 31.5313C13.7603 31.3263 13.8134 31.124 13.8664 30.9217C13.9237 30.7033 13.981 30.4848 14.0232 30.263C14.0461 30.141 14.0738 30.0194 14.1014 29.8978C14.1766 29.5669 14.2519 29.2355 14.234 28.894C14.1833 28.9101 14.1267 28.9165 14.0698 28.923C13.9589 28.9355 13.8467 28.9482 13.7746 29.0333C13.6979 29.2871 13.7016 29.5526 13.7052 29.8167C13.7065 29.9047 13.7077 29.9924 13.7059 30.0796C13.0435 30.1608 12.3698 30.1629 11.7073 30.081C11.6793 29.8331 11.6667 29.5831 11.6688 29.3338C11.6717 28.8004 11.6716 28.267 11.6715 27.7337C11.6714 27.4967 11.6714 27.2597 11.6716 27.0228C11.6721 26.9039 11.6709 26.7849 11.6698 26.6659C11.6663 26.3027 11.6628 25.9394 11.7066 25.5781C12.2409 25.5304 12.7787 25.5199 13.3145 25.5367C13.4988 25.5411 13.6594 25.6217 13.8202 25.7024C13.9709 25.778 14.1216 25.8537 14.2921 25.8666C14.4952 25.8834 14.727 25.8694 14.8817 25.7209C15.0057 25.595 15.0393 25.416 15.0709 25.2478L15.0799 25.1999C15.1073 25.0211 15.145 24.844 15.1827 24.6669C15.2502 24.35 15.3176 24.0332 15.3257 23.7076C14.7205 23.5595 14.1103 23.4345 13.5001 23.3096C12.9821 23.2035 12.4639 23.0974 11.9489 22.9772C11.6574 22.9256 11.3683 22.8601 11.0791 22.7946C10.6264 22.692 10.1734 22.5893 9.71145 22.5402C9.69184 22.6175 9.66747 22.6936 9.64311 22.7696C9.60482 22.8891 9.56656 23.0085 9.54688 23.1326C9.47884 23.4718 9.40108 23.8087 9.32334 24.1456C9.23945 24.509 9.15558 24.8724 9.08398 25.2384C8.59111 25.241 8.09823 25.2388 7.60529 25.2366C7.00773 25.2339 6.41007 25.2313 5.8122 25.237L5.77763 25.2358C5.56985 25.2289 5.33384 25.221 5.18263 25.0605C5.05991 24.9193 5.06052 24.7289 5.06109 24.5497C5.06119 24.5193 5.06129 24.4892 5.06078 24.4597C5.08459 23.4982 5.13221 22.5353 5.25546 21.5808C5.28711 21.3372 5.28934 21.0917 5.29157 20.8464C5.29437 20.538 5.29717 20.2298 5.3584 19.926C5.42983 19.5499 5.43894 19.1661 5.43684 18.7845C5.34246 18.7845 5.2476 18.7845 5.15322 18.7838C5.13673 19.2737 5.08605 19.7609 5.03537 20.248C5.00209 20.5678 4.96882 20.8876 4.94523 21.2082C4.96283 21.5707 4.91815 21.9285 4.87347 22.2863C4.83106 22.626 4.78865 22.9657 4.79957 23.3091C4.80193 23.5223 4.7828 23.7349 4.76369 23.9474C4.73741 24.2395 4.71115 24.5314 4.74074 24.8245C4.76945 25.1558 5.04397 25.4247 5.3605 25.4961C5.52501 25.5303 5.69299 25.5328 5.86069 25.5352C5.89215 25.5356 5.92364 25.5361 5.95506 25.5367C6.66316 25.5348 7.37141 25.535 8.07975 25.5351C8.88944 25.5353 9.69929 25.5355 10.5091 25.5325C10.7619 25.5319 11.0129 25.5603 11.2638 25.5888L11.3116 25.5942C11.3165 27.0837 11.3165 28.5732 11.313 30.0628C11.0714 30.1083 10.8263 30.1433 10.5798 30.1405C9.96407 30.1352 9.34833 30.1356 8.73273 30.136C8.29676 30.1363 7.86076 30.1366 7.42498 30.1349C7.19342 30.1309 6.9631 30.1509 6.73286 30.1709C6.47431 30.1933 6.21578 30.2157 5.95576 30.2042C5.64859 30.1966 5.341 30.1994 5.03339 30.2023C4.46648 30.2075 3.89954 30.2128 3.33525 30.1524C2.77221 30.1328 2.19797 30.0551 1.68185 29.8177C1.20635 29.5515 0.72034 29.2196 0.490643 28.7056C0.370345 28.4713 0.373121 28.2044 0.375794 27.9474L0.376495 27.8659C0.381816 27.6321 0.384001 27.3982 0.386186 27.1644C0.389464 26.8136 0.39274 26.4628 0.406607 26.1124C0.428737 25.8449 0.449618 25.5773 0.470499 25.3096C0.487944 25.086 0.505388 24.8624 0.523557 24.639C0.528899 24.2548 0.551756 23.8717 0.574608 23.4886C0.584707 23.3193 0.594805 23.15 0.603391 22.9807C0.618349 22.8135 0.639797 22.6469 0.66125 22.4803C0.697046 22.2023 0.732856 21.9242 0.738548 21.6431C0.745363 21.3719 0.786018 21.1038 0.826639 20.836C0.844454 20.7185 0.862262 20.601 0.877207 20.4834C0.983652 19.4946 1.17693 18.5177 1.38772 17.5464C1.54879 16.7949 1.8086 16.0638 2.16225 15.381C2.37304 14.9826 2.70218 14.6646 3.03482 14.367C3.49281 13.9657 4.08176 13.7683 4.65811 13.6051L4.7798 13.5729C5.31188 13.4316 5.8518 13.2883 6.40745 13.3215C6.92787 13.9748 7.46227 14.6169 7.99662 15.2589C8.22797 15.5369 8.45952 15.8151 8.68971 16.0939C8.8809 16.345 9.08573 16.5847 9.29057 16.8244C9.49541 17.064 9.70024 17.3037 9.89142 17.5548C10.0867 17.7916 10.2834 18.0273 10.4801 18.2631C10.7609 18.5996 11.0419 18.9364 11.3186 19.2761C11.5875 19.6571 11.8705 20.0282 12.1912 20.3672C12.9692 19.4176 13.7311 18.4546 14.4798 17.4812C14.6694 17.2391 14.8624 16.9996 15.0554 16.76C15.3207 16.4308 15.5859 16.1016 15.8425 15.7655C16.0358 15.4938 16.2459 15.2354 16.4623 14.9819C16.6711 14.7063 16.8866 14.4359 17.1021 14.1656C17.4628 13.7132 17.8234 13.2608 18.1521 12.7843C18.4986 12.7634 18.8456 12.765 19.1923 12.7667ZM13.7571 26.1425C13.6842 26.9464 13.6849 27.7581 13.755 28.562C14.1268 28.6103 14.5071 28.6419 14.8803 28.5858C15.0466 28.5588 15.1239 28.3983 15.1908 28.2594L15.2081 28.2238C15.3404 27.9059 15.4399 27.5683 15.4532 27.2224C15.4603 27.0324 15.4589 26.8425 15.4575 26.6525C15.4567 26.5449 15.4559 26.4371 15.4567 26.3295L15.4378 26.3177C15.2797 26.2189 15.115 26.116 14.9245 26.1005C14.6934 26.0793 14.4626 26.098 14.2318 26.1168C14.0736 26.1297 13.9154 26.1425 13.7571 26.1425Z" fill="#7C9A97"/>
<path d="M20.6914 55.4961C15.3733 55.4898 10.056 55.4912 4.73794 55.4954C4.73948 55.8743 4.73886 56.2532 4.73825 56.6322C4.73718 57.2914 4.73612 57.951 4.74635 58.6104C4.75008 58.8239 4.7494 59.0376 4.74873 59.2513C4.74725 59.7187 4.74577 60.186 4.79046 60.6517C5.19324 60.6706 5.59665 60.6685 6.00005 60.6664C6.19563 60.6654 6.39122 60.6643 6.58672 60.6657C8.3032 60.6668 10.0198 60.6662 11.7364 60.6657C14.5265 60.6648 17.3167 60.6639 20.1066 60.6699C20.3083 60.658 20.5072 60.6139 20.7033 60.5649C20.69 59.593 20.6918 58.6211 20.6935 57.6494C20.6948 56.9317 20.6962 56.2136 20.6914 55.4961Z" fill="#7C9A97"/>
<path fill-rule="evenodd" clip-rule="evenodd" d="M34.6523 12.7816C34.6041 12.7826 34.556 12.7835 34.5078 12.7844C34.4832 13.5797 34.4854 14.3756 34.4876 15.1714C34.4887 15.5738 34.4899 15.9761 34.4875 16.3783C34.4907 16.5267 34.4898 16.6754 34.489 16.8243C34.4866 17.2262 34.4842 17.6284 34.5624 18.024C35.1544 18.0209 35.7464 18.0216 36.3384 18.0223C36.4229 18.0224 36.5074 18.0225 36.5919 18.0226C36.6547 17.576 36.6515 17.1261 36.6484 16.676C36.6467 16.4338 36.6449 16.1915 36.6535 15.9497C36.9061 15.9235 37.1595 15.9238 37.4129 15.9241C37.6196 15.9244 37.8263 15.9246 38.0324 15.9105C38.3146 15.8846 38.4981 15.6248 38.5737 15.3734C38.6371 15.1664 38.6748 14.9536 38.7125 14.7408C38.7551 14.4999 38.7977 14.2591 38.8777 14.0267C39.1366 14.0278 39.3957 14.0282 39.6549 14.0285C40.025 14.0289 40.3953 14.0294 40.7657 14.0323C41.0136 14.0316 41.3231 14.0141 41.4604 13.7704C41.5119 13.6407 41.5123 13.4999 41.5127 13.3606C41.5128 13.3051 41.513 13.2497 41.5164 13.1954L41.5033 13.1888C41.2944 13.0837 41.0772 12.9743 40.8371 12.9804C40.2529 12.9804 39.6685 12.9812 39.0842 12.9819C38.3833 12.9828 37.6824 12.9836 36.982 12.9832C36.8384 12.9949 36.7232 12.9158 36.6113 12.8389C36.5885 12.8231 36.5657 12.8075 36.5429 12.7928C35.9131 12.7576 35.2822 12.7696 34.6523 12.7816ZM36.6605 14.7503C36.6546 14.2743 36.6487 13.7985 36.6983 13.325C37.0055 13.3066 37.3127 13.3073 37.6205 13.308L37.6802 13.3082C38.2211 13.316 38.7621 13.3146 39.3031 13.3131C39.9239 13.3115 40.5447 13.3098 41.1655 13.3222C41.1571 13.4419 41.155 13.5617 41.1592 13.6821C40.5564 13.7611 39.949 13.7517 39.342 13.7423C39.0929 13.7384 38.844 13.7345 38.5954 13.7368C38.4778 14.1632 38.4043 14.5988 38.3475 15.0372C38.3174 15.262 38.2117 15.5631 37.9442 15.5757C37.6669 15.5944 37.3893 15.5891 37.1118 15.5839C36.9611 15.5811 36.8104 15.5783 36.6598 15.5792C36.6673 15.3032 36.6639 15.0267 36.6605 14.7503Z" fill="#7C9A97"/>
<path d="M68.5316 3.57424C68.7004 3.41031 68.8908 3.24223 69.1348 3.21526C69.7473 3.14056 70.3751 3.15198 70.9773 3.29619C70.4261 3.90823 69.8436 4.48975 69.261 5.07129C68.859 5.4726 68.457 5.87391 68.0653 6.28525L68.0817 6.29371C68.3072 6.4105 68.541 6.53162 68.8034 6.50832C69.7073 6.49976 70.6113 6.49995 71.5153 6.50015C71.8167 6.50021 72.118 6.50027 72.4194 6.50001C72.9722 6.51662 73.5445 6.53633 74.0653 6.74487C74.8363 7.08206 75.2285 7.93385 75.3314 8.7317C75.3593 9.23168 75.3532 9.73284 75.347 10.234C75.3432 10.5449 75.3394 10.8561 75.3437 11.1667C74.7521 11.2729 74.1532 11.2661 73.5548 11.2593C73.3463 11.2569 73.1379 11.2546 72.93 11.257C71.5918 11.258 70.2537 11.2578 68.9156 11.2575C67.5774 11.2573 66.2393 11.257 64.9011 11.258C64.7389 11.2576 64.5765 11.2589 64.4141 11.2602C63.8678 11.2646 63.3212 11.2691 62.7776 11.2051C62.6959 10.1044 62.7046 9.00054 62.7134 7.89669C62.7188 7.20677 62.7243 6.51686 62.7076 5.82771C62.711 5.74897 62.7106 5.66734 62.7101 5.58464C62.7084 5.25884 62.7066 4.91566 62.9331 4.66673C63.3366 4.21853 63.7874 3.80042 64.3196 3.51095C64.3507 4.4053 64.3443 5.3005 64.3378 6.19559C64.33 7.28065 64.3221 8.36559 64.3813 9.44862C64.916 9.51263 65.4544 9.50893 65.9926 9.50523C66.1433 9.50419 66.2945 9.50315 66.4451 9.5036C67.4809 9.49649 68.5169 9.50138 69.5529 9.50627C70.9344 9.51279 72.3162 9.51931 73.6978 9.49738C73.6946 9.41904 73.6956 9.33755 73.6966 9.25495C73.7003 8.9437 73.7042 8.61655 73.4837 8.38206C73.2728 8.15755 72.9525 8.15466 72.6672 8.15209L72.6294 8.15173C71.5121 8.16107 70.3944 8.15977 69.2768 8.15847C68.1592 8.15717 67.0417 8.15588 65.9243 8.16521C65.8739 8.16247 65.8223 8.16171 65.7702 8.16093C65.5663 8.15789 65.356 8.15475 65.1863 8.03242C65.0031 7.7637 65.0206 7.40057 65.0957 7.09762C65.2505 6.85282 65.4606 6.65526 65.6702 6.45822C65.752 6.38138 65.8337 6.30454 65.912 6.22508C66.5067 5.6539 67.0814 5.06213 67.6563 4.47014C67.947 4.17083 68.2382 3.87103 68.5316 3.57424Z" fill="#7C9A97"/>
<path d="M59.5718 4.88011C59.9413 4.48274 60.353 4.13103 60.7895 3.81148C61.2084 4.13414 61.5769 4.51387 61.9114 4.92265C61.5934 5.33558 61.2238 5.70389 60.8389 6.05249C60.2758 5.84292 59.8867 5.37293 59.5718 4.88011Z" fill="#7C9A97"/>
<path d="M48.3283 5.82511C48.4467 5.7307 48.6207 5.73588 48.7432 5.822C49.0042 5.99898 49.2166 6.23388 49.4281 6.46781C49.4968 6.54382 49.5654 6.61972 49.6356 6.69351C49.6232 6.79415 49.6119 6.89582 49.6016 6.9975C49.3011 7.27866 49.017 7.57643 48.7555 7.89494C48.2707 7.88249 47.9001 7.52351 47.6407 7.14586C47.5516 7.01448 47.5459 6.85727 47.5402 6.70263C47.5381 6.64478 47.536 6.5873 47.5296 6.53165C47.6204 6.45176 47.7079 6.36777 47.7954 6.28375C47.9648 6.12118 48.1343 5.95849 48.3283 5.82511Z" fill="#7C9A97"/>
<path fill-rule="evenodd" clip-rule="evenodd" d="M53.2095 7.01567C53.5945 6.67432 54.106 6.49483 54.6166 6.48446C55.0602 6.47408 55.5296 6.46475 55.9362 6.67329C56.4889 6.95653 56.9398 7.45557 57.1343 8.05213C57.2993 8.50992 57.3263 9.0002 57.3527 9.48179L57.3536 9.49739C57.7725 9.58039 58.1956 9.64886 58.6238 9.67169C59.0882 9.68076 59.5478 9.60418 60.0055 9.52792L60.2028 9.49531C60.2656 9.01183 60.3181 8.52731 60.3191 8.03865C60.687 7.65855 61.0788 7.30356 61.4703 6.94871C61.6067 6.82512 61.7432 6.70141 61.8785 6.5768C61.9934 7.05194 61.985 7.53862 61.9766 8.02424C61.9743 8.15682 61.972 8.28932 61.9722 8.42149C61.9716 8.70393 61.9723 8.98647 61.9729 9.26907V9.273C61.9745 9.93778 61.9761 10.6033 61.9609 11.2684C61.2039 11.2833 60.4467 11.2814 59.6894 11.2795C58.92 11.2775 58.1488 11.2756 57.3793 11.2912L57.3476 11.4046C57.2443 11.7748 57.1408 12.1455 57.0026 12.5051C56.7576 13.1266 56.3325 13.6931 55.7519 14.0303C55.3104 14.2845 54.8091 14.4359 54.3016 14.466C54.0678 14.4904 53.893 14.3186 53.7368 14.1649L53.6881 14.1174C53.6206 14.0444 53.5523 13.9719 53.4839 13.8993C53.1704 13.5667 52.8557 13.2329 52.6166 12.8402C52.8061 12.8262 52.9965 12.8228 53.1869 12.8195C53.5159 12.8137 53.8448 12.808 54.1688 12.7469C54.5929 12.668 54.9995 12.4387 55.2496 12.0797C55.358 11.9087 55.4071 11.7121 55.4558 11.5175C55.47 11.4607 55.4842 11.4041 55.4998 11.3483C54.8032 11.2623 54.1016 11.2709 53.4005 11.2795C53.0951 11.2833 52.7886 11.287 52.4838 11.2829C52.4015 10.4011 52.3562 9.50984 52.4354 8.62588C52.4859 8.0179 52.7586 7.42548 53.2095 7.01567ZM55.0465 8.20824C54.8108 8.21087 54.5663 8.2136 54.4002 8.39821C54.1835 8.60902 54.1994 8.91082 54.2147 9.20166C54.2203 9.30731 54.2258 9.41152 54.22 9.50939C54.6719 9.59343 55.1351 9.58512 55.588 9.50004C55.6199 9.04147 55.5551 8.57563 55.2751 8.19901C55.202 8.20651 55.1247 8.20737 55.0465 8.20824Z" fill="#7C9A97"/>
<path d="M50.1266 7.96768C50.3896 7.73891 50.6356 7.49172 50.8816 7.24454C51.1276 6.99735 51.3737 6.75017 51.6366 6.5214C51.7561 7.28604 51.7931 8.06417 51.7313 8.83712C51.6869 9.25267 51.7058 9.66846 51.7246 10.0841C51.7451 10.534 51.7655 10.9838 51.7056 11.433C51.7262 12.8616 50.5332 14.1315 49.1663 14.3587C48.4776 14.4438 47.7427 14.4293 47.1107 14.1087C46.3541 13.7238 45.7108 13.0463 45.4967 12.2049C45.3731 11.7901 45.3742 11.3549 45.3752 10.9256L45.3752 10.9153C45.3788 10.4957 45.3789 10.0762 45.3789 9.65674C45.379 9.1207 45.379 8.58465 45.3865 8.04861L45.5537 7.87155C45.9848 7.41382 46.4174 6.95453 46.9316 6.58883C47.0118 6.91461 47.0602 7.24869 47.0551 7.58588C47.0466 8.14064 47.0469 8.69544 47.0471 9.25021C47.0474 9.77029 47.0476 10.2904 47.0407 10.8105C47.0412 10.8485 47.0414 10.8867 47.0416 10.925C47.043 11.1828 47.0444 11.446 47.1457 11.6872C47.3731 12.2101 47.8518 12.651 48.4334 12.7029C49.0736 12.7257 49.7066 12.3055 49.928 11.6965C50.0875 11.2472 50.1071 10.7627 50.1122 10.2907C50.1118 10.1298 50.1109 9.96881 50.1099 9.80807C50.1065 9.19426 50.103 8.58097 50.1266 7.96768Z" fill="#7C9A97"/>
<path fill-rule="evenodd" clip-rule="evenodd" d="M51.6238 18.9173C51.8995 18.6278 52.1838 18.3294 52.5817 18.2528C53.259 18.2113 53.9549 18.1812 54.6198 18.3514C54.3269 18.7114 53.993 19.0315 53.659 19.3516C53.4579 19.5444 53.2567 19.7372 53.0645 19.9388C52.9292 20.0786 52.7915 20.2161 52.6537 20.3536C52.3397 20.6671 52.0255 20.9807 51.7408 21.3218C52.0764 21.4291 52.4234 21.4413 52.7709 21.4535C53.0384 21.4629 53.3061 21.4723 53.5689 21.5251L53.6461 21.5399C54.0385 21.6145 54.4511 21.6931 54.765 21.9588C55.0995 22.241 55.4093 22.5896 55.5256 23.0233C55.5995 23.3108 55.655 23.6026 55.7104 23.8945C55.7484 24.0946 55.7864 24.2947 55.8303 24.4934C55.9129 24.4831 55.996 24.4731 56.0792 24.463L56.3059 24.4353C56.3073 24.2885 56.3049 24.1415 56.3025 23.9946C56.2982 23.7252 56.2938 23.4557 56.3131 23.1872C56.3139 23.0386 56.4236 22.942 56.528 22.8501C56.5556 22.8258 56.5828 22.8018 56.6075 22.7774C56.6655 22.7271 56.7234 22.6765 56.7813 22.6259C57.1189 22.3306 57.458 22.034 57.8375 21.7949C57.9971 22.3124 57.9872 22.8466 57.9774 23.3821C57.9698 23.7968 57.9621 24.2122 58.0331 24.6211L58.0897 24.425C58.241 24.4986 58.3934 24.5723 58.5457 24.6449C58.5788 24.4652 58.6033 24.2828 58.6279 24.1002C58.6905 23.6346 58.7534 23.1672 58.9574 22.7411C59.2137 22.24 59.6553 21.8302 60.1834 21.6372C60.6099 21.4556 61.0761 21.4421 61.5331 21.4289L61.6111 21.4266C61.6514 21.3539 61.6869 21.2762 61.7227 21.1981C61.8165 20.993 61.9119 20.7846 62.099 20.6547C62.5457 20.5509 63.0099 20.6391 63.4525 20.7262C63.4766 20.7819 63.497 20.8406 63.5176 20.8997C63.571 21.053 63.6252 21.2086 63.7449 21.3187C63.9918 21.4051 64.2501 21.4495 64.5082 21.4939C64.8418 21.5512 65.1753 21.6085 65.4834 21.7565C66.0948 22.0522 66.5622 22.6539 66.6507 23.3377C66.7738 24.1945 66.7034 25.0598 66.6334 25.9191C66.6221 26.0579 66.6107 26.1987 66.6003 26.3371C63.7291 26.3426 60.8584 26.3417 57.9876 26.3408C56.5522 26.3403 55.1167 26.3399 53.6811 26.3402C53.5453 26.3417 53.4093 26.3395 53.2733 26.3374C52.931 26.332 52.5879 26.3267 52.2493 26.3786C52.0712 26.4035 51.8602 26.4626 51.7881 26.6504C51.7416 26.7959 51.7113 26.9465 51.6811 27.097C51.6336 27.3329 51.5862 27.5689 51.4762 27.7855C51.1561 28.3903 50.6878 28.9392 50.0681 29.2432C49.4083 29.5575 48.6497 29.7515 47.9271 29.5606C46.5571 29.2743 45.3754 28.0147 45.3795 26.5685C45.3774 25.4438 45.3795 24.3191 45.3857 23.1945C45.4678 23.1132 45.5493 23.0309 45.631 22.9485C46.061 22.5146 46.4934 22.0783 47.0254 21.7731C47.0553 22.615 47.0506 23.4575 47.0458 24.3001C47.0418 24.9922 47.0379 25.6845 47.0532 26.3765C47.083 27.1578 47.7737 27.8176 48.5344 27.8726C48.9678 27.857 49.3723 27.6122 49.6564 27.2926C49.832 27.114 49.8457 26.8673 49.8589 26.628C49.8628 26.5574 49.8666 26.4874 49.8746 26.4201C49.7056 26.4078 49.5367 26.3935 49.3678 26.3792C49.096 26.3562 48.823 26.3331 48.5509 26.3184C48.4469 25.8028 48.4438 25.2705 48.5509 24.7559C49.8599 24.6553 51.1726 24.6621 52.4846 24.6689C52.7139 24.6701 52.9433 24.6713 53.1726 24.6719C53.2096 24.6696 53.2483 24.6686 53.2877 24.6675C53.5026 24.6617 53.7405 24.6552 53.8622 24.4509C54.0166 24.1895 53.9981 23.7993 53.7552 23.596C53.4721 23.2993 53.0552 23.1955 52.6589 23.2059L52.4046 23.2067C51.1317 23.2106 49.8588 23.2146 48.5859 23.2049L48.5849 23.0226C48.5831 22.6616 48.5812 22.3018 48.5838 21.9412C49.539 21.0437 50.4829 20.1328 51.3743 19.17C51.4586 19.0908 51.5409 19.0044 51.6238 18.9173ZM60.9214 23.1986C60.8869 23.2359 60.8506 23.2731 60.8138 23.3107C60.6201 23.5089 60.4147 23.7191 60.4078 24.012C60.4072 24.0371 60.4061 24.0628 60.405 24.0891C60.3971 24.2841 60.3881 24.5062 60.5478 24.6397C60.8573 24.6992 61.1726 24.6885 61.4868 24.6778C61.5894 24.6743 61.6921 24.6708 61.7943 24.6698C61.8488 24.287 61.8674 23.901 61.8715 23.5151L61.5575 23.2059C61.3455 23.2049 61.1335 23.2028 60.9214 23.1986ZM63.6039 23.2879C63.4855 23.7475 63.4958 24.2299 63.6739 24.674C63.7436 24.6796 63.8136 24.6868 63.8836 24.694C64.0832 24.7146 64.2838 24.7352 64.485 24.7207C64.6626 24.7042 64.8024 24.592 64.9394 24.4823C64.9834 24.447 65.0271 24.4119 65.0717 24.3804L65.0673 24.2474L65.0673 24.2453C65.0628 24.1076 65.0583 23.9691 65.0521 23.8326C65.0133 23.79 64.9752 23.7458 64.9368 23.7014C64.7808 23.5209 64.6216 23.3365 64.4026 23.2391C64.191 23.1851 63.9747 23.2235 63.7622 23.2612C63.7092 23.2706 63.6563 23.28 63.6039 23.2879Z" fill="#7C9A97"/>
<path d="M50.9492 18.4481C51.0768 18.3574 51.2315 18.338 51.3839 18.3188C51.4356 18.3123 51.4869 18.3058 51.5369 18.2966C51.3804 18.5467 51.2188 18.7967 51.0058 19.0021C50.8487 19.1581 50.6907 19.3136 50.5329 19.4688C50.0129 19.9806 49.4923 20.4929 48.9965 21.0284C48.7484 21.294 48.4643 21.5222 48.1689 21.7329C48.1195 21.6156 48.0701 21.4994 48.0207 21.3832C48.4459 20.9309 48.8846 20.492 49.3233 20.0531C49.7097 19.6665 50.0962 19.2798 50.4736 18.8839L50.5192 18.8372C50.6542 18.6986 50.79 18.5591 50.9492 18.4481Z" fill="#7C9A97"/>
<path d="M55.7809 19.7759C56.0958 19.4408 56.4252 19.1191 56.7701 18.8151C57.153 19.144 57.5132 19.4968 57.8591 19.8641C57.8591 19.9813 57.8591 20.0996 57.8601 20.2189C57.5369 20.5426 57.2106 20.8632 56.872 21.1703C56.4695 20.8964 56.1061 20.5706 55.7695 20.221C55.7706 20.0716 55.7747 19.9232 55.7809 19.7759Z" fill="#7C9A97"/>
<path d="M71.8879 19.8116C72.2441 19.5034 72.5961 19.1911 72.9399 18.8706C72.9965 18.9143 73.0543 18.9579 73.1122 19.0016C73.4675 19.2696 73.8341 19.5461 74.0341 19.9537C73.9275 20.3874 73.5615 20.6639 73.2118 20.9281C73.1122 21.0033 73.014 21.0776 72.9234 21.1541L72.8555 21.0901C72.4639 20.7212 72.0582 20.3392 71.8879 19.8116Z" fill="#7C9A97"/>
<path fill-rule="evenodd" clip-rule="evenodd" d="M71.9173 21.7217C72.5143 21.4883 73.1937 21.4737 73.8051 21.6626C74.643 21.9375 75.2493 22.7457 75.3378 23.6224C75.3892 24.2317 75.3764 24.8428 75.3635 25.4536C75.3574 25.7477 75.3512 26.0418 75.3522 26.3355C74.7501 26.3434 74.1478 26.343 73.5455 26.3426C72.9625 26.3422 72.3796 26.3418 71.7969 26.349C71.5112 26.3531 71.2252 26.3492 70.9391 26.3453C70.366 26.3375 69.7914 26.3296 69.2205 26.3863C69.177 26.516 69.136 26.6472 69.0949 26.7786C68.9385 27.2791 68.781 27.7831 68.4834 28.2186C68.0604 28.8587 67.3903 29.3173 66.6451 29.4802L66.6049 29.4885C66.3088 29.5498 65.9536 29.6233 65.7114 29.3941C65.2225 28.9687 64.8221 28.4489 64.4485 27.9208C64.7181 27.885 64.9893 27.8794 65.2605 27.8738C65.4842 27.8692 65.7079 27.8646 65.9307 27.843C66.4474 27.787 66.959 27.4923 67.1855 27.0068C67.3399 26.7194 67.3471 26.3843 67.3501 26.0657C67.3507 25.6646 67.3479 25.2634 67.345 24.8622C67.3427 24.534 67.3403 24.2058 67.3399 23.8776L67.3409 23.823C67.3452 23.5819 67.3496 23.3356 67.4376 23.1099C67.5872 22.8992 67.7817 22.7293 67.9758 22.5597C68.057 22.4888 68.1381 22.4179 68.2158 22.3442C68.4412 22.1294 68.712 21.9748 68.9888 21.8389C69.0706 22.323 69.0633 22.8115 69.0559 23.3003C69.051 23.6234 69.0462 23.9467 69.0671 24.2688C69.0537 24.5769 69.3893 24.7056 69.6414 24.7367C69.8998 24.7595 70.2271 24.7564 70.4083 24.5396C70.4798 24.3415 70.4942 24.1331 70.5085 23.9247C70.5196 23.7643 70.5307 23.6038 70.5678 23.4481C70.7253 22.7073 71.2246 22.0319 71.9173 21.7217ZM72.4 23.4037C72.5662 23.2191 72.8107 23.2164 73.0464 23.2138C73.1246 23.2129 73.2019 23.212 73.275 23.2045C73.555 23.5812 73.6198 24.047 73.5879 24.5056C73.135 24.5907 72.6718 24.599 72.2199 24.5149C72.2257 24.4171 72.2202 24.3129 72.2146 24.2073C72.1993 23.9165 72.1833 23.6146 72.4 23.4037Z" fill="#7C9A97"/>
<path d="M72.545 33.0538C73.4035 32.9086 74.2887 32.8972 75.1441 33.0683C75.1544 33.5881 75.1564 34.11 75.0803 34.6257C74.7901 34.6474 74.4988 34.6455 74.2078 34.6436C73.7896 34.6409 73.3717 34.6383 72.9578 34.7055C72.3453 34.8031 71.7936 35.299 71.701 35.9298C71.6513 36.2201 71.6443 36.5145 71.6373 36.8091C71.6297 37.1251 71.6222 37.4413 71.562 37.7527C71.0996 37.4887 70.724 37.1135 70.3493 36.7393C70.2278 36.6178 70.1063 36.4965 69.982 36.379C69.9449 35.4702 70.195 34.4835 70.897 33.8662C71.3685 33.4678 71.9305 33.1503 72.545 33.0538Z" fill="#7C9A97"/>
<path d="M54.1623 34.0273C54.5905 34.2577 54.9425 34.5969 55.2729 34.9497C55.2784 35.0306 55.2849 35.1118 55.2915 35.1932C55.296 35.2491 55.3007 35.3066 55.3048 35.3626C54.9919 35.6832 54.6666 35.9913 54.3321 36.2881L54.1293 36.2798C54.0354 36.1669 53.9361 36.0578 53.8367 35.9486C53.6173 35.7075 53.3975 35.4659 53.2338 35.1831L53.239 35.0991C53.4042 34.8161 53.6323 34.5818 53.8599 34.3482C53.9628 34.2426 54.0655 34.1371 54.1623 34.0273Z" fill="#7C9A97"/>
<path d="M72.2567 36.9929C72.3798 36.8674 72.4999 36.7381 72.6202 36.6086C73.0142 36.1846 73.4096 35.7591 73.9119 35.4626C73.9263 36.3574 73.9235 37.253 73.9208 38.148C73.9188 38.7876 73.9168 39.4272 73.9211 40.0671C73.9149 40.4621 73.9178 40.8574 73.9208 41.2526C73.9261 41.9641 73.9313 42.6757 73.883 43.3861L73.7268 43.3966C73.2757 43.4279 72.8146 43.46 72.3792 43.3186C72.2611 43.1489 72.2562 42.9382 72.2515 42.7382L72.2495 42.664C72.2571 41.4964 72.2565 40.3288 72.2559 39.1612C72.2555 38.4385 72.2551 37.7157 72.2567 36.9929Z" fill="#7C9A97"/>
<path d="M53.1198 35.7087C53.4955 36.0915 53.8074 36.5304 54.1038 36.9776C54.2922 36.8345 54.468 36.6764 54.6436 36.5185C54.8143 36.3649 54.985 36.2114 55.1671 36.0718C55.2621 35.9943 55.3795 35.9741 55.4967 35.954C55.5534 35.9443 55.6102 35.9345 55.6643 35.9183L55.6765 35.9313C56.0132 36.2891 56.3537 36.6509 56.5876 37.0896C56.503 37.1727 56.4203 37.258 56.3376 37.3434C56.1496 37.5376 55.9613 37.732 55.7497 37.8999C55.6231 37.9954 55.4543 38.1137 55.2947 38.0203C54.9601 37.8441 54.7128 37.5487 54.4724 37.2615L54.3951 37.1695C54.3493 37.1864 54.3004 37.1988 54.2512 37.2113C54.1224 37.2439 53.9921 37.2769 53.9123 37.3926C53.8435 37.4718 53.781 37.5595 53.7184 37.6473C53.5442 37.8916 53.3694 38.1367 53.0559 38.2039C52.8883 38.0327 52.7183 37.8638 52.5483 37.695C52.3284 37.4765 52.1074 37.257 51.8928 37.0336C52.2541 36.5491 52.6854 36.1247 53.1198 35.7087Z" fill="#7C9A97"/>
<path d="M57.0621 36.8108C57.4193 36.456 57.7837 36.1084 58.1995 35.8252C58.636 36.1364 59.0137 36.5213 59.3256 36.9581C59.0498 37.3845 58.7029 37.756 58.3375 38.1035C57.7466 37.9002 57.2237 37.4323 57.0621 36.8108Z" fill="#7C9A97"/>
<path fill-rule="evenodd" clip-rule="evenodd" d="M68.0607 38.7898C68.5908 38.5128 69.2125 38.4816 69.7941 38.575C70.5301 38.7389 71.2105 39.2712 71.441 40.0099C71.5759 40.4633 71.6232 40.9395 71.6345 41.4126L71.6353 41.4875C71.6414 42.1091 71.6475 42.7332 71.5594 43.3507C70.9459 43.4307 70.3281 43.4256 69.7107 43.4204C69.4798 43.4185 69.2485 43.4166 69.018 43.4191C68.4957 43.421 67.9734 43.4197 67.4512 43.4183C66.5144 43.4159 65.5759 43.4135 64.6392 43.4295C64.4745 44.2004 64.2264 44.991 63.6737 45.574C63.0684 46.2132 62.177 46.5244 61.3144 46.5524C61.1948 46.421 61.0723 46.292 60.9498 46.1631C60.6025 45.7976 60.2546 45.4315 59.9732 45.0107C60.2636 44.924 60.5703 44.9091 60.8761 44.8942C61.3357 44.8719 61.7934 44.8496 62.1914 44.5843C62.5498 44.3814 62.672 43.9726 62.7841 43.5971C62.7976 43.5521 62.8109 43.5075 62.8245 43.4637C62.2184 43.3354 61.604 43.3395 60.9891 43.3437C60.5699 43.3465 60.1506 43.3493 59.7334 43.3102C59.6994 42.6773 59.6963 42.0444 59.6994 41.4116C59.6963 40.8648 59.7746 40.3087 59.9948 39.8055C60.3778 39.0564 61.192 38.5864 62.0165 38.5439C62.6433 38.4962 63.2496 38.7804 63.7324 39.1643C64.4066 39.764 64.5991 40.7237 64.5486 41.5942C65.2918 41.7114 66.0545 41.7207 66.7977 41.59C66.7989 41.5162 66.7992 41.4418 66.7995 41.3671C66.8013 40.9092 66.8032 40.4388 66.9995 40.0182C67.2331 39.5254 67.5532 39.0294 68.0607 38.7898ZM61.6222 40.4934C61.4055 40.7042 61.4214 41.006 61.4368 41.2968C61.4423 41.4025 61.4478 41.5067 61.4421 41.6045C61.894 41.6886 62.3572 41.6803 62.8101 41.5952C62.842 41.1366 62.7771 40.6708 62.4972 40.2942C62.4241 40.3017 62.3468 40.3025 62.2686 40.3034C62.0329 40.306 61.7884 40.3087 61.6222 40.4934ZM69.4203 40.1421C69.1846 40.1447 68.9401 40.1474 68.774 40.3321C68.5573 40.5429 68.5732 40.8447 68.5885 41.1355C68.5941 41.2412 68.5996 41.3454 68.5938 41.4432C69.0457 41.5273 69.5089 41.519 69.9618 41.4339C69.9937 40.9753 69.9289 40.5095 69.6489 40.1329C69.5758 40.1404 69.4985 40.1412 69.4203 40.1421Z" fill="#7C9A97"/>
<path d="M45.5055 40.1391C45.7449 39.9503 45.9666 39.7404 46.1882 39.5305C46.5134 39.2226 46.8385 38.9148 47.2193 38.6741C47.2687 39.4118 47.2621 40.1508 47.2554 40.8899C47.2517 41.3068 47.248 41.7237 47.2543 42.1404C47.2593 42.3038 47.2554 42.469 47.2515 42.6344C47.2418 43.0447 47.2321 43.4569 47.3583 43.8502C47.5559 44.3078 47.9501 44.7539 48.472 44.7996C48.858 44.8338 49.2852 44.8172 49.6053 44.5672C50.015 44.2549 50.1766 43.7216 50.228 43.2267C50.2606 42.7356 50.2535 42.2434 50.2464 41.7512C50.2403 41.3252 50.2342 40.8992 50.2538 40.4742C50.2579 40.1681 50.4524 39.9181 50.6676 39.723C51.0432 39.3757 51.4345 39.0451 51.8252 38.7149L51.8575 38.6876C51.9738 39.2925 51.9682 39.905 51.9625 40.518C51.9591 40.887 51.9557 41.2561 51.9789 41.6237C52.0438 41.6041 52.1182 41.5997 52.1932 41.5952C52.3443 41.5862 52.4979 41.5771 52.5811 41.4432C52.6942 41.0997 52.6919 40.737 52.6897 40.3777C52.6891 40.2791 52.6884 40.1807 52.6902 40.083C53.0051 39.8231 53.3014 39.5417 53.5974 39.2604C53.8032 39.0648 54.0096 38.8688 54.2219 38.6803C54.2769 39.0608 54.2712 39.4483 54.2656 39.8352C54.2566 40.4474 54.2477 41.0581 54.4792 41.6372C54.6315 41.5625 54.7849 41.4899 54.9455 41.4328C54.9787 41.2529 54.9816 41.0672 54.9846 40.8817C54.9891 40.5956 54.9936 40.3103 55.1092 40.0478C55.4214 39.6363 55.8285 39.3128 56.232 38.9921C56.326 38.9175 56.4198 38.8429 56.5121 38.7675C56.6294 39.2432 56.6219 39.7314 56.6145 40.2193C56.6114 40.4208 56.6083 40.6223 56.614 40.8228C56.6129 41.0674 56.616 41.3123 56.6191 41.5573C56.6272 42.1864 56.6353 42.8163 56.5708 43.4435C56.0551 43.4471 55.5392 43.4441 55.0234 43.4411C54.0299 43.4353 53.0364 43.4295 52.0438 43.4705C52.0227 43.5475 52.0022 43.625 51.9816 43.7026C51.8483 44.2051 51.7128 44.7159 51.4159 45.1482C50.9074 45.8827 50.1076 46.4368 49.2152 46.5436C48.6573 46.5955 48.0788 46.5716 47.5559 46.3517C46.6316 46.001 45.9162 45.1751 45.6496 44.2227C45.4881 43.7033 45.49 43.1587 45.4919 42.6204C45.4922 42.5307 45.4925 42.4412 45.4921 42.3521C45.4934 42.1112 45.493 41.8703 45.4926 41.6295C45.4918 41.1327 45.4909 40.6359 45.5055 40.1391Z" fill="#7C9A97"/>
<path d="M57.9501 39.5935C58.237 39.3021 58.5237 39.0108 58.8441 38.7558C59.0105 39.3265 58.9983 39.9169 58.9862 40.5059C58.9814 40.7404 58.9766 40.9747 58.983 41.2075C58.9737 41.5161 58.9788 41.8267 58.9838 42.1377C58.9961 42.8929 59.0084 43.6502 58.8152 44.3843C58.5394 45.2019 57.931 45.9364 57.1127 46.2404L56.9906 46.2847C56.6587 46.4056 56.3187 46.5296 55.964 46.5268C55.422 46.2121 55.0092 45.7224 54.6057 45.2438C54.541 45.1671 54.4764 45.0905 54.4118 45.0151C54.7684 44.9031 55.1371 44.8938 55.5058 44.8845C55.6426 44.881 55.7794 44.8775 55.9156 44.8688C56.6608 44.819 57.3556 44.1644 57.3392 43.3894C57.3436 42.9724 57.3411 42.5554 57.3387 42.1383C57.3348 41.4843 57.331 40.8304 57.3536 40.1772C57.5594 39.9903 57.7549 39.7918 57.9501 39.5935Z" fill="#7C9A97"/>
<path d="M65.6914 53.2476C65.398 53.3171 65.1098 53.4105 64.8371 53.5391C64.8476 53.7993 64.8511 54.0608 64.8546 54.3226L64.8576 54.5362C64.9723 54.5279 65.0915 54.5323 65.2114 54.5367C65.5006 54.5473 65.7941 54.558 66.0393 54.393C66.0853 54.1631 66.0954 53.9284 66.1054 53.6954L66.1062 53.675C65.9642 53.536 65.8262 53.3928 65.6914 53.2476Z" fill="#7C9A97"/>
<path d="M72.1267 53.3874C71.9931 53.3955 71.8597 53.4035 71.726 53.4009C71.6622 53.4601 71.5994 53.5202 71.5366 53.5814L71.5392 53.8681C71.5408 54.0584 71.5424 54.2489 71.5458 54.4395C71.6035 54.4482 71.6613 54.4592 71.7192 54.4702C71.8732 54.4994 72.0283 54.5289 72.1861 54.5183C72.3356 54.4816 72.4743 54.413 72.6128 54.3445L72.6711 54.3158L72.7265 54.289C72.7087 54.0003 72.63 53.7263 72.5514 53.4528L72.5289 53.3739C72.3945 53.3713 72.2605 53.3794 72.1267 53.3874Z" fill="#7C9A97"/>
<path fill-rule="evenodd" clip-rule="evenodd" d="M45.3825 48.304C45.894 48.3212 46.4061 48.32 46.918 48.3188C47.1136 48.3184 47.3094 48.3179 47.5049 48.3185C51.2398 48.3176 54.9744 48.3178 58.7091 48.3181C63.6893 48.3184 68.6695 48.3188 73.65 48.3164C73.7967 48.3194 73.9444 48.316 74.0919 48.3126C74.3975 48.3054 74.7041 48.2982 75.0067 48.3486C75.0324 48.3735 75.0839 48.4253 75.1096 48.4513C75.161 48.7887 75.1527 49.1295 75.1444 49.4708C75.1399 49.6563 75.1354 49.842 75.1405 50.0273C75.1441 51.3867 75.1423 52.7466 75.1405 54.1063C75.1377 56.2823 75.1349 58.4584 75.1539 60.6337C74.5836 60.6733 74.0125 60.6711 73.4413 60.6689L73.1354 60.668L64.7926 60.6685C58.325 60.6692 51.8573 60.6698 45.3897 60.6669C45.3886 59.2294 45.3894 57.7918 45.3902 56.3543C45.3917 53.6709 45.3932 50.9874 45.3825 48.304ZM68.2275 50.3717C68.0577 50.5657 67.9228 50.8075 67.931 51.0751C67.9159 51.5878 67.9248 52.1006 67.9336 52.6133C67.9392 52.9357 67.9448 53.2582 67.9444 53.5807C67.9481 53.815 67.8777 54.0392 67.8081 54.2608L67.7849 54.335C67.668 54.0872 67.5896 53.8209 67.5114 53.5548C67.3816 53.1136 67.252 52.6732 66.947 52.3191C66.457 51.7568 65.6459 51.6344 64.946 51.7474C64.5147 51.8616 64.1153 52.1427 63.9043 52.5453C63.7363 52.839 63.639 53.1612 63.5416 53.4838C63.4749 53.7047 63.4081 53.9257 63.3186 54.1379C63.2671 54.307 63.0891 54.3578 62.9357 54.3848C62.5213 54.4514 62.0981 54.4366 61.6756 54.4219C61.0716 54.4008 60.4687 54.3797 59.894 54.5964C59.9014 55.0043 59.8982 55.4122 59.895 55.8199C59.892 56.2066 59.889 56.5932 59.895 56.9796C59.8991 57.5419 60.1246 58.096 60.4941 58.5141C60.7432 58.8015 61.1055 58.9426 61.4514 59.0733C61.4803 58.7283 61.4808 58.3824 61.4813 58.0366C61.4818 57.7179 61.4822 57.3992 61.5049 57.0813C61.5327 56.7109 61.5368 56.3395 61.5265 55.9691C63.595 55.9804 65.665 55.9784 67.7333 55.9765C69.4652 55.9749 71.1973 55.9733 72.9295 55.9795C73.3412 55.9857 73.7519 55.9473 74.1606 55.9016C74.2481 55.249 74.2398 54.5892 74.211 53.9335C74.176 53.3649 74.0597 52.7403 73.6058 52.3534C73.1405 51.955 72.5373 51.6624 71.9135 51.7194C71.3165 51.7526 70.7916 52.1334 70.4395 52.6003C70.1129 53.0199 69.9928 53.546 69.8762 54.057C69.8616 54.1209 69.8471 54.1847 69.8322 54.2479L69.8238 54.2482C69.7464 54.2514 69.6051 54.2573 69.5327 54.2593C69.4841 53.5888 69.4889 52.9164 69.4937 52.2441C69.496 51.9197 69.4983 51.5954 69.4946 51.2712C69.4901 51.0889 69.4951 50.9048 69.5 50.7205C69.5133 50.2267 69.5266 49.7313 69.3587 49.2605L69.2124 49.3943C68.8709 49.706 68.5283 50.0186 68.2275 50.3717ZM70.1688 50.5502C70.4591 50.8635 70.7648 51.1623 71.0818 51.4476C71.4349 51.1779 71.7643 50.878 72.0638 50.5491C72.0171 50.4904 71.971 50.4288 71.9244 50.3664C71.6974 50.0631 71.4577 49.7427 71.0777 49.6558C70.7424 49.7737 70.529 50.0646 70.3232 50.3451C70.2718 50.415 70.221 50.4843 70.1688 50.5502ZM72.1915 50.6384C72.491 50.9226 72.8029 51.1955 73.1302 51.4476C73.4081 51.182 73.683 50.9133 73.9527 50.6394C73.7581 50.2897 73.5152 49.9733 73.2537 49.6745C73.1701 49.6676 73.0066 49.6562 72.9142 49.6497L72.8986 49.6486C72.5929 49.9225 72.3428 50.2524 72.1915 50.6384ZM53.5214 52.7642L53.4998 53.2612C54.1693 53.3265 54.8417 53.3166 55.5133 53.3066C55.7263 53.3035 55.9396 53.3003 56.1524 53.2996L56.2305 53.3006C56.5534 53.3046 56.8871 53.3088 57.1899 53.4355C57.3696 53.5826 57.3925 53.8186 57.4145 54.0461C57.4228 54.1315 57.431 54.2156 57.4473 54.2935C57.3725 54.304 57.2974 54.315 57.2227 54.326L57.2204 54.3263C56.8663 54.3784 56.5108 54.4308 56.1524 54.4273C55.1564 54.4216 54.1605 54.4229 53.1645 54.4242C52.1687 54.4255 51.1729 54.4268 50.1771 54.4211C49.7767 54.417 49.3773 54.4429 48.9841 54.5093C48.9079 54.9731 48.9522 55.442 49.0654 55.8954C49.3379 55.9285 49.6111 55.9529 49.8844 55.9772L50.1174 55.9981C50.1099 56.0504 50.1051 56.1039 50.1003 56.1577C50.0872 56.3037 50.0739 56.4518 50.0062 56.5822C49.7901 56.8468 49.4689 57.0221 49.1364 57.0813C48.6434 57.0906 48.068 56.8468 47.9311 56.327C47.8493 55.9845 47.8588 55.6327 47.8683 55.2817C47.8726 55.1202 47.877 54.9589 47.8724 54.7988C47.8677 54.4888 47.8709 54.1786 47.8741 53.8684C47.8806 53.2266 47.8872 52.5849 47.824 51.9456C47.1282 52.1085 46.6279 52.6937 46.348 53.3276C46.2043 53.6538 46.2126 54.0115 46.2207 54.3628C46.2225 54.4394 46.2243 54.5157 46.2244 54.5913C46.2285 54.7463 46.228 54.9022 46.2275 55.0583C46.2261 55.5395 46.2246 56.0227 46.3552 56.4889C46.559 57.1871 46.9584 57.8667 47.6027 58.2329C47.9748 58.4818 48.4161 58.559 48.8496 58.6349C48.9149 58.6463 48.9801 58.6578 49.0448 58.6697C49.1337 58.651 49.2237 58.634 49.3139 58.617C49.6979 58.5447 50.0864 58.4714 50.419 58.2547C50.912 57.9248 51.3361 57.4672 51.5657 56.9122C51.6594 56.7113 51.725 56.5006 51.7907 56.2898C51.8223 56.1881 51.854 56.0863 51.8889 55.9857C52.8195 55.856 53.7538 55.8969 54.6881 55.9378C55.2789 55.9636 55.87 55.9895 56.4601 55.9722L56.5412 55.973C57.3213 55.9812 58.1031 55.9894 58.878 55.8861L58.8841 55.8669C59.0573 55.3198 59.2375 54.7505 59.1642 54.17C59.0963 53.6461 58.9347 53.1294 58.6681 52.6739C58.384 52.1884 57.8755 51.8709 57.3392 51.7443C56.8132 51.6209 56.2677 51.6271 55.7314 51.6541C54.8842 51.7111 54.1081 52.1614 53.5214 52.7642ZM53.3114 57.5949C53.4782 58.0005 53.8631 58.2786 54.2955 58.317L54.3998 58.199C54.5198 58.0637 54.6394 57.9288 54.7535 57.7889C54.7689 57.626 54.7669 57.4631 54.7607 57.3012C54.6544 57.1874 54.5462 57.0755 54.4384 56.9641C54.3782 56.9018 54.3181 56.8397 54.2584 56.7773C53.8456 56.88 53.3917 57.1415 53.3114 57.5949ZM55.2754 57.3832L55.3001 57.6955C55.5008 57.8968 55.6933 58.1053 55.8827 58.318C56.2594 58.2246 56.5641 57.9839 56.8297 57.7069C56.8177 57.5968 56.8065 57.4866 56.7954 57.3777L56.7885 57.3106C56.6761 57.2115 56.5694 57.107 56.4628 57.0026C56.382 56.9235 56.3013 56.8445 56.2182 56.768C55.8456 56.8717 55.541 57.1093 55.2754 57.3832ZM54.3109 58.9312C54.5651 59.23 54.8359 59.5142 55.121 59.784C55.3732 59.5454 55.6212 59.3016 55.8621 59.0526C55.6531 58.7071 55.4082 58.3865 55.1292 58.097C54.8359 58.3543 54.5631 58.6324 54.3109 58.9312Z" fill="#7C9A97"/>
</svg>
